<?xml version="1.0" encoding="utf-8" standalone="no"?>
<!DOCTYPE svg PUBLIC "-//W3C//DTD SVG 1.1//EN"
  "http://www.w3.org/Graphics/SVG/1.1/DTD/svg11.dtd">
<svg xmlns:xlink="http://www.w3.org/1999/xlink" width="855.55125pt" height="422.889687pt" viewBox="0 0 855.55125 422.889687" xmlns="http://www.w3.org/2000/svg" version="1.1">
 <metadata>
  <rdf:RDF xmlns:dc="http://purl.org/dc/elements/1.1/" xmlns:cc="http://creativecommons.org/ns#" xmlns:rdf="http://www.w3.org/1999/02/22-rdf-syntax-ns#">
   <cc:Work>
    <dc:type rdf:resource="http://purl.org/dc/dcmitype/StillImage"/>
    <dc:date>2025-11-06T11:26:29.248968</dc:date>
    <dc:format>image/svg+xml</dc:format>
    <dc:creator>
     <cc:Agent>
      <dc:title>Matplotlib v3.10.3, https://matplotlib.org/</dc:title>
     </cc:Agent>
    </dc:creator>
   </cc:Work>
  </rdf:RDF>
 </metadata>
 <defs>
  <style type="text/css">*{stroke-linejoin: round; stroke-linecap: butt}</style>
 </defs>
 <g id="figure_1">
  <g id="patch_1">
   <path d="M 0 422.889687 
L 855.55125 422.889687 
L 855.55125 0 
L 0 0 
L 0 422.889687 
z
" style="fill: none"/>
  </g>
  <g id="axes_1">
   <g id="patch_2">
    <path d="M 48.90125 383.397812 
L 848.35125 383.397812 
L 848.35125 23.837812 
L 48.90125 23.837812 
L 48.90125 383.397812 
z
" style="fill: none"/>
   </g>
   <g id="matplotlib.axis_1">
    <g id="xtick_1">
     <g id="line2d_1">
      <path d="M 70.40779 383.397812 
L 70.40779 23.837812 
" clip-path="url(#p47b5ed9876)" style="fill: none; stroke: #b0b0b0; stroke-opacity: 0.3; stroke-width: 0.8; stroke-linecap: square"/>
     </g>
     <g id="line2d_2">
      <defs>
       <path id="mc731e9acca" d="M 0 0 
L 0 3.5 
" style="stroke: #000000; stroke-width: 0.8"/>
      </defs>
      <g>
       <use xlink:href="#mc731e9acca" x="70.40779" y="383.397812" style="stroke: #000000; stroke-width: 0.8"/>
      </g>
     </g>
     <g id="text_1">
      <!-- 0 -->
      <g transform="translate(67.22654 397.99625) scale(0.1 -0.1)">
       <defs>
        <path id="DejaVuSans-30" d="M 2034 4250 
Q 1547 4250 1301 3770 
Q 1056 3291 1056 2328 
Q 1056 1369 1301 889 
Q 1547 409 2034 409 
Q 2525 409 2770 889 
Q 3016 1369 3016 2328 
Q 3016 3291 2770 3770 
Q 2525 4250 2034 4250 
z
M 2034 4750 
Q 2819 4750 3233 4129 
Q 3647 3509 3647 2328 
Q 3647 1150 3233 529 
Q 2819 -91 2034 -91 
Q 1250 -91 836 529 
Q 422 1150 422 2328 
Q 422 3509 836 4129 
Q 1250 4750 2034 4750 
z
" transform="scale(0.015625)"/>
       </defs>
       <use xlink:href="#DejaVuSans-30"/>
      </g>
     </g>
    </g>
    <g id="xtick_2">
     <g id="line2d_3">
      <path d="M 218.728755 383.397812 
L 218.728755 23.837812 
" clip-path="url(#p47b5ed9876)" style="fill: none; stroke: #b0b0b0; stroke-opacity: 0.3; stroke-width: 0.8; stroke-linecap: square"/>
     </g>
     <g id="line2d_4">
      <g>
       <use xlink:href="#mc731e9acca" x="218.728755" y="383.397812" style="stroke: #000000; stroke-width: 0.8"/>
      </g>
     </g>
     <g id="text_2">
      <!-- 10 -->
      <g transform="translate(212.366255 397.99625) scale(0.1 -0.1)">
       <defs>
        <path id="DejaVuSans-31" d="M 794 531 
L 1825 531 
L 1825 4091 
L 703 3866 
L 703 4441 
L 1819 4666 
L 2450 4666 
L 2450 531 
L 3481 531 
L 3481 0 
L 794 0 
L 794 531 
z
" transform="scale(0.015625)"/>
       </defs>
       <use xlink:href="#DejaVuSans-31"/>
       <use xlink:href="#DejaVuSans-30" transform="translate(63.623047 0)"/>
      </g>
     </g>
    </g>
    <g id="xtick_3">
     <g id="line2d_5">
      <path d="M 367.049719 383.397812 
L 367.049719 23.837812 
" clip-path="url(#p47b5ed9876)" style="fill: none; stroke: #b0b0b0; stroke-opacity: 0.3; stroke-width: 0.8; stroke-linecap: square"/>
     </g>
     <g id="line2d_6">
      <g>
       <use xlink:href="#mc731e9acca" x="367.049719" y="383.397812" style="stroke: #000000; stroke-width: 0.8"/>
      </g>
     </g>
     <g id="text_3">
      <!-- 20 -->
      <g transform="translate(360.687219 397.99625) scale(0.1 -0.1)">
       <defs>
        <path id="DejaVuSans-32" d="M 1228 531 
L 3431 531 
L 3431 0 
L 469 0 
L 469 531 
Q 828 903 1448 1529 
Q 2069 2156 2228 2338 
Q 2531 2678 2651 2914 
Q 2772 3150 2772 3378 
Q 2772 3750 2511 3984 
Q 2250 4219 1831 4219 
Q 1534 4219 1204 4116 
Q 875 4013 500 3803 
L 500 4441 
Q 881 4594 1212 4672 
Q 1544 4750 1819 4750 
Q 2544 4750 2975 4387 
Q 3406 4025 3406 3419 
Q 3406 3131 3298 2873 
Q 3191 2616 2906 2266 
Q 2828 2175 2409 1742 
Q 1991 1309 1228 531 
z
" transform="scale(0.015625)"/>
       </defs>
       <use xlink:href="#DejaVuSans-32"/>
       <use xlink:href="#DejaVuSans-30" transform="translate(63.623047 0)"/>
      </g>
     </g>
    </g>
    <g id="xtick_4">
     <g id="line2d_7">
      <path d="M 515.370684 383.397812 
L 515.370684 23.837812 
" clip-path="url(#p47b5ed9876)" style="fill: none; stroke: #b0b0b0; stroke-opacity: 0.3; stroke-width: 0.8; stroke-linecap: square"/>
     </g>
     <g id="line2d_8">
      <g>
       <use xlink:href="#mc731e9acca" x="515.370684" y="383.397812" style="stroke: #000000; stroke-width: 0.8"/>
      </g>
     </g>
     <g id="text_4">
      <!-- 30 -->
      <g transform="translate(509.008184 397.99625) scale(0.1 -0.1)">
       <defs>
        <path id="DejaVuSans-33" d="M 2597 2516 
Q 3050 2419 3304 2112 
Q 3559 1806 3559 1356 
Q 3559 666 3084 287 
Q 2609 -91 1734 -91 
Q 1441 -91 1130 -33 
Q 819 25 488 141 
L 488 750 
Q 750 597 1062 519 
Q 1375 441 1716 441 
Q 2309 441 2620 675 
Q 2931 909 2931 1356 
Q 2931 1769 2642 2001 
Q 2353 2234 1838 2234 
L 1294 2234 
L 1294 2753 
L 1863 2753 
Q 2328 2753 2575 2939 
Q 2822 3125 2822 3475 
Q 2822 3834 2567 4026 
Q 2313 4219 1838 4219 
Q 1578 4219 1281 4162 
Q 984 4106 628 3988 
L 628 4550 
Q 988 4650 1302 4700 
Q 1616 4750 1894 4750 
Q 2613 4750 3031 4423 
Q 3450 4097 3450 3541 
Q 3450 3153 3228 2886 
Q 3006 2619 2597 2516 
z
" transform="scale(0.015625)"/>
       </defs>
       <use xlink:href="#DejaVuSans-33"/>
       <use xlink:href="#DejaVuSans-30" transform="translate(63.623047 0)"/>
      </g>
     </g>
    </g>
    <g id="xtick_5">
     <g id="line2d_9">
      <path d="M 663.691649 383.397812 
L 663.691649 23.837812 
" clip-path="url(#p47b5ed9876)" style="fill: none; stroke: #b0b0b0; stroke-opacity: 0.3; stroke-width: 0.8; stroke-linecap: square"/>
     </g>
     <g id="line2d_10">
      <g>
       <use xlink:href="#mc731e9acca" x="663.691649" y="383.397812" style="stroke: #000000; stroke-width: 0.8"/>
      </g>
     </g>
     <g id="text_5">
      <!-- 40 -->
      <g transform="translate(657.329149 397.99625) scale(0.1 -0.1)">
       <defs>
        <path id="DejaVuSans-34" d="M 2419 4116 
L 825 1625 
L 2419 1625 
L 2419 4116 
z
M 2253 4666 
L 3047 4666 
L 3047 1625 
L 3713 1625 
L 3713 1100 
L 3047 1100 
L 3047 0 
L 2419 0 
L 2419 1100 
L 313 1100 
L 313 1709 
L 2253 4666 
z
" transform="scale(0.015625)"/>
       </defs>
       <use xlink:href="#DejaVuSans-34"/>
       <use xlink:href="#DejaVuSans-30" transform="translate(63.623047 0)"/>
      </g>
     </g>
    </g>
    <g id="xtick_6">
     <g id="line2d_11">
      <path d="M 812.012614 383.397812 
L 812.012614 23.837812 
" clip-path="url(#p47b5ed9876)" style="fill: none; stroke: #b0b0b0; stroke-opacity: 0.3; stroke-width: 0.8; stroke-linecap: square"/>
     </g>
     <g id="line2d_12">
      <g>
       <use xlink:href="#mc731e9acca" x="812.012614" y="383.397812" style="stroke: #000000; stroke-width: 0.8"/>
      </g>
     </g>
     <g id="text_6">
      <!-- 50 -->
      <g transform="translate(805.650114 397.99625) scale(0.1 -0.1)">
       <defs>
        <path id="DejaVuSans-35" d="M 691 4666 
L 3169 4666 
L 3169 4134 
L 1269 4134 
L 1269 2991 
Q 1406 3038 1543 3061 
Q 1681 3084 1819 3084 
Q 2600 3084 3056 2656 
Q 3513 2228 3513 1497 
Q 3513 744 3044 326 
Q 2575 -91 1722 -91 
Q 1428 -91 1123 -41 
Q 819 9 494 109 
L 494 744 
Q 775 591 1075 516 
Q 1375 441 1709 441 
Q 2250 441 2565 725 
Q 2881 1009 2881 1497 
Q 2881 1984 2565 2268 
Q 2250 2553 1709 2553 
Q 1456 2553 1204 2497 
Q 953 2441 691 2322 
L 691 4666 
z
" transform="scale(0.015625)"/>
       </defs>
       <use xlink:href="#DejaVuSans-35"/>
       <use xlink:href="#DejaVuSans-30" transform="translate(63.623047 0)"/>
      </g>
     </g>
    </g>
    <g id="text_7">
     <!-- The Number of Nodes -->
     <g transform="translate(383.073438 413.194062) scale(0.12 -0.12)">
      <defs>
       <path id="DejaVuSans-54" d="M -19 4666 
L 3928 4666 
L 3928 4134 
L 2272 4134 
L 2272 0 
L 1638 0 
L 1638 4134 
L -19 4134 
L -19 4666 
z
" transform="scale(0.015625)"/>
       <path id="DejaVuSans-68" d="M 3513 2113 
L 3513 0 
L 2938 0 
L 2938 2094 
Q 2938 2591 2744 2837 
Q 2550 3084 2163 3084 
Q 1697 3084 1428 2787 
Q 1159 2491 1159 1978 
L 1159 0 
L 581 0 
L 581 4863 
L 1159 4863 
L 1159 2956 
Q 1366 3272 1645 3428 
Q 1925 3584 2291 3584 
Q 2894 3584 3203 3211 
Q 3513 2838 3513 2113 
z
" transform="scale(0.015625)"/>
       <path id="DejaVuSans-65" d="M 3597 1894 
L 3597 1613 
L 953 1613 
Q 991 1019 1311 708 
Q 1631 397 2203 397 
Q 2534 397 2845 478 
Q 3156 559 3463 722 
L 3463 178 
Q 3153 47 2828 -22 
Q 2503 -91 2169 -91 
Q 1331 -91 842 396 
Q 353 884 353 1716 
Q 353 2575 817 3079 
Q 1281 3584 2069 3584 
Q 2775 3584 3186 3129 
Q 3597 2675 3597 1894 
z
M 3022 2063 
Q 3016 2534 2758 2815 
Q 2500 3097 2075 3097 
Q 1594 3097 1305 2825 
Q 1016 2553 972 2059 
L 3022 2063 
z
" transform="scale(0.015625)"/>
       <path id="DejaVuSans-20" transform="scale(0.015625)"/>
       <path id="DejaVuSans-4e" d="M 628 4666 
L 1478 4666 
L 3547 763 
L 3547 4666 
L 4159 4666 
L 4159 0 
L 3309 0 
L 1241 3903 
L 1241 0 
L 628 0 
L 628 4666 
z
" transform="scale(0.015625)"/>
       <path id="DejaVuSans-75" d="M 544 1381 
L 544 3500 
L 1119 3500 
L 1119 1403 
Q 1119 906 1312 657 
Q 1506 409 1894 409 
Q 2359 409 2629 706 
Q 2900 1003 2900 1516 
L 2900 3500 
L 3475 3500 
L 3475 0 
L 2900 0 
L 2900 538 
Q 2691 219 2414 64 
Q 2138 -91 1772 -91 
Q 1169 -91 856 284 
Q 544 659 544 1381 
z
M 1991 3584 
L 1991 3584 
z
" transform="scale(0.015625)"/>
       <path id="DejaVuSans-6d" d="M 3328 2828 
Q 3544 3216 3844 3400 
Q 4144 3584 4550 3584 
Q 5097 3584 5394 3201 
Q 5691 2819 5691 2113 
L 5691 0 
L 5113 0 
L 5113 2094 
Q 5113 2597 4934 2840 
Q 4756 3084 4391 3084 
Q 3944 3084 3684 2787 
Q 3425 2491 3425 1978 
L 3425 0 
L 2847 0 
L 2847 2094 
Q 2847 2600 2669 2842 
Q 2491 3084 2119 3084 
Q 1678 3084 1418 2786 
Q 1159 2488 1159 1978 
L 1159 0 
L 581 0 
L 581 3500 
L 1159 3500 
L 1159 2956 
Q 1356 3278 1631 3431 
Q 1906 3584 2284 3584 
Q 2666 3584 2933 3390 
Q 3200 3197 3328 2828 
z
" transform="scale(0.015625)"/>
       <path id="DejaVuSans-62" d="M 3116 1747 
Q 3116 2381 2855 2742 
Q 2594 3103 2138 3103 
Q 1681 3103 1420 2742 
Q 1159 2381 1159 1747 
Q 1159 1113 1420 752 
Q 1681 391 2138 391 
Q 2594 391 2855 752 
Q 3116 1113 3116 1747 
z
M 1159 2969 
Q 1341 3281 1617 3432 
Q 1894 3584 2278 3584 
Q 2916 3584 3314 3078 
Q 3713 2572 3713 1747 
Q 3713 922 3314 415 
Q 2916 -91 2278 -91 
Q 1894 -91 1617 61 
Q 1341 213 1159 525 
L 1159 0 
L 581 0 
L 581 4863 
L 1159 4863 
L 1159 2969 
z
" transform="scale(0.015625)"/>
       <path id="DejaVuSans-72" d="M 2631 2963 
Q 2534 3019 2420 3045 
Q 2306 3072 2169 3072 
Q 1681 3072 1420 2755 
Q 1159 2438 1159 1844 
L 1159 0 
L 581 0 
L 581 3500 
L 1159 3500 
L 1159 2956 
Q 1341 3275 1631 3429 
Q 1922 3584 2338 3584 
Q 2397 3584 2469 3576 
Q 2541 3569 2628 3553 
L 2631 2963 
z
" transform="scale(0.015625)"/>
       <path id="DejaVuSans-6f" d="M 1959 3097 
Q 1497 3097 1228 2736 
Q 959 2375 959 1747 
Q 959 1119 1226 758 
Q 1494 397 1959 397 
Q 2419 397 2687 759 
Q 2956 1122 2956 1747 
Q 2956 2369 2687 2733 
Q 2419 3097 1959 3097 
z
M 1959 3584 
Q 2709 3584 3137 3096 
Q 3566 2609 3566 1747 
Q 3566 888 3137 398 
Q 2709 -91 1959 -91 
Q 1206 -91 779 398 
Q 353 888 353 1747 
Q 353 2609 779 3096 
Q 1206 3584 1959 3584 
z
" transform="scale(0.015625)"/>
       <path id="DejaVuSans-66" d="M 2375 4863 
L 2375 4384 
L 1825 4384 
Q 1516 4384 1395 4259 
Q 1275 4134 1275 3809 
L 1275 3500 
L 2222 3500 
L 2222 3053 
L 1275 3053 
L 1275 0 
L 697 0 
L 697 3053 
L 147 3053 
L 147 3500 
L 697 3500 
L 697 3744 
Q 697 4328 969 4595 
Q 1241 4863 1831 4863 
L 2375 4863 
z
" transform="scale(0.015625)"/>
       <path id="DejaVuSans-64" d="M 2906 2969 
L 2906 4863 
L 3481 4863 
L 3481 0 
L 2906 0 
L 2906 525 
Q 2725 213 2448 61 
Q 2172 -91 1784 -91 
Q 1150 -91 751 415 
Q 353 922 353 1747 
Q 353 2572 751 3078 
Q 1150 3584 1784 3584 
Q 2172 3584 2448 3432 
Q 2725 3281 2906 2969 
z
M 947 1747 
Q 947 1113 1208 752 
Q 1469 391 1925 391 
Q 2381 391 2643 752 
Q 2906 1113 2906 1747 
Q 2906 2381 2643 2742 
Q 2381 3103 1925 3103 
Q 1469 3103 1208 2742 
Q 947 2381 947 1747 
z
" transform="scale(0.015625)"/>
       <path id="DejaVuSans-73" d="M 2834 3397 
L 2834 2853 
Q 2591 2978 2328 3040 
Q 2066 3103 1784 3103 
Q 1356 3103 1142 2972 
Q 928 2841 928 2578 
Q 928 2378 1081 2264 
Q 1234 2150 1697 2047 
L 1894 2003 
Q 2506 1872 2764 1633 
Q 3022 1394 3022 966 
Q 3022 478 2636 193 
Q 2250 -91 1575 -91 
Q 1294 -91 989 -36 
Q 684 19 347 128 
L 347 722 
Q 666 556 975 473 
Q 1284 391 1588 391 
Q 1994 391 2212 530 
Q 2431 669 2431 922 
Q 2431 1156 2273 1281 
Q 2116 1406 1581 1522 
L 1381 1569 
Q 847 1681 609 1914 
Q 372 2147 372 2553 
Q 372 3047 722 3315 
Q 1072 3584 1716 3584 
Q 2034 3584 2315 3537 
Q 2597 3491 2834 3397 
z
" transform="scale(0.015625)"/>
      </defs>
      <use xlink:href="#DejaVuSans-54"/>
      <use xlink:href="#DejaVuSans-68" transform="translate(61.083984 0)"/>
      <use xlink:href="#DejaVuSans-65" transform="translate(124.462891 0)"/>
      <use xlink:href="#DejaVuSans-20" transform="translate(185.986328 0)"/>
      <use xlink:href="#DejaVuSans-4e" transform="translate(217.773438 0)"/>
      <use xlink:href="#DejaVuSans-75" transform="translate(292.578125 0)"/>
      <use xlink:href="#DejaVuSans-6d" transform="translate(355.957031 0)"/>
      <use xlink:href="#DejaVuSans-62" transform="translate(453.369141 0)"/>
      <use xlink:href="#DejaVuSans-65" transform="translate(516.845703 0)"/>
      <use xlink:href="#DejaVuSans-72" transform="translate(578.369141 0)"/>
      <use xlink:href="#DejaVuSans-20" transform="translate(619.482422 0)"/>
      <use xlink:href="#DejaVuSans-6f" transform="translate(651.269531 0)"/>
      <use xlink:href="#DejaVuSans-66" transform="translate(712.451172 0)"/>
      <use xlink:href="#DejaVuSans-20" transform="translate(747.65625 0)"/>
      <use xlink:href="#DejaVuSans-4e" transform="translate(779.443359 0)"/>
      <use xlink:href="#DejaVuSans-6f" transform="translate(854.248047 0)"/>
      <use xlink:href="#DejaVuSans-64" transform="translate(915.429688 0)"/>
      <use xlink:href="#DejaVuSans-65" transform="translate(978.90625 0)"/>
      <use xlink:href="#DejaVuSans-73" transform="translate(1040.429688 0)"/>
     </g>
    </g>
   </g>
   <g id="matplotlib.axis_2">
    <g id="ytick_1">
     <g id="line2d_13">
      <path d="M 48.90125 367.054176 
L 848.35125 367.054176 
" clip-path="url(#p47b5ed9876)" style="fill: none; stroke: #b0b0b0; stroke-opacity: 0.3; stroke-width: 0.8; stroke-linecap: square"/>
     </g>
     <g id="line2d_14">
      <defs>
       <path id="m955d107896" d="M 0 0 
L -3.5 0 
" style="stroke: #000000; stroke-width: 0.8"/>
      </defs>
      <g>
       <use xlink:href="#m955d107896" x="48.90125" y="367.054176" style="stroke: #000000; stroke-width: 0.8"/>
      </g>
     </g>
     <g id="text_8">
      <!-- 75 -->
      <g transform="translate(29.17625 370.853395) scale(0.1 -0.1)">
       <defs>
        <path id="DejaVuSans-37" d="M 525 4666 
L 3525 4666 
L 3525 4397 
L 1831 0 
L 1172 0 
L 2766 4134 
L 525 4134 
L 525 4666 
z
" transform="scale(0.015625)"/>
       </defs>
       <use xlink:href="#DejaVuSans-37"/>
       <use xlink:href="#DejaVuSans-35" transform="translate(63.623047 0)"/>
      </g>
     </g>
    </g>
    <g id="ytick_2">
     <g id="line2d_15">
      <path d="M 48.90125 301.679631 
L 848.35125 301.679631 
" clip-path="url(#p47b5ed9876)" style="fill: none; stroke: #b0b0b0; stroke-opacity: 0.3; stroke-width: 0.8; stroke-linecap: square"/>
     </g>
     <g id="line2d_16">
      <g>
       <use xlink:href="#m955d107896" x="48.90125" y="301.679631" style="stroke: #000000; stroke-width: 0.8"/>
      </g>
     </g>
     <g id="text_9">
      <!-- 80 -->
      <g transform="translate(29.17625 305.478849) scale(0.1 -0.1)">
       <defs>
        <path id="DejaVuSans-38" d="M 2034 2216 
Q 1584 2216 1326 1975 
Q 1069 1734 1069 1313 
Q 1069 891 1326 650 
Q 1584 409 2034 409 
Q 2484 409 2743 651 
Q 3003 894 3003 1313 
Q 3003 1734 2745 1975 
Q 2488 2216 2034 2216 
z
M 1403 2484 
Q 997 2584 770 2862 
Q 544 3141 544 3541 
Q 544 4100 942 4425 
Q 1341 4750 2034 4750 
Q 2731 4750 3128 4425 
Q 3525 4100 3525 3541 
Q 3525 3141 3298 2862 
Q 3072 2584 2669 2484 
Q 3125 2378 3379 2068 
Q 3634 1759 3634 1313 
Q 3634 634 3220 271 
Q 2806 -91 2034 -91 
Q 1263 -91 848 271 
Q 434 634 434 1313 
Q 434 1759 690 2068 
Q 947 2378 1403 2484 
z
M 1172 3481 
Q 1172 3119 1398 2916 
Q 1625 2713 2034 2713 
Q 2441 2713 2670 2916 
Q 2900 3119 2900 3481 
Q 2900 3844 2670 4047 
Q 2441 4250 2034 4250 
Q 1625 4250 1398 4047 
Q 1172 3844 1172 3481 
z
" transform="scale(0.015625)"/>
       </defs>
       <use xlink:href="#DejaVuSans-38"/>
       <use xlink:href="#DejaVuSans-30" transform="translate(63.623047 0)"/>
      </g>
     </g>
    </g>
    <g id="ytick_3">
     <g id="line2d_17">
      <path d="M 48.90125 236.305085 
L 848.35125 236.305085 
" clip-path="url(#p47b5ed9876)" style="fill: none; stroke: #b0b0b0; stroke-opacity: 0.3; stroke-width: 0.8; stroke-linecap: square"/>
     </g>
     <g id="line2d_18">
      <g>
       <use xlink:href="#m955d107896" x="48.90125" y="236.305085" style="stroke: #000000; stroke-width: 0.8"/>
      </g>
     </g>
     <g id="text_10">
      <!-- 85 -->
      <g transform="translate(29.17625 240.104304) scale(0.1 -0.1)">
       <use xlink:href="#DejaVuSans-38"/>
       <use xlink:href="#DejaVuSans-35" transform="translate(63.623047 0)"/>
      </g>
     </g>
    </g>
    <g id="ytick_4">
     <g id="line2d_19">
      <path d="M 48.90125 170.93054 
L 848.35125 170.93054 
" clip-path="url(#p47b5ed9876)" style="fill: none; stroke: #b0b0b0; stroke-opacity: 0.3; stroke-width: 0.8; stroke-linecap: square"/>
     </g>
     <g id="line2d_20">
      <g>
       <use xlink:href="#m955d107896" x="48.90125" y="170.93054" style="stroke: #000000; stroke-width: 0.8"/>
      </g>
     </g>
     <g id="text_11">
      <!-- 90 -->
      <g transform="translate(29.17625 174.729759) scale(0.1 -0.1)">
       <defs>
        <path id="DejaVuSans-39" d="M 703 97 
L 703 672 
Q 941 559 1184 500 
Q 1428 441 1663 441 
Q 2288 441 2617 861 
Q 2947 1281 2994 2138 
Q 2813 1869 2534 1725 
Q 2256 1581 1919 1581 
Q 1219 1581 811 2004 
Q 403 2428 403 3163 
Q 403 3881 828 4315 
Q 1253 4750 1959 4750 
Q 2769 4750 3195 4129 
Q 3622 3509 3622 2328 
Q 3622 1225 3098 567 
Q 2575 -91 1691 -91 
Q 1453 -91 1209 -44 
Q 966 3 703 97 
z
M 1959 2075 
Q 2384 2075 2632 2365 
Q 2881 2656 2881 3163 
Q 2881 3666 2632 3958 
Q 2384 4250 1959 4250 
Q 1534 4250 1286 3958 
Q 1038 3666 1038 3163 
Q 1038 2656 1286 2365 
Q 1534 2075 1959 2075 
z
" transform="scale(0.015625)"/>
       </defs>
       <use xlink:href="#DejaVuSans-39"/>
       <use xlink:href="#DejaVuSans-30" transform="translate(63.623047 0)"/>
      </g>
     </g>
    </g>
    <g id="ytick_5">
     <g id="line2d_21">
      <path d="M 48.90125 105.555994 
L 848.35125 105.555994 
" clip-path="url(#p47b5ed9876)" style="fill: none; stroke: #b0b0b0; stroke-opacity: 0.3; stroke-width: 0.8; stroke-linecap: square"/>
     </g>
     <g id="line2d_22">
      <g>
       <use xlink:href="#m955d107896" x="48.90125" y="105.555994" style="stroke: #000000; stroke-width: 0.8"/>
      </g>
     </g>
     <g id="text_12">
      <!-- 95 -->
      <g transform="translate(29.17625 109.355213) scale(0.1 -0.1)">
       <use xlink:href="#DejaVuSans-39"/>
       <use xlink:href="#DejaVuSans-35" transform="translate(63.623047 0)"/>
      </g>
     </g>
    </g>
    <g id="ytick_6">
     <g id="line2d_23">
      <path d="M 48.90125 40.181449 
L 848.35125 40.181449 
" clip-path="url(#p47b5ed9876)" style="fill: none; stroke: #b0b0b0; stroke-opacity: 0.3; stroke-width: 0.8; stroke-linecap: square"/>
     </g>
     <g id="line2d_24">
      <g>
       <use xlink:href="#m955d107896" x="48.90125" y="40.181449" style="stroke: #000000; stroke-width: 0.8"/>
      </g>
     </g>
     <g id="text_13">
      <!-- 100 -->
      <g transform="translate(22.81375 43.980668) scale(0.1 -0.1)">
       <use xlink:href="#DejaVuSans-31"/>
       <use xlink:href="#DejaVuSans-30" transform="translate(63.623047 0)"/>
       <use xlink:href="#DejaVuSans-30" transform="translate(127.246094 0)"/>
      </g>
     </g>
    </g>
    <g id="text_14">
     <!-- Fault Coverage (%) -->
     <g transform="translate(16.318125 260.964687) rotate(-90) scale(0.12 -0.12)">
      <defs>
       <path id="DejaVuSans-46" d="M 628 4666 
L 3309 4666 
L 3309 4134 
L 1259 4134 
L 1259 2759 
L 3109 2759 
L 3109 2228 
L 1259 2228 
L 1259 0 
L 628 0 
L 628 4666 
z
" transform="scale(0.015625)"/>
       <path id="DejaVuSans-61" d="M 2194 1759 
Q 1497 1759 1228 1600 
Q 959 1441 959 1056 
Q 959 750 1161 570 
Q 1363 391 1709 391 
Q 2188 391 2477 730 
Q 2766 1069 2766 1631 
L 2766 1759 
L 2194 1759 
z
M 3341 1997 
L 3341 0 
L 2766 0 
L 2766 531 
Q 2569 213 2275 61 
Q 1981 -91 1556 -91 
Q 1019 -91 701 211 
Q 384 513 384 1019 
Q 384 1609 779 1909 
Q 1175 2209 1959 2209 
L 2766 2209 
L 2766 2266 
Q 2766 2663 2505 2880 
Q 2244 3097 1772 3097 
Q 1472 3097 1187 3025 
Q 903 2953 641 2809 
L 641 3341 
Q 956 3463 1253 3523 
Q 1550 3584 1831 3584 
Q 2591 3584 2966 3190 
Q 3341 2797 3341 1997 
z
" transform="scale(0.015625)"/>
       <path id="DejaVuSans-6c" d="M 603 4863 
L 1178 4863 
L 1178 0 
L 603 0 
L 603 4863 
z
" transform="scale(0.015625)"/>
       <path id="DejaVuSans-74" d="M 1172 4494 
L 1172 3500 
L 2356 3500 
L 2356 3053 
L 1172 3053 
L 1172 1153 
Q 1172 725 1289 603 
Q 1406 481 1766 481 
L 2356 481 
L 2356 0 
L 1766 0 
Q 1100 0 847 248 
Q 594 497 594 1153 
L 594 3053 
L 172 3053 
L 172 3500 
L 594 3500 
L 594 4494 
L 1172 4494 
z
" transform="scale(0.015625)"/>
       <path id="DejaVuSans-43" d="M 4122 4306 
L 4122 3641 
Q 3803 3938 3442 4084 
Q 3081 4231 2675 4231 
Q 1875 4231 1450 3742 
Q 1025 3253 1025 2328 
Q 1025 1406 1450 917 
Q 1875 428 2675 428 
Q 3081 428 3442 575 
Q 3803 722 4122 1019 
L 4122 359 
Q 3791 134 3420 21 
Q 3050 -91 2638 -91 
Q 1578 -91 968 557 
Q 359 1206 359 2328 
Q 359 3453 968 4101 
Q 1578 4750 2638 4750 
Q 3056 4750 3426 4639 
Q 3797 4528 4122 4306 
z
" transform="scale(0.015625)"/>
       <path id="DejaVuSans-76" d="M 191 3500 
L 800 3500 
L 1894 563 
L 2988 3500 
L 3597 3500 
L 2284 0 
L 1503 0 
L 191 3500 
z
" transform="scale(0.015625)"/>
       <path id="DejaVuSans-67" d="M 2906 1791 
Q 2906 2416 2648 2759 
Q 2391 3103 1925 3103 
Q 1463 3103 1205 2759 
Q 947 2416 947 1791 
Q 947 1169 1205 825 
Q 1463 481 1925 481 
Q 2391 481 2648 825 
Q 2906 1169 2906 1791 
z
M 3481 434 
Q 3481 -459 3084 -895 
Q 2688 -1331 1869 -1331 
Q 1566 -1331 1297 -1286 
Q 1028 -1241 775 -1147 
L 775 -588 
Q 1028 -725 1275 -790 
Q 1522 -856 1778 -856 
Q 2344 -856 2625 -561 
Q 2906 -266 2906 331 
L 2906 616 
Q 2728 306 2450 153 
Q 2172 0 1784 0 
Q 1141 0 747 490 
Q 353 981 353 1791 
Q 353 2603 747 3093 
Q 1141 3584 1784 3584 
Q 2172 3584 2450 3431 
Q 2728 3278 2906 2969 
L 2906 3500 
L 3481 3500 
L 3481 434 
z
" transform="scale(0.015625)"/>
       <path id="DejaVuSans-28" d="M 1984 4856 
Q 1566 4138 1362 3434 
Q 1159 2731 1159 2009 
Q 1159 1288 1364 580 
Q 1569 -128 1984 -844 
L 1484 -844 
Q 1016 -109 783 600 
Q 550 1309 550 2009 
Q 550 2706 781 3412 
Q 1013 4119 1484 4856 
L 1984 4856 
z
" transform="scale(0.015625)"/>
       <path id="DejaVuSans-25" d="M 4653 2053 
Q 4381 2053 4226 1822 
Q 4072 1591 4072 1178 
Q 4072 772 4226 539 
Q 4381 306 4653 306 
Q 4919 306 5073 539 
Q 5228 772 5228 1178 
Q 5228 1588 5073 1820 
Q 4919 2053 4653 2053 
z
M 4653 2450 
Q 5147 2450 5437 2106 
Q 5728 1763 5728 1178 
Q 5728 594 5436 251 
Q 5144 -91 4653 -91 
Q 4153 -91 3862 251 
Q 3572 594 3572 1178 
Q 3572 1766 3864 2108 
Q 4156 2450 4653 2450 
z
M 1428 4353 
Q 1159 4353 1004 4120 
Q 850 3888 850 3481 
Q 850 3069 1003 2837 
Q 1156 2606 1428 2606 
Q 1700 2606 1854 2837 
Q 2009 3069 2009 3481 
Q 2009 3884 1853 4118 
Q 1697 4353 1428 4353 
z
M 4250 4750 
L 4750 4750 
L 1831 -91 
L 1331 -91 
L 4250 4750 
z
M 1428 4750 
Q 1922 4750 2215 4408 
Q 2509 4066 2509 3481 
Q 2509 2891 2217 2550 
Q 1925 2209 1428 2209 
Q 931 2209 642 2551 
Q 353 2894 353 3481 
Q 353 4063 643 4406 
Q 934 4750 1428 4750 
z
" transform="scale(0.015625)"/>
       <path id="DejaVuSans-29" d="M 513 4856 
L 1013 4856 
Q 1481 4119 1714 3412 
Q 1947 2706 1947 2009 
Q 1947 1309 1714 600 
Q 1481 -109 1013 -844 
L 513 -844 
Q 928 -128 1133 580 
Q 1338 1288 1338 2009 
Q 1338 2731 1133 3434 
Q 928 4138 513 4856 
z
" transform="scale(0.015625)"/>
      </defs>
      <use xlink:href="#DejaVuSans-46"/>
      <use xlink:href="#DejaVuSans-61" transform="translate(48.394531 0)"/>
      <use xlink:href="#DejaVuSans-75" transform="translate(109.673828 0)"/>
      <use xlink:href="#DejaVuSans-6c" transform="translate(173.052734 0)"/>
      <use xlink:href="#DejaVuSans-74" transform="translate(200.835938 0)"/>
      <use xlink:href="#DejaVuSans-20" transform="translate(240.044922 0)"/>
      <use xlink:href="#DejaVuSans-43" transform="translate(271.832031 0)"/>
      <use xlink:href="#DejaVuSans-6f" transform="translate(341.65625 0)"/>
      <use xlink:href="#DejaVuSans-76" transform="translate(402.837891 0)"/>
      <use xlink:href="#DejaVuSans-65" transform="translate(462.017578 0)"/>
      <use xlink:href="#DejaVuSans-72" transform="translate(523.541016 0)"/>
      <use xlink:href="#DejaVuSans-61" transform="translate(564.654297 0)"/>
      <use xlink:href="#DejaVuSans-67" transform="translate(625.933594 0)"/>
      <use xlink:href="#DejaVuSans-65" transform="translate(689.410156 0)"/>
      <use xlink:href="#DejaVuSans-20" transform="translate(750.933594 0)"/>
      <use xlink:href="#DejaVuSans-28" transform="translate(782.720703 0)"/>
      <use xlink:href="#DejaVuSans-25" transform="translate(821.734375 0)"/>
      <use xlink:href="#DejaVuSans-29" transform="translate(916.753906 0)"/>
     </g>
    </g>
   </g>
   <g id="line2d_25">
    <path d="M 85.239886 40.181449 
L 100.071983 40.181449 
L 114.904079 40.181449 
L 129.736176 203.617812 
L 144.568272 301.679631 
L 159.400369 367.054176 
L 174.232465 320.376751 
L 189.064562 285.335994 
L 203.896658 258.140183 
L 218.728755 236.305085 
L 233.560851 218.523209 
L 248.392948 203.617812 
L 263.225044 191.0659 
L 278.057141 180.213725 
L 292.889237 170.93054 
L 307.721333 162.824096 
L 322.55343 155.502147 
L 337.385526 149.095442 
L 352.217623 143.342482 
L 367.049719 138.243267 
L 381.881816 133.5363 
L 396.713912 129.352329 
L 411.546009 125.429856 
L 426.378105 121.899631 
L 441.210202 118.630903 
L 456.042298 115.623674 
L 470.874395 112.877943 
L 485.706491 110.262962 
L 500.538588 107.778729 
L 515.370684 105.555994 
L 530.202781 124.514612 
L 545.034877 142.296489 
L 559.866974 159.032373 
L 574.69907 155.502147 
L 589.531167 152.23342 
L 604.363263 149.095442 
L 619.195359 146.218962 
L 634.027456 143.342482 
L 648.859552 140.7275 
L 663.691649 138.243267 
L 678.523745 135.889783 
L 693.355842 133.5363 
L 708.187938 146.611209 
L 723.020035 144.126976 
L 737.852131 141.904242 
L 752.684228 139.681507 
L 767.516324 137.589522 
L 782.348421 135.497536 
L 797.180517 133.5363 
L 812.012614 131.705812 
" clip-path="url(#p47b5ed9876)" style="fill: none; stroke-dasharray: 7.4,3.2; stroke-dashoffset: 0; stroke: #ff0000; stroke-width: 2"/>
    <defs>
     <path id="m024c05def5" d="M 0 3 
C 0.795609 3 1.55874 2.683901 2.12132 2.12132 
C 2.683901 1.55874 3 0.795609 3 0 
C 3 -0.795609 2.683901 -1.55874 2.12132 -2.12132 
C 1.55874 -2.683901 0.795609 -3 0 -3 
C -0.795609 -3 -1.55874 -2.683901 -2.12132 -2.12132 
C -2.683901 -1.55874 -3 -0.795609 -3 0 
C -3 0.795609 -2.683901 1.55874 -2.12132 2.12132 
C -1.55874 2.683901 -0.795609 3 0 3 
z
" style="stroke: #ff0000"/>
    </defs>
    <g clip-path="url(#p47b5ed9876)">
     <use xlink:href="#m024c05def5" x="85.239886" y="40.181449" style="fill: #ff0000; stroke: #ff0000"/>
     <use xlink:href="#m024c05def5" x="100.071983" y="40.181449" style="fill: #ff0000; stroke: #ff0000"/>
     <use xlink:href="#m024c05def5" x="114.904079" y="40.181449" style="fill: #ff0000; stroke: #ff0000"/>
     <use xlink:href="#m024c05def5" x="129.736176" y="203.617812" style="fill: #ff0000; stroke: #ff0000"/>
     <use xlink:href="#m024c05def5" x="144.568272" y="301.679631" style="fill: #ff0000; stroke: #ff0000"/>
     <use xlink:href="#m024c05def5" x="159.400369" y="367.054176" style="fill: #ff0000; stroke: #ff0000"/>
     <use xlink:href="#m024c05def5" x="174.232465" y="320.376751" style="fill: #ff0000; stroke: #ff0000"/>
     <use xlink:href="#m024c05def5" x="189.064562" y="285.335994" style="fill: #ff0000; stroke: #ff0000"/>
     <use xlink:href="#m024c05def5" x="203.896658" y="258.140183" style="fill: #ff0000; stroke: #ff0000"/>
     <use xlink:href="#m024c05def5" x="218.728755" y="236.305085" style="fill: #ff0000; stroke: #ff0000"/>
     <use xlink:href="#m024c05def5" x="233.560851" y="218.523209" style="fill: #ff0000; stroke: #ff0000"/>
     <use xlink:href="#m024c05def5" x="248.392948" y="203.617812" style="fill: #ff0000; stroke: #ff0000"/>
     <use xlink:href="#m024c05def5" x="263.225044" y="191.0659" style="fill: #ff0000; stroke: #ff0000"/>
     <use xlink:href="#m024c05def5" x="278.057141" y="180.213725" style="fill: #ff0000; stroke: #ff0000"/>
     <use xlink:href="#m024c05def5" x="292.889237" y="170.93054" style="fill: #ff0000; stroke: #ff0000"/>
     <use xlink:href="#m024c05def5" x="307.721333" y="162.824096" style="fill: #ff0000; stroke: #ff0000"/>
     <use xlink:href="#m024c05def5" x="322.55343" y="155.502147" style="fill: #ff0000; stroke: #ff0000"/>
     <use xlink:href="#m024c05def5" x="337.385526" y="149.095442" style="fill: #ff0000; stroke: #ff0000"/>
     <use xlink:href="#m024c05def5" x="352.217623" y="143.342482" style="fill: #ff0000; stroke: #ff0000"/>
     <use xlink:href="#m024c05def5" x="367.049719" y="138.243267" style="fill: #ff0000; stroke: #ff0000"/>
     <use xlink:href="#m024c05def5" x="381.881816" y="133.5363" style="fill: #ff0000; stroke: #ff0000"/>
     <use xlink:href="#m024c05def5" x="396.713912" y="129.352329" style="fill: #ff0000; stroke: #ff0000"/>
     <use xlink:href="#m024c05def5" x="411.546009" y="125.429856" style="fill: #ff0000; stroke: #ff0000"/>
     <use xlink:href="#m024c05def5" x="426.378105" y="121.899631" style="fill: #ff0000; stroke: #ff0000"/>
     <use xlink:href="#m024c05def5" x="441.210202" y="118.630903" style="fill: #ff0000; stroke: #ff0000"/>
     <use xlink:href="#m024c05def5" x="456.042298" y="115.623674" style="fill: #ff0000; stroke: #ff0000"/>
     <use xlink:href="#m024c05def5" x="470.874395" y="112.877943" style="fill: #ff0000; stroke: #ff0000"/>
     <use xlink:href="#m024c05def5" x="485.706491" y="110.262962" style="fill: #ff0000; stroke: #ff0000"/>
     <use xlink:href="#m024c05def5" x="500.538588" y="107.778729" style="fill: #ff0000; stroke: #ff0000"/>
     <use xlink:href="#m024c05def5" x="515.370684" y="105.555994" style="fill: #ff0000; stroke: #ff0000"/>
     <use xlink:href="#m024c05def5" x="530.202781" y="124.514612" style="fill: #ff0000; stroke: #ff0000"/>
     <use xlink:href="#m024c05def5" x="545.034877" y="142.296489" style="fill: #ff0000; stroke: #ff0000"/>
     <use xlink:href="#m024c05def5" x="559.866974" y="159.032373" style="fill: #ff0000; stroke: #ff0000"/>
     <use xlink:href="#m024c05def5" x="574.69907" y="155.502147" style="fill: #ff0000; stroke: #ff0000"/>
     <use xlink:href="#m024c05def5" x="589.531167" y="152.23342" style="fill: #ff0000; stroke: #ff0000"/>
     <use xlink:href="#m024c05def5" x="604.363263" y="149.095442" style="fill: #ff0000; stroke: #ff0000"/>
     <use xlink:href="#m024c05def5" x="619.195359" y="146.218962" style="fill: #ff0000; stroke: #ff0000"/>
     <use xlink:href="#m024c05def5" x="634.027456" y="143.342482" style="fill: #ff0000; stroke: #ff0000"/>
     <use xlink:href="#m024c05def5" x="648.859552" y="140.7275" style="fill: #ff0000; stroke: #ff0000"/>
     <use xlink:href="#m024c05def5" x="663.691649" y="138.243267" style="fill: #ff0000; stroke: #ff0000"/>
     <use xlink:href="#m024c05def5" x="678.523745" y="135.889783" style="fill: #ff0000; stroke: #ff0000"/>
     <use xlink:href="#m024c05def5" x="693.355842" y="133.5363" style="fill: #ff0000; stroke: #ff0000"/>
     <use xlink:href="#m024c05def5" x="708.187938" y="146.611209" style="fill: #ff0000; stroke: #ff0000"/>
     <use xlink:href="#m024c05def5" x="723.020035" y="144.126976" style="fill: #ff0000; stroke: #ff0000"/>
     <use xlink:href="#m024c05def5" x="737.852131" y="141.904242" style="fill: #ff0000; stroke: #ff0000"/>
     <use xlink:href="#m024c05def5" x="752.684228" y="139.681507" style="fill: #ff0000; stroke: #ff0000"/>
     <use xlink:href="#m024c05def5" x="767.516324" y="137.589522" style="fill: #ff0000; stroke: #ff0000"/>
     <use xlink:href="#m024c05def5" x="782.348421" y="135.497536" style="fill: #ff0000; stroke: #ff0000"/>
     <use xlink:href="#m024c05def5" x="797.180517" y="133.5363" style="fill: #ff0000; stroke: #ff0000"/>
     <use xlink:href="#m024c05def5" x="812.012614" y="131.705812" style="fill: #ff0000; stroke: #ff0000"/>
    </g>
   </g>
   <g id="line2d_26">
    <path d="M 85.239886 40.181449 
L 100.071983 40.181449 
L 114.904079 40.181449 
L 129.736176 40.181449 
L 144.568272 40.181449 
L 159.400369 40.181449 
L 174.232465 40.181449 
L 189.064562 40.181449 
L 203.896658 40.181449 
L 218.728755 40.181449 
L 233.560851 99.672285 
L 248.392948 94.70382 
L 263.225044 90.519849 
L 278.057141 86.858874 
L 292.889237 83.720896 
L 307.721333 80.975165 
L 322.55343 78.621682 
L 337.385526 76.529696 
L 352.217623 74.56846 
L 367.049719 72.868722 
L 381.881816 71.299732 
L 396.713912 69.861492 
L 411.546009 97.057303 
L 426.378105 121.899631 
L 441.210202 144.780722 
L 456.042298 165.962074 
L 470.874395 185.443689 
L 485.706491 203.617812 
L 500.538588 220.484445 
L 515.370684 236.305085 
L 530.202781 251.079732 
L 545.034877 244.411529 
L 559.866974 238.266322 
L 574.69907 251.733478 
L 589.531167 245.588271 
L 604.363263 239.96606 
L 619.195359 234.474598 
L 634.027456 229.375383 
L 648.859552 224.537667 
L 663.691649 219.961449 
L 678.523745 231.467369 
L 693.355842 242.581042 
L 708.187938 237.874074 
L 723.020035 248.203252 
L 737.852131 258.140183 
L 752.684228 267.554118 
L 767.516324 276.706554 
L 782.348421 285.335994 
L 797.180517 293.703936 
L 812.012614 288.604722 
" clip-path="url(#p47b5ed9876)" style="fill: none; stroke-dasharray: 12.8,3.2,2,3.2; stroke-dashoffset: 0; stroke: #0000ff; stroke-width: 2"/>
    <defs>
     <path id="m8175992c8c" d="M 0 3 
C 0.795609 3 1.55874 2.683901 2.12132 2.12132 
C 2.683901 1.55874 3 0.795609 3 0 
C 3 -0.795609 2.683901 -1.55874 2.12132 -2.12132 
C 1.55874 -2.683901 0.795609 -3 0 -3 
C -0.795609 -3 -1.55874 -2.683901 -2.12132 -2.12132 
C -2.683901 -1.55874 -3 -0.795609 -3 0 
C -3 0.795609 -2.683901 1.55874 -2.12132 2.12132 
C -1.55874 2.683901 -0.795609 3 0 3 
z
" style="stroke: #0000ff"/>
    </defs>
    <g clip-path="url(#p47b5ed9876)">
     <use xlink:href="#m8175992c8c" x="85.239886" y="40.181449" style="fill: #0000ff; stroke: #0000ff"/>
     <use xlink:href="#m8175992c8c" x="100.071983" y="40.181449" style="fill: #0000ff; stroke: #0000ff"/>
     <use xlink:href="#m8175992c8c" x="114.904079" y="40.181449" style="fill: #0000ff; stroke: #0000ff"/>
     <use xlink:href="#m8175992c8c" x="129.736176" y="40.181449" style="fill: #0000ff; stroke: #0000ff"/>
     <use xlink:href="#m8175992c8c" x="144.568272" y="40.181449" style="fill: #0000ff; stroke: #0000ff"/>
     <use xlink:href="#m8175992c8c" x="159.400369" y="40.181449" style="fill: #0000ff; stroke: #0000ff"/>
     <use xlink:href="#m8175992c8c" x="174.232465" y="40.181449" style="fill: #0000ff; stroke: #0000ff"/>
     <use xlink:href="#m8175992c8c" x="189.064562" y="40.181449" style="fill: #0000ff; stroke: #0000ff"/>
     <use xlink:href="#m8175992c8c" x="203.896658" y="40.181449" style="fill: #0000ff; stroke: #0000ff"/>
     <use xlink:href="#m8175992c8c" x="218.728755" y="40.181449" style="fill: #0000ff; stroke: #0000ff"/>
     <use xlink:href="#m8175992c8c" x="233.560851" y="99.672285" style="fill: #0000ff; stroke: #0000ff"/>
     <use xlink:href="#m8175992c8c" x="248.392948" y="94.70382" style="fill: #0000ff; stroke: #0000ff"/>
     <use xlink:href="#m8175992c8c" x="263.225044" y="90.519849" style="fill: #0000ff; stroke: #0000ff"/>
     <use xlink:href="#m8175992c8c" x="278.057141" y="86.858874" style="fill: #0000ff; stroke: #0000ff"/>
     <use xlink:href="#m8175992c8c" x="292.889237" y="83.720896" style="fill: #0000ff; stroke: #0000ff"/>
     <use xlink:href="#m8175992c8c" x="307.721333" y="80.975165" style="fill: #0000ff; stroke: #0000ff"/>
     <use xlink:href="#m8175992c8c" x="322.55343" y="78.621682" style="fill: #0000ff; stroke: #0000ff"/>
     <use xlink:href="#m8175992c8c" x="337.385526" y="76.529696" style="fill: #0000ff; stroke: #0000ff"/>
     <use xlink:href="#m8175992c8c" x="352.217623" y="74.56846" style="fill: #0000ff; stroke: #0000ff"/>
     <use xlink:href="#m8175992c8c" x="367.049719" y="72.868722" style="fill: #0000ff; stroke: #0000ff"/>
     <use xlink:href="#m8175992c8c" x="381.881816" y="71.299732" style="fill: #0000ff; stroke: #0000ff"/>
     <use xlink:href="#m8175992c8c" x="396.713912" y="69.861492" style="fill: #0000ff; stroke: #0000ff"/>
     <use xlink:href="#m8175992c8c" x="411.546009" y="97.057303" style="fill: #0000ff; stroke: #0000ff"/>
     <use xlink:href="#m8175992c8c" x="426.378105" y="121.899631" style="fill: #0000ff; stroke: #0000ff"/>
     <use xlink:href="#m8175992c8c" x="441.210202" y="144.780722" style="fill: #0000ff; stroke: #0000ff"/>
     <use xlink:href="#m8175992c8c" x="456.042298" y="165.962074" style="fill: #0000ff; stroke: #0000ff"/>
     <use xlink:href="#m8175992c8c" x="470.874395" y="185.443689" style="fill: #0000ff; stroke: #0000ff"/>
     <use xlink:href="#m8175992c8c" x="485.706491" y="203.617812" style="fill: #0000ff; stroke: #0000ff"/>
     <use xlink:href="#m8175992c8c" x="500.538588" y="220.484445" style="fill: #0000ff; stroke: #0000ff"/>
     <use xlink:href="#m8175992c8c" x="515.370684" y="236.305085" style="fill: #0000ff; stroke: #0000ff"/>
     <use xlink:href="#m8175992c8c" x="530.202781" y="251.079732" style="fill: #0000ff; stroke: #0000ff"/>
     <use xlink:href="#m8175992c8c" x="545.034877" y="244.411529" style="fill: #0000ff; stroke: #0000ff"/>
     <use xlink:href="#m8175992c8c" x="559.866974" y="238.266322" style="fill: #0000ff; stroke: #0000ff"/>
     <use xlink:href="#m8175992c8c" x="574.69907" y="251.733478" style="fill: #0000ff; stroke: #0000ff"/>
     <use xlink:href="#m8175992c8c" x="589.531167" y="245.588271" style="fill: #0000ff; stroke: #0000ff"/>
     <use xlink:href="#m8175992c8c" x="604.363263" y="239.96606" style="fill: #0000ff; stroke: #0000ff"/>
     <use xlink:href="#m8175992c8c" x="619.195359" y="234.474598" style="fill: #0000ff; stroke: #0000ff"/>
     <use xlink:href="#m8175992c8c" x="634.027456" y="229.375383" style="fill: #0000ff; stroke: #0000ff"/>
     <use xlink:href="#m8175992c8c" x="648.859552" y="224.537667" style="fill: #0000ff; stroke: #0000ff"/>
     <use xlink:href="#m8175992c8c" x="663.691649" y="219.961449" style="fill: #0000ff; stroke: #0000ff"/>
     <use xlink:href="#m8175992c8c" x="678.523745" y="231.467369" style="fill: #0000ff; stroke: #0000ff"/>
     <use xlink:href="#m8175992c8c" x="693.355842" y="242.581042" style="fill: #0000ff; stroke: #0000ff"/>
     <use xlink:href="#m8175992c8c" x="708.187938" y="237.874074" style="fill: #0000ff; stroke: #0000ff"/>
     <use xlink:href="#m8175992c8c" x="723.020035" y="248.203252" style="fill: #0000ff; stroke: #0000ff"/>
     <use xlink:href="#m8175992c8c" x="737.852131" y="258.140183" style="fill: #0000ff; stroke: #0000ff"/>
     <use xlink:href="#m8175992c8c" x="752.684228" y="267.554118" style="fill: #0000ff; stroke: #0000ff"/>
     <use xlink:href="#m8175992c8c" x="767.516324" y="276.706554" style="fill: #0000ff; stroke: #0000ff"/>
     <use xlink:href="#m8175992c8c" x="782.348421" y="285.335994" style="fill: #0000ff; stroke: #0000ff"/>
     <use xlink:href="#m8175992c8c" x="797.180517" y="293.703936" style="fill: #0000ff; stroke: #0000ff"/>
     <use xlink:href="#m8175992c8c" x="812.012614" y="288.604722" style="fill: #0000ff; stroke: #0000ff"/>
    </g>
   </g>
   <g id="patch_3">
    <path d="M 48.90125 383.397812 
L 48.90125 23.837812 
" style="fill: none; stroke: #000000; stroke-width: 0.8; stroke-linejoin: miter; stroke-linecap: square"/>
   </g>
   <g id="patch_4">
    <path d="M 848.35125 383.397812 
L 848.35125 23.837812 
" style="fill: none; stroke: #000000; stroke-width: 0.8; stroke-linejoin: miter; stroke-linecap: square"/>
   </g>
   <g id="patch_5">
    <path d="M 48.90125 383.397812 
L 848.35125 383.397812 
" style="fill: none; stroke: #000000; stroke-width: 0.8; stroke-linejoin: miter; stroke-linecap: square"/>
   </g>
   <g id="patch_6">
    <path d="M 48.90125 23.837812 
L 848.35125 23.837812 
" style="fill: none; stroke: #000000; stroke-width: 0.8; stroke-linejoin: miter; stroke-linecap: square"/>
   </g>
   <g id="text_15">
    <!-- Statistical vs Sensitive -->
    <g transform="translate(358.587656 17.837812) scale(0.14 -0.14)">
     <defs>
      <path id="DejaVuSans-Bold-53" d="M 3834 4519 
L 3834 3531 
Q 3450 3703 3084 3790 
Q 2719 3878 2394 3878 
Q 1963 3878 1756 3759 
Q 1550 3641 1550 3391 
Q 1550 3203 1689 3098 
Q 1828 2994 2194 2919 
L 2706 2816 
Q 3484 2659 3812 2340 
Q 4141 2022 4141 1434 
Q 4141 663 3683 286 
Q 3225 -91 2284 -91 
Q 1841 -91 1394 -6 
Q 947 78 500 244 
L 500 1259 
Q 947 1022 1364 901 
Q 1781 781 2169 781 
Q 2563 781 2772 912 
Q 2981 1044 2981 1288 
Q 2981 1506 2839 1625 
Q 2697 1744 2272 1838 
L 1806 1941 
Q 1106 2091 782 2419 
Q 459 2747 459 3303 
Q 459 4000 909 4375 
Q 1359 4750 2203 4750 
Q 2588 4750 2994 4692 
Q 3400 4634 3834 4519 
z
" transform="scale(0.015625)"/>
      <path id="DejaVuSans-Bold-74" d="M 1759 4494 
L 1759 3500 
L 2913 3500 
L 2913 2700 
L 1759 2700 
L 1759 1216 
Q 1759 972 1856 886 
Q 1953 800 2241 800 
L 2816 800 
L 2816 0 
L 1856 0 
Q 1194 0 917 276 
Q 641 553 641 1216 
L 641 2700 
L 84 2700 
L 84 3500 
L 641 3500 
L 641 4494 
L 1759 4494 
z
" transform="scale(0.015625)"/>
      <path id="DejaVuSans-Bold-61" d="M 2106 1575 
Q 1756 1575 1579 1456 
Q 1403 1338 1403 1106 
Q 1403 894 1545 773 
Q 1688 653 1941 653 
Q 2256 653 2472 879 
Q 2688 1106 2688 1447 
L 2688 1575 
L 2106 1575 
z
M 3816 1997 
L 3816 0 
L 2688 0 
L 2688 519 
Q 2463 200 2181 54 
Q 1900 -91 1497 -91 
Q 953 -91 614 226 
Q 275 544 275 1050 
Q 275 1666 698 1953 
Q 1122 2241 2028 2241 
L 2688 2241 
L 2688 2328 
Q 2688 2594 2478 2717 
Q 2269 2841 1825 2841 
Q 1466 2841 1156 2769 
Q 847 2697 581 2553 
L 581 3406 
Q 941 3494 1303 3539 
Q 1666 3584 2028 3584 
Q 2975 3584 3395 3211 
Q 3816 2838 3816 1997 
z
" transform="scale(0.015625)"/>
      <path id="DejaVuSans-Bold-69" d="M 538 3500 
L 1656 3500 
L 1656 0 
L 538 0 
L 538 3500 
z
M 538 4863 
L 1656 4863 
L 1656 3950 
L 538 3950 
L 538 4863 
z
" transform="scale(0.015625)"/>
      <path id="DejaVuSans-Bold-73" d="M 3272 3391 
L 3272 2541 
Q 2913 2691 2578 2766 
Q 2244 2841 1947 2841 
Q 1628 2841 1473 2761 
Q 1319 2681 1319 2516 
Q 1319 2381 1436 2309 
Q 1553 2238 1856 2203 
L 2053 2175 
Q 2913 2066 3209 1816 
Q 3506 1566 3506 1031 
Q 3506 472 3093 190 
Q 2681 -91 1863 -91 
Q 1516 -91 1145 -36 
Q 775 19 384 128 
L 384 978 
Q 719 816 1070 734 
Q 1422 653 1784 653 
Q 2113 653 2278 743 
Q 2444 834 2444 1013 
Q 2444 1163 2330 1236 
Q 2216 1309 1875 1350 
L 1678 1375 
Q 931 1469 631 1722 
Q 331 1975 331 2491 
Q 331 3047 712 3315 
Q 1094 3584 1881 3584 
Q 2191 3584 2531 3537 
Q 2872 3491 3272 3391 
z
" transform="scale(0.015625)"/>
      <path id="DejaVuSans-Bold-63" d="M 3366 3391 
L 3366 2478 
Q 3138 2634 2908 2709 
Q 2678 2784 2431 2784 
Q 1963 2784 1702 2511 
Q 1441 2238 1441 1747 
Q 1441 1256 1702 982 
Q 1963 709 2431 709 
Q 2694 709 2930 787 
Q 3166 866 3366 1019 
L 3366 103 
Q 3103 6 2833 -42 
Q 2563 -91 2291 -91 
Q 1344 -91 809 395 
Q 275 881 275 1747 
Q 275 2613 809 3098 
Q 1344 3584 2291 3584 
Q 2566 3584 2833 3536 
Q 3100 3488 3366 3391 
z
" transform="scale(0.015625)"/>
      <path id="DejaVuSans-Bold-6c" d="M 538 4863 
L 1656 4863 
L 1656 0 
L 538 0 
L 538 4863 
z
" transform="scale(0.015625)"/>
      <path id="DejaVuSans-Bold-20" transform="scale(0.015625)"/>
      <path id="DejaVuSans-Bold-76" d="M 97 3500 
L 1216 3500 
L 2088 1081 
L 2956 3500 
L 4078 3500 
L 2700 0 
L 1472 0 
L 97 3500 
z
" transform="scale(0.015625)"/>
      <path id="DejaVuSans-Bold-65" d="M 4031 1759 
L 4031 1441 
L 1416 1441 
Q 1456 1047 1700 850 
Q 1944 653 2381 653 
Q 2734 653 3104 758 
Q 3475 863 3866 1075 
L 3866 213 
Q 3469 63 3072 -14 
Q 2675 -91 2278 -91 
Q 1328 -91 801 392 
Q 275 875 275 1747 
Q 275 2603 792 3093 
Q 1309 3584 2216 3584 
Q 3041 3584 3536 3087 
Q 4031 2591 4031 1759 
z
M 2881 2131 
Q 2881 2450 2695 2645 
Q 2509 2841 2209 2841 
Q 1884 2841 1681 2658 
Q 1478 2475 1428 2131 
L 2881 2131 
z
" transform="scale(0.015625)"/>
      <path id="DejaVuSans-Bold-6e" d="M 4056 2131 
L 4056 0 
L 2931 0 
L 2931 347 
L 2931 1631 
Q 2931 2084 2911 2256 
Q 2891 2428 2841 2509 
Q 2775 2619 2662 2680 
Q 2550 2741 2406 2741 
Q 2056 2741 1856 2470 
Q 1656 2200 1656 1722 
L 1656 0 
L 538 0 
L 538 3500 
L 1656 3500 
L 1656 2988 
Q 1909 3294 2193 3439 
Q 2478 3584 2822 3584 
Q 3428 3584 3742 3212 
Q 4056 2841 4056 2131 
z
" transform="scale(0.015625)"/>
     </defs>
     <use xlink:href="#DejaVuSans-Bold-53"/>
     <use xlink:href="#DejaVuSans-Bold-74" transform="translate(72.021484 0)"/>
     <use xlink:href="#DejaVuSans-Bold-61" transform="translate(119.824219 0)"/>
     <use xlink:href="#DejaVuSans-Bold-74" transform="translate(187.304688 0)"/>
     <use xlink:href="#DejaVuSans-Bold-69" transform="translate(235.107422 0)"/>
     <use xlink:href="#DejaVuSans-Bold-73" transform="translate(269.384766 0)"/>
     <use xlink:href="#DejaVuSans-Bold-74" transform="translate(328.90625 0)"/>
     <use xlink:href="#DejaVuSans-Bold-69" transform="translate(376.708984 0)"/>
     <use xlink:href="#DejaVuSans-Bold-63" transform="translate(410.986328 0)"/>
     <use xlink:href="#DejaVuSans-Bold-61" transform="translate(470.263672 0)"/>
     <use xlink:href="#DejaVuSans-Bold-6c" transform="translate(537.744141 0)"/>
     <use xlink:href="#DejaVuSans-Bold-20" transform="translate(572.021484 0)"/>
     <use xlink:href="#DejaVuSans-Bold-76" transform="translate(606.835938 0)"/>
     <use xlink:href="#DejaVuSans-Bold-73" transform="translate(672.021484 0)"/>
     <use xlink:href="#DejaVuSans-Bold-20" transform="translate(731.542969 0)"/>
     <use xlink:href="#DejaVuSans-Bold-53" transform="translate(766.357422 0)"/>
     <use xlink:href="#DejaVuSans-Bold-65" transform="translate(838.378906 0)"/>
     <use xlink:href="#DejaVuSans-Bold-6e" transform="translate(906.201172 0)"/>
     <use xlink:href="#DejaVuSans-Bold-73" transform="translate(977.392578 0)"/>
     <use xlink:href="#DejaVuSans-Bold-69" transform="translate(1036.914062 0)"/>
     <use xlink:href="#DejaVuSans-Bold-74" transform="translate(1071.191406 0)"/>
     <use xlink:href="#DejaVuSans-Bold-69" transform="translate(1118.994141 0)"/>
     <use xlink:href="#DejaVuSans-Bold-76" transform="translate(1153.271484 0)"/>
     <use xlink:href="#DejaVuSans-Bold-65" transform="translate(1218.457031 0)"/>
    </g>
   </g>
   <g id="PathCollection_1">
    <defs>
     <path id="m0a325bafd4" d="M 0 7.071068 
C 1.875269 7.071068 3.673985 6.326016 5 5 
C 6.326016 3.673985 7.071068 1.875269 7.071068 0 
C 7.071068 -1.875269 6.326016 -3.673985 5 -5 
C 3.673985 -6.326016 1.875269 -7.071068 0 -7.071068 
C -1.875269 -7.071068 -3.673985 -6.326016 -5 -5 
C -6.326016 -3.673985 -7.071068 -1.875269 -7.071068 0 
C -7.071068 1.875269 -6.326016 3.673985 -5 5 
C -3.673985 6.326016 -1.875269 7.071068 0 7.071068 
z
" style="stroke: #006400; stroke-width: 2"/>
    </defs>
    <g clip-path="url(#p47b5ed9876)">
     <use xlink:href="#m0a325bafd4" x="114.904079" y="40.181449" style="fill: #008000; stroke: #006400; stroke-width: 2"/>
    </g>
   </g>
   <g id="PathCollection_2">
    <defs>
     <path id="m719a2268d2" d="M -7.071068 7.071068 
L 7.071068 7.071068 
L 7.071068 -7.071068 
L -7.071068 -7.071068 
z
" style="stroke: #ff8c00; stroke-width: 2"/>
    </defs>
    <g clip-path="url(#p47b5ed9876)">
     <use xlink:href="#m719a2268d2" x="218.728755" y="40.181449" style="fill: #ffa500; stroke: #ff8c00; stroke-width: 2"/>
    </g>
   </g>
   <g id="legend_1">
    <g id="patch_7">
     <path d="M 585.196563 91.662812 
L 841.35125 91.662812 
Q 843.35125 91.662812 843.35125 89.662812 
L 843.35125 30.837812 
Q 843.35125 28.837812 841.35125 28.837812 
L 585.196563 28.837812 
Q 583.196563 28.837812 583.196563 30.837812 
L 583.196563 89.662812 
Q 583.196563 91.662812 585.196563 91.662812 
z
" style="fill: #ffffff; opacity: 0.8; stroke: #cccccc; stroke-linejoin: miter"/>
    </g>
    <g id="line2d_27">
     <path d="M 587.196563 36.93625 
L 597.196563 36.93625 
L 607.196563 36.93625 
" style="fill: none; stroke-dasharray: 7.4,3.2; stroke-dashoffset: 0; stroke: #ff0000; stroke-width: 2"/>
     <g>
      <use xlink:href="#m024c05def5" x="597.196563" y="36.93625" style="fill: #ff0000; stroke: #ff0000"/>
     </g>
    </g>
    <g id="text_16">
     <!-- coverage_statistics (turning point: node=3) -->
     <g transform="translate(615.196563 40.43625) scale(0.1 -0.1)">
      <defs>
       <path id="DejaVuSans-63" d="M 3122 3366 
L 3122 2828 
Q 2878 2963 2633 3030 
Q 2388 3097 2138 3097 
Q 1578 3097 1268 2742 
Q 959 2388 959 1747 
Q 959 1106 1268 751 
Q 1578 397 2138 397 
Q 2388 397 2633 464 
Q 2878 531 3122 666 
L 3122 134 
Q 2881 22 2623 -34 
Q 2366 -91 2075 -91 
Q 1284 -91 818 406 
Q 353 903 353 1747 
Q 353 2603 823 3093 
Q 1294 3584 2113 3584 
Q 2378 3584 2631 3529 
Q 2884 3475 3122 3366 
z
" transform="scale(0.015625)"/>
       <path id="DejaVuSans-5f" d="M 3263 -1063 
L 3263 -1509 
L -63 -1509 
L -63 -1063 
L 3263 -1063 
z
" transform="scale(0.015625)"/>
       <path id="DejaVuSans-69" d="M 603 3500 
L 1178 3500 
L 1178 0 
L 603 0 
L 603 3500 
z
M 603 4863 
L 1178 4863 
L 1178 4134 
L 603 4134 
L 603 4863 
z
" transform="scale(0.015625)"/>
       <path id="DejaVuSans-6e" d="M 3513 2113 
L 3513 0 
L 2938 0 
L 2938 2094 
Q 2938 2591 2744 2837 
Q 2550 3084 2163 3084 
Q 1697 3084 1428 2787 
Q 1159 2491 1159 1978 
L 1159 0 
L 581 0 
L 581 3500 
L 1159 3500 
L 1159 2956 
Q 1366 3272 1645 3428 
Q 1925 3584 2291 3584 
Q 2894 3584 3203 3211 
Q 3513 2838 3513 2113 
z
" transform="scale(0.015625)"/>
       <path id="DejaVuSans-70" d="M 1159 525 
L 1159 -1331 
L 581 -1331 
L 581 3500 
L 1159 3500 
L 1159 2969 
Q 1341 3281 1617 3432 
Q 1894 3584 2278 3584 
Q 2916 3584 3314 3078 
Q 3713 2572 3713 1747 
Q 3713 922 3314 415 
Q 2916 -91 2278 -91 
Q 1894 -91 1617 61 
Q 1341 213 1159 525 
z
M 3116 1747 
Q 3116 2381 2855 2742 
Q 2594 3103 2138 3103 
Q 1681 3103 1420 2742 
Q 1159 2381 1159 1747 
Q 1159 1113 1420 752 
Q 1681 391 2138 391 
Q 2594 391 2855 752 
Q 3116 1113 3116 1747 
z
" transform="scale(0.015625)"/>
       <path id="DejaVuSans-3a" d="M 750 794 
L 1409 794 
L 1409 0 
L 750 0 
L 750 794 
z
M 750 3309 
L 1409 3309 
L 1409 2516 
L 750 2516 
L 750 3309 
z
" transform="scale(0.015625)"/>
       <path id="DejaVuSans-3d" d="M 678 2906 
L 4684 2906 
L 4684 2381 
L 678 2381 
L 678 2906 
z
M 678 1631 
L 4684 1631 
L 4684 1100 
L 678 1100 
L 678 1631 
z
" transform="scale(0.015625)"/>
      </defs>
      <use xlink:href="#DejaVuSans-63"/>
      <use xlink:href="#DejaVuSans-6f" transform="translate(54.980469 0)"/>
      <use xlink:href="#DejaVuSans-76" transform="translate(116.162109 0)"/>
      <use xlink:href="#DejaVuSans-65" transform="translate(175.341797 0)"/>
      <use xlink:href="#DejaVuSans-72" transform="translate(236.865234 0)"/>
      <use xlink:href="#DejaVuSans-61" transform="translate(277.978516 0)"/>
      <use xlink:href="#DejaVuSans-67" transform="translate(339.257812 0)"/>
      <use xlink:href="#DejaVuSans-65" transform="translate(402.734375 0)"/>
      <use xlink:href="#DejaVuSans-5f" transform="translate(464.257812 0)"/>
      <use xlink:href="#DejaVuSans-73" transform="translate(514.257812 0)"/>
      <use xlink:href="#DejaVuSans-74" transform="translate(566.357422 0)"/>
      <use xlink:href="#DejaVuSans-61" transform="translate(605.566406 0)"/>
      <use xlink:href="#DejaVuSans-74" transform="translate(666.845703 0)"/>
      <use xlink:href="#DejaVuSans-69" transform="translate(706.054688 0)"/>
      <use xlink:href="#DejaVuSans-73" transform="translate(733.837891 0)"/>
      <use xlink:href="#DejaVuSans-74" transform="translate(785.9375 0)"/>
      <use xlink:href="#DejaVuSans-69" transform="translate(825.146484 0)"/>
      <use xlink:href="#DejaVuSans-63" transform="translate(852.929688 0)"/>
      <use xlink:href="#DejaVuSans-73" transform="translate(907.910156 0)"/>
      <use xlink:href="#DejaVuSans-20" transform="translate(960.009766 0)"/>
      <use xlink:href="#DejaVuSans-28" transform="translate(991.796875 0)"/>
      <use xlink:href="#DejaVuSans-74" transform="translate(1030.810547 0)"/>
      <use xlink:href="#DejaVuSans-75" transform="translate(1070.019531 0)"/>
      <use xlink:href="#DejaVuSans-72" transform="translate(1133.398438 0)"/>
      <use xlink:href="#DejaVuSans-6e" transform="translate(1172.761719 0)"/>
      <use xlink:href="#DejaVuSans-69" transform="translate(1236.140625 0)"/>
      <use xlink:href="#DejaVuSans-6e" transform="translate(1263.923828 0)"/>
      <use xlink:href="#DejaVuSans-67" transform="translate(1327.302734 0)"/>
      <use xlink:href="#DejaVuSans-20" transform="translate(1390.779297 0)"/>
      <use xlink:href="#DejaVuSans-70" transform="translate(1422.566406 0)"/>
      <use xlink:href="#DejaVuSans-6f" transform="translate(1486.042969 0)"/>
      <use xlink:href="#DejaVuSans-69" transform="translate(1547.224609 0)"/>
      <use xlink:href="#DejaVuSans-6e" transform="translate(1575.007812 0)"/>
      <use xlink:href="#DejaVuSans-74" transform="translate(1638.386719 0)"/>
      <use xlink:href="#DejaVuSans-3a" transform="translate(1677.595703 0)"/>
      <use xlink:href="#DejaVuSans-20" transform="translate(1711.287109 0)"/>
      <use xlink:href="#DejaVuSans-6e" transform="translate(1743.074219 0)"/>
      <use xlink:href="#DejaVuSans-6f" transform="translate(1806.453125 0)"/>
      <use xlink:href="#DejaVuSans-64" transform="translate(1867.634766 0)"/>
      <use xlink:href="#DejaVuSans-65" transform="translate(1931.111328 0)"/>
      <use xlink:href="#DejaVuSans-3d" transform="translate(1992.634766 0)"/>
      <use xlink:href="#DejaVuSans-33" transform="translate(2076.423828 0)"/>
      <use xlink:href="#DejaVuSans-29" transform="translate(2140.046875 0)"/>
     </g>
    </g>
    <g id="PathCollection_3">
     <g>
      <use xlink:href="#m0a325bafd4" x="597.196563" y="52.7675" style="fill: #008000; stroke: #006400; stroke-width: 2"/>
     </g>
    </g>
    <g id="text_17">
     <!-- coverage_statistics Optimal Point (node=3) -->
     <g transform="translate(615.196563 55.3925) scale(0.1 -0.1)">
      <defs>
       <path id="DejaVuSans-4f" d="M 2522 4238 
Q 1834 4238 1429 3725 
Q 1025 3213 1025 2328 
Q 1025 1447 1429 934 
Q 1834 422 2522 422 
Q 3209 422 3611 934 
Q 4013 1447 4013 2328 
Q 4013 3213 3611 3725 
Q 3209 4238 2522 4238 
z
M 2522 4750 
Q 3503 4750 4090 4092 
Q 4678 3434 4678 2328 
Q 4678 1225 4090 567 
Q 3503 -91 2522 -91 
Q 1538 -91 948 565 
Q 359 1222 359 2328 
Q 359 3434 948 4092 
Q 1538 4750 2522 4750 
z
" transform="scale(0.015625)"/>
       <path id="DejaVuSans-50" d="M 1259 4147 
L 1259 2394 
L 2053 2394 
Q 2494 2394 2734 2622 
Q 2975 2850 2975 3272 
Q 2975 3691 2734 3919 
Q 2494 4147 2053 4147 
L 1259 4147 
z
M 628 4666 
L 2053 4666 
Q 2838 4666 3239 4311 
Q 3641 3956 3641 3272 
Q 3641 2581 3239 2228 
Q 2838 1875 2053 1875 
L 1259 1875 
L 1259 0 
L 628 0 
L 628 4666 
z
" transform="scale(0.015625)"/>
      </defs>
      <use xlink:href="#DejaVuSans-63"/>
      <use xlink:href="#DejaVuSans-6f" transform="translate(54.980469 0)"/>
      <use xlink:href="#DejaVuSans-76" transform="translate(116.162109 0)"/>
      <use xlink:href="#DejaVuSans-65" transform="translate(175.341797 0)"/>
      <use xlink:href="#DejaVuSans-72" transform="translate(236.865234 0)"/>
      <use xlink:href="#DejaVuSans-61" transform="translate(277.978516 0)"/>
      <use xlink:href="#DejaVuSans-67" transform="translate(339.257812 0)"/>
      <use xlink:href="#DejaVuSans-65" transform="translate(402.734375 0)"/>
      <use xlink:href="#DejaVuSans-5f" transform="translate(464.257812 0)"/>
      <use xlink:href="#DejaVuSans-73" transform="translate(514.257812 0)"/>
      <use xlink:href="#DejaVuSans-74" transform="translate(566.357422 0)"/>
      <use xlink:href="#DejaVuSans-61" transform="translate(605.566406 0)"/>
      <use xlink:href="#DejaVuSans-74" transform="translate(666.845703 0)"/>
      <use xlink:href="#DejaVuSans-69" transform="translate(706.054688 0)"/>
      <use xlink:href="#DejaVuSans-73" transform="translate(733.837891 0)"/>
      <use xlink:href="#DejaVuSans-74" transform="translate(785.9375 0)"/>
      <use xlink:href="#DejaVuSans-69" transform="translate(825.146484 0)"/>
      <use xlink:href="#DejaVuSans-63" transform="translate(852.929688 0)"/>
      <use xlink:href="#DejaVuSans-73" transform="translate(907.910156 0)"/>
      <use xlink:href="#DejaVuSans-20" transform="translate(960.009766 0)"/>
      <use xlink:href="#DejaVuSans-4f" transform="translate(991.796875 0)"/>
      <use xlink:href="#DejaVuSans-70" transform="translate(1070.507812 0)"/>
      <use xlink:href="#DejaVuSans-74" transform="translate(1133.984375 0)"/>
      <use xlink:href="#DejaVuSans-69" transform="translate(1173.193359 0)"/>
      <use xlink:href="#DejaVuSans-6d" transform="translate(1200.976562 0)"/>
      <use xlink:href="#DejaVuSans-61" transform="translate(1298.388672 0)"/>
      <use xlink:href="#DejaVuSans-6c" transform="translate(1359.667969 0)"/>
      <use xlink:href="#DejaVuSans-20" transform="translate(1387.451172 0)"/>
      <use xlink:href="#DejaVuSans-50" transform="translate(1419.238281 0)"/>
      <use xlink:href="#DejaVuSans-6f" transform="translate(1475.916016 0)"/>
      <use xlink:href="#DejaVuSans-69" transform="translate(1537.097656 0)"/>
      <use xlink:href="#DejaVuSans-6e" transform="translate(1564.880859 0)"/>
      <use xlink:href="#DejaVuSans-74" transform="translate(1628.259766 0)"/>
      <use xlink:href="#DejaVuSans-20" transform="translate(1667.46875 0)"/>
      <use xlink:href="#DejaVuSans-28" transform="translate(1699.255859 0)"/>
      <use xlink:href="#DejaVuSans-6e" transform="translate(1738.269531 0)"/>
      <use xlink:href="#DejaVuSans-6f" transform="translate(1801.648438 0)"/>
      <use xlink:href="#DejaVuSans-64" transform="translate(1862.830078 0)"/>
      <use xlink:href="#DejaVuSans-65" transform="translate(1926.306641 0)"/>
      <use xlink:href="#DejaVuSans-3d" transform="translate(1987.830078 0)"/>
      <use xlink:href="#DejaVuSans-33" transform="translate(2071.619141 0)"/>
      <use xlink:href="#DejaVuSans-29" transform="translate(2135.242188 0)"/>
     </g>
    </g>
    <g id="line2d_28">
     <path d="M 587.196563 66.84875 
L 597.196563 66.84875 
L 607.196563 66.84875 
" style="fill: none; stroke-dasharray: 12.8,3.2,2,3.2; stroke-dashoffset: 0; stroke: #0000ff; stroke-width: 2"/>
     <g>
      <use xlink:href="#m8175992c8c" x="597.196563" y="66.84875" style="fill: #0000ff; stroke: #0000ff"/>
     </g>
    </g>
    <g id="text_18">
     <!-- coverage_sensitive (turning point: node=10) -->
     <g transform="translate(615.196563 70.34875) scale(0.1 -0.1)">
      <use xlink:href="#DejaVuSans-63"/>
      <use xlink:href="#DejaVuSans-6f" transform="translate(54.980469 0)"/>
      <use xlink:href="#DejaVuSans-76" transform="translate(116.162109 0)"/>
      <use xlink:href="#DejaVuSans-65" transform="translate(175.341797 0)"/>
      <use xlink:href="#DejaVuSans-72" transform="translate(236.865234 0)"/>
      <use xlink:href="#DejaVuSans-61" transform="translate(277.978516 0)"/>
      <use xlink:href="#DejaVuSans-67" transform="translate(339.257812 0)"/>
      <use xlink:href="#DejaVuSans-65" transform="translate(402.734375 0)"/>
      <use xlink:href="#DejaVuSans-5f" transform="translate(464.257812 0)"/>
      <use xlink:href="#DejaVuSans-73" transform="translate(514.257812 0)"/>
      <use xlink:href="#DejaVuSans-65" transform="translate(566.357422 0)"/>
      <use xlink:href="#DejaVuSans-6e" transform="translate(627.880859 0)"/>
      <use xlink:href="#DejaVuSans-73" transform="translate(691.259766 0)"/>
      <use xlink:href="#DejaVuSans-69" transform="translate(743.359375 0)"/>
      <use xlink:href="#DejaVuSans-74" transform="translate(771.142578 0)"/>
      <use xlink:href="#DejaVuSans-69" transform="translate(810.351562 0)"/>
      <use xlink:href="#DejaVuSans-76" transform="translate(838.134766 0)"/>
      <use xlink:href="#DejaVuSans-65" transform="translate(897.314453 0)"/>
      <use xlink:href="#DejaVuSans-20" transform="translate(958.837891 0)"/>
      <use xlink:href="#DejaVuSans-28" transform="translate(990.625 0)"/>
      <use xlink:href="#DejaVuSans-74" transform="translate(1029.638672 0)"/>
      <use xlink:href="#DejaVuSans-75" transform="translate(1068.847656 0)"/>
      <use xlink:href="#DejaVuSans-72" transform="translate(1132.226562 0)"/>
      <use xlink:href="#DejaVuSans-6e" transform="translate(1171.589844 0)"/>
      <use xlink:href="#DejaVuSans-69" transform="translate(1234.96875 0)"/>
      <use xlink:href="#DejaVuSans-6e" transform="translate(1262.751953 0)"/>
      <use xlink:href="#DejaVuSans-67" transform="translate(1326.130859 0)"/>
      <use xlink:href="#DejaVuSans-20" transform="translate(1389.607422 0)"/>
      <use xlink:href="#DejaVuSans-70" transform="translate(1421.394531 0)"/>
      <use xlink:href="#DejaVuSans-6f" transform="translate(1484.871094 0)"/>
      <use xlink:href="#DejaVuSans-69" transform="translate(1546.052734 0)"/>
      <use xlink:href="#DejaVuSans-6e" transform="translate(1573.835938 0)"/>
      <use xlink:href="#DejaVuSans-74" transform="translate(1637.214844 0)"/>
      <use xlink:href="#DejaVuSans-3a" transform="translate(1676.423828 0)"/>
      <use xlink:href="#DejaVuSans-20" transform="translate(1710.115234 0)"/>
      <use xlink:href="#DejaVuSans-6e" transform="translate(1741.902344 0)"/>
      <use xlink:href="#DejaVuSans-6f" transform="translate(1805.28125 0)"/>
      <use xlink:href="#DejaVuSans-64" transform="translate(1866.462891 0)"/>
      <use xlink:href="#DejaVuSans-65" transform="translate(1929.939453 0)"/>
      <use xlink:href="#DejaVuSans-3d" transform="translate(1991.462891 0)"/>
      <use xlink:href="#DejaVuSans-31" transform="translate(2075.251953 0)"/>
      <use xlink:href="#DejaVuSans-30" transform="translate(2138.875 0)"/>
      <use xlink:href="#DejaVuSans-29" transform="translate(2202.498047 0)"/>
     </g>
    </g>
    <g id="PathCollection_4">
     <g>
      <use xlink:href="#m719a2268d2" x="597.196563" y="82.68" style="fill: #ffa500; stroke: #ff8c00; stroke-width: 2"/>
     </g>
    </g>
    <g id="text_19">
     <!-- coverage_sensitive Optimal Point (node=10) -->
     <g transform="translate(615.196563 85.305) scale(0.1 -0.1)">
      <use xlink:href="#DejaVuSans-63"/>
      <use xlink:href="#DejaVuSans-6f" transform="translate(54.980469 0)"/>
      <use xlink:href="#DejaVuSans-76" transform="translate(116.162109 0)"/>
      <use xlink:href="#DejaVuSans-65" transform="translate(175.341797 0)"/>
      <use xlink:href="#DejaVuSans-72" transform="translate(236.865234 0)"/>
      <use xlink:href="#DejaVuSans-61" transform="translate(277.978516 0)"/>
      <use xlink:href="#DejaVuSans-67" transform="translate(339.257812 0)"/>
      <use xlink:href="#DejaVuSans-65" transform="translate(402.734375 0)"/>
      <use xlink:href="#DejaVuSans-5f" transform="translate(464.257812 0)"/>
      <use xlink:href="#DejaVuSans-73" transform="translate(514.257812 0)"/>
      <use xlink:href="#DejaVuSans-65" transform="translate(566.357422 0)"/>
      <use xlink:href="#DejaVuSans-6e" transform="translate(627.880859 0)"/>
      <use xlink:href="#DejaVuSans-73" transform="translate(691.259766 0)"/>
      <use xlink:href="#DejaVuSans-69" transform="translate(743.359375 0)"/>
      <use xlink:href="#DejaVuSans-74" transform="translate(771.142578 0)"/>
      <use xlink:href="#DejaVuSans-69" transform="translate(810.351562 0)"/>
      <use xlink:href="#DejaVuSans-76" transform="translate(838.134766 0)"/>
      <use xlink:href="#DejaVuSans-65" transform="translate(897.314453 0)"/>
      <use xlink:href="#DejaVuSans-20" transform="translate(958.837891 0)"/>
      <use xlink:href="#DejaVuSans-4f" transform="translate(990.625 0)"/>
      <use xlink:href="#DejaVuSans-70" transform="translate(1069.335938 0)"/>
      <use xlink:href="#DejaVuSans-74" transform="translate(1132.8125 0)"/>
      <use xlink:href="#DejaVuSans-69" transform="translate(1172.021484 0)"/>
      <use xlink:href="#DejaVuSans-6d" transform="translate(1199.804688 0)"/>
      <use xlink:href="#DejaVuSans-61" transform="translate(1297.216797 0)"/>
      <use xlink:href="#DejaVuSans-6c" transform="translate(1358.496094 0)"/>
      <use xlink:href="#DejaVuSans-20" transform="translate(1386.279297 0)"/>
      <use xlink:href="#DejaVuSans-50" transform="translate(1418.066406 0)"/>
      <use xlink:href="#DejaVuSans-6f" transform="translate(1474.744141 0)"/>
      <use xlink:href="#DejaVuSans-69" transform="translate(1535.925781 0)"/>
      <use xlink:href="#DejaVuSans-6e" transform="translate(1563.708984 0)"/>
      <use xlink:href="#DejaVuSans-74" transform="translate(1627.087891 0)"/>
      <use xlink:href="#DejaVuSans-20" transform="translate(1666.296875 0)"/>
      <use xlink:href="#DejaVuSans-28" transform="translate(1698.083984 0)"/>
      <use xlink:href="#DejaVuSans-6e" transform="translate(1737.097656 0)"/>
      <use xlink:href="#DejaVuSans-6f" transform="translate(1800.476562 0)"/>
      <use xlink:href="#DejaVuSans-64" transform="translate(1861.658203 0)"/>
      <use xlink:href="#DejaVuSans-65" transform="translate(1925.134766 0)"/>
      <use xlink:href="#DejaVuSans-3d" transform="translate(1986.658203 0)"/>
      <use xlink:href="#DejaVuSans-31" transform="translate(2070.447266 0)"/>
      <use xlink:href="#DejaVuSans-30" transform="translate(2134.070312 0)"/>
      <use xlink:href="#DejaVuSans-29" transform="translate(2197.693359 0)"/>
     </g>
    </g>
   </g>
  </g>
 </g>
 <defs>
  <clipPath id="p47b5ed9876">
   <rect x="48.90125" y="23.837812" width="799.45" height="359.56"/>
  </clipPath>
 </defs>
</svg>
