<?xml version="1.0" encoding="utf-8" standalone="no"?>
<!DOCTYPE svg PUBLIC "-//W3C//DTD SVG 1.1//EN"
  "http://www.w3.org/Graphics/SVG/1.1/DTD/svg11.dtd">
<svg xmlns:xlink="http://www.w3.org/1999/xlink" width="370.920605pt" height="354.105188pt" viewBox="0 0 370.920605 354.105188" xmlns="http://www.w3.org/2000/svg" version="1.1">
 <metadata>
  <rdf:RDF xmlns:dc="http://purl.org/dc/elements/1.1/" xmlns:cc="http://creativecommons.org/ns#" xmlns:rdf="http://www.w3.org/1999/02/22-rdf-syntax-ns#">
   <cc:Work>
    <dc:type rdf:resource="http://purl.org/dc/dcmitype/StillImage"/>
    <dc:date>2025-11-10T13:29:40.357265</dc:date>
    <dc:format>image/svg+xml</dc:format>
    <dc:creator>
     <cc:Agent>
      <dc:title>Matplotlib v3.10.3, https://matplotlib.org/</dc:title>
     </cc:Agent>
    </dc:creator>
   </cc:Work>
  </rdf:RDF>
 </metadata>
 <defs>
  <style type="text/css">*{stroke-linejoin: round; stroke-linecap: butt}</style>
 </defs>
 <g id="figure_1">
  <g id="patch_1">
   <path d="M 0 354.105188 
L 370.920605 354.105188 
L 370.920605 0 
L 0 0 
L 0 354.105188 
z
" style="fill: none"/>
  </g>
  <g id="axes_1">
   <g id="matplotlib.axis_1">
    <g id="xtick_1">
     <g id="line2d_1">
      <defs>
       <path id="m67d5555510" d="M 0 0 
L 0 -3.5 
" style="stroke: #0000ff; stroke-width: 0.8"/>
      </defs>
      <g>
       <use xlink:href="#m67d5555510" x="38.713125" y="333.59575" style="fill: #0000ff; stroke: #0000ff; stroke-width: 0.8"/>
      </g>
     </g>
     <g id="text_1">
      <!-- 0.0 -->
      <g style="fill: #0000ff" transform="translate(31.963125 344.595) scale(0.108 -0.108)">
       <defs>
        <path id="TimesNewRomanPSMT-30" d="M 231 2094 
Q 231 2819 450 3342 
Q 669 3866 1031 4122 
Q 1313 4325 1613 4325 
Q 2100 4325 2488 3828 
Q 2972 3213 2972 2159 
Q 2972 1422 2759 906 
Q 2547 391 2217 158 
Q 1888 -75 1581 -75 
Q 975 -75 572 641 
Q 231 1244 231 2094 
z
M 844 2016 
Q 844 1141 1059 588 
Q 1238 122 1591 122 
Q 1759 122 1940 273 
Q 2122 425 2216 781 
Q 2359 1319 2359 2297 
Q 2359 3022 2209 3506 
Q 2097 3866 1919 4016 
Q 1791 4119 1609 4119 
Q 1397 4119 1231 3928 
Q 1006 3669 925 3112 
Q 844 2556 844 2016 
z
" transform="scale(0.015625)"/>
        <path id="TimesNewRomanPSMT-2e" d="M 800 606 
Q 947 606 1047 504 
Q 1147 403 1147 259 
Q 1147 116 1045 14 
Q 944 -88 800 -88 
Q 656 -88 554 14 
Q 453 116 453 259 
Q 453 406 554 506 
Q 656 606 800 606 
z
" transform="scale(0.015625)"/>
       </defs>
       <use xlink:href="#TimesNewRomanPSMT-30"/>
       <use xlink:href="#TimesNewRomanPSMT-2e" transform="translate(50 0)"/>
       <use xlink:href="#TimesNewRomanPSMT-30" transform="translate(75 0)"/>
      </g>
     </g>
    </g>
    <g id="xtick_2">
     <g id="line2d_2">
      <g>
       <use xlink:href="#m67d5555510" x="140.126458" y="333.59575" style="fill: #0000ff; stroke: #0000ff; stroke-width: 0.8"/>
      </g>
     </g>
     <g id="text_2">
      <!-- 0.1 -->
      <g style="fill: #0000ff" transform="translate(133.376458 344.595) scale(0.108 -0.108)">
       <defs>
        <path id="TimesNewRomanPSMT-31" d="M 750 3822 
L 1781 4325 
L 1884 4325 
L 1884 747 
Q 1884 391 1914 303 
Q 1944 216 2037 169 
Q 2131 122 2419 116 
L 2419 0 
L 825 0 
L 825 116 
Q 1125 122 1212 167 
Q 1300 213 1334 289 
Q 1369 366 1369 747 
L 1369 3034 
Q 1369 3497 1338 3628 
Q 1316 3728 1258 3775 
Q 1200 3822 1119 3822 
Q 1003 3822 797 3725 
L 750 3822 
z
" transform="scale(0.015625)"/>
       </defs>
       <use xlink:href="#TimesNewRomanPSMT-30"/>
       <use xlink:href="#TimesNewRomanPSMT-2e" transform="translate(50 0)"/>
       <use xlink:href="#TimesNewRomanPSMT-31" transform="translate(75 0)"/>
      </g>
     </g>
    </g>
    <g id="xtick_3">
     <g id="line2d_3">
      <g>
       <use xlink:href="#m67d5555510" x="241.539792" y="333.59575" style="fill: #0000ff; stroke: #0000ff; stroke-width: 0.8"/>
      </g>
     </g>
     <g id="text_3">
      <!-- 0.2 -->
      <g style="fill: #0000ff" transform="translate(234.789792 344.595) scale(0.108 -0.108)">
       <defs>
        <path id="TimesNewRomanPSMT-32" d="M 2934 816 
L 2638 0 
L 138 0 
L 138 116 
Q 1241 1122 1691 1759 
Q 2141 2397 2141 2925 
Q 2141 3328 1894 3587 
Q 1647 3847 1303 3847 
Q 991 3847 742 3664 
Q 494 3481 375 3128 
L 259 3128 
Q 338 3706 661 4015 
Q 984 4325 1469 4325 
Q 1984 4325 2329 3994 
Q 2675 3663 2675 3213 
Q 2675 2891 2525 2569 
Q 2294 2063 1775 1497 
Q 997 647 803 472 
L 1909 472 
Q 2247 472 2383 497 
Q 2519 522 2628 598 
Q 2738 675 2819 816 
L 2934 816 
z
" transform="scale(0.015625)"/>
       </defs>
       <use xlink:href="#TimesNewRomanPSMT-30"/>
       <use xlink:href="#TimesNewRomanPSMT-2e" transform="translate(50 0)"/>
       <use xlink:href="#TimesNewRomanPSMT-32" transform="translate(75 0)"/>
      </g>
     </g>
    </g>
    <g id="xtick_4">
     <g id="line2d_4">
      <g>
       <use xlink:href="#m67d5555510" x="342.953125" y="333.59575" style="fill: #0000ff; stroke: #0000ff; stroke-width: 0.8"/>
      </g>
     </g>
     <g id="text_4">
      <!-- 0.3 -->
      <g style="fill: #0000ff" transform="translate(336.203125 344.595) scale(0.108 -0.108)">
       <defs>
        <path id="TimesNewRomanPSMT-33" d="M 325 3431 
Q 506 3859 782 4092 
Q 1059 4325 1472 4325 
Q 1981 4325 2253 3994 
Q 2459 3747 2459 3466 
Q 2459 3003 1878 2509 
Q 2269 2356 2469 2072 
Q 2669 1788 2669 1403 
Q 2669 853 2319 450 
Q 1863 -75 997 -75 
Q 569 -75 414 31 
Q 259 138 259 259 
Q 259 350 332 419 
Q 406 488 509 488 
Q 588 488 669 463 
Q 722 447 909 348 
Q 1097 250 1169 231 
Q 1284 197 1416 197 
Q 1734 197 1970 444 
Q 2206 691 2206 1028 
Q 2206 1275 2097 1509 
Q 2016 1684 1919 1775 
Q 1784 1900 1550 2001 
Q 1316 2103 1072 2103 
L 972 2103 
L 972 2197 
Q 1219 2228 1467 2375 
Q 1716 2522 1828 2728 
Q 1941 2934 1941 3181 
Q 1941 3503 1739 3701 
Q 1538 3900 1238 3900 
Q 753 3900 428 3381 
L 325 3431 
z
" transform="scale(0.015625)"/>
       </defs>
       <use xlink:href="#TimesNewRomanPSMT-30"/>
       <use xlink:href="#TimesNewRomanPSMT-2e" transform="translate(50 0)"/>
       <use xlink:href="#TimesNewRomanPSMT-33" transform="translate(75 0)"/>
      </g>
     </g>
    </g>
   </g>
   <g id="matplotlib.axis_2">
    <g id="ytick_1">
     <g id="line2d_5">
      <defs>
       <path id="med5351adf3" d="M 0 0 
L 3.5 0 
" style="stroke: #0000ff; stroke-width: 0.8"/>
      </defs>
      <g>
       <use xlink:href="#med5351adf3" x="38.713125" y="333.59575" style="fill: #0000ff; stroke: #0000ff; stroke-width: 0.8"/>
      </g>
     </g>
     <g id="text_5">
      <!-- 0.0 -->
      <g style="fill: #0000ff" transform="translate(21.713125 337.345375) scale(0.108 -0.108)">
       <use xlink:href="#TimesNewRomanPSMT-30"/>
       <use xlink:href="#TimesNewRomanPSMT-2e" transform="translate(50 0)"/>
       <use xlink:href="#TimesNewRomanPSMT-30" transform="translate(75 0)"/>
      </g>
     </g>
    </g>
    <g id="ytick_2">
     <g id="line2d_6">
      <g>
       <use xlink:href="#med5351adf3" x="38.713125" y="232.182417" style="fill: #0000ff; stroke: #0000ff; stroke-width: 0.8"/>
      </g>
     </g>
     <g id="text_6">
      <!-- 0.1 -->
      <g style="fill: #0000ff" transform="translate(21.713125 235.932042) scale(0.108 -0.108)">
       <use xlink:href="#TimesNewRomanPSMT-30"/>
       <use xlink:href="#TimesNewRomanPSMT-2e" transform="translate(50 0)"/>
       <use xlink:href="#TimesNewRomanPSMT-31" transform="translate(75 0)"/>
      </g>
     </g>
    </g>
    <g id="ytick_3">
     <g id="line2d_7">
      <g>
       <use xlink:href="#med5351adf3" x="38.713125" y="130.769083" style="fill: #0000ff; stroke: #0000ff; stroke-width: 0.8"/>
      </g>
     </g>
     <g id="text_7">
      <!-- 0.2 -->
      <g style="fill: #0000ff" transform="translate(21.713125 134.518708) scale(0.108 -0.108)">
       <use xlink:href="#TimesNewRomanPSMT-30"/>
       <use xlink:href="#TimesNewRomanPSMT-2e" transform="translate(50 0)"/>
       <use xlink:href="#TimesNewRomanPSMT-32" transform="translate(75 0)"/>
      </g>
     </g>
    </g>
    <g id="ytick_4">
     <g id="line2d_8">
      <g>
       <use xlink:href="#med5351adf3" x="38.713125" y="29.35575" style="fill: #0000ff; stroke: #0000ff; stroke-width: 0.8"/>
      </g>
     </g>
     <g id="text_8">
      <!-- 0.3 -->
      <g style="fill: #0000ff" transform="translate(21.713125 33.105375) scale(0.108 -0.108)">
       <use xlink:href="#TimesNewRomanPSMT-30"/>
       <use xlink:href="#TimesNewRomanPSMT-2e" transform="translate(50 0)"/>
       <use xlink:href="#TimesNewRomanPSMT-33" transform="translate(75 0)"/>
      </g>
     </g>
    </g>
    <g id="text_9">
     <!-- Standard Deviation -->
     <g style="fill: #0000ff" transform="translate(15.14625 231.647938) rotate(-90) scale(0.12 -0.12)">
      <defs>
       <path id="TimesNewRomanPS-BoldMT-53" d="M 3006 4334 
L 3041 2922 
L 2913 2922 
Q 2822 3453 2467 3776 
Q 2113 4100 1700 4100 
Q 1381 4100 1195 3929 
Q 1009 3759 1009 3538 
Q 1009 3397 1075 3288 
Q 1166 3141 1366 2997 
Q 1513 2894 2044 2631 
Q 2788 2266 3047 1941 
Q 3303 1616 3303 1197 
Q 3303 666 2889 283 
Q 2475 -100 1838 -100 
Q 1638 -100 1459 -59 
Q 1281 -19 1013 94 
Q 863 156 766 156 
Q 684 156 593 93 
Q 503 31 447 -97 
L 331 -97 
L 331 1503 
L 447 1503 
Q 584 828 976 473 
Q 1369 119 1822 119 
Q 2172 119 2380 309 
Q 2588 500 2588 753 
Q 2588 903 2508 1043 
Q 2428 1184 2265 1311 
Q 2103 1438 1691 1641 
Q 1113 1925 859 2125 
Q 606 2325 470 2572 
Q 334 2819 334 3116 
Q 334 3622 706 3978 
Q 1078 4334 1644 4334 
Q 1850 4334 2044 4284 
Q 2191 4247 2402 4145 
Q 2613 4044 2697 4044 
Q 2778 4044 2825 4094 
Q 2872 4144 2913 4334 
L 3006 4334 
z
" transform="scale(0.015625)"/>
       <path id="TimesNewRomanPS-BoldMT-74" d="M 1375 3991 
L 1375 2922 
L 2069 2922 
L 2069 2613 
L 1375 2613 
L 1375 809 
Q 1375 556 1398 482 
Q 1422 409 1481 364 
Q 1541 319 1591 319 
Q 1794 319 1975 628 
L 2069 559 
Q 1816 -41 1247 -41 
Q 969 -41 776 114 
Q 584 269 531 459 
Q 500 566 500 1034 
L 500 2613 
L 119 2613 
L 119 2722 
Q 513 3000 789 3306 
Q 1066 3613 1272 3991 
L 1375 3991 
z
" transform="scale(0.015625)"/>
       <path id="TimesNewRomanPS-BoldMT-61" d="M 1828 431 
Q 1294 -41 869 -41 
Q 619 -41 453 123 
Q 288 288 288 534 
Q 288 869 575 1136 
Q 863 1403 1828 1847 
L 1828 2141 
Q 1828 2472 1792 2558 
Q 1756 2644 1656 2708 
Q 1556 2772 1431 2772 
Q 1228 2772 1097 2681 
Q 1016 2625 1016 2550 
Q 1016 2484 1103 2388 
Q 1222 2253 1222 2128 
Q 1222 1975 1108 1867 
Q 994 1759 809 1759 
Q 613 1759 480 1878 
Q 347 1997 347 2156 
Q 347 2381 525 2586 
Q 703 2791 1022 2900 
Q 1341 3009 1684 3009 
Q 2100 3009 2342 2832 
Q 2584 2656 2656 2450 
Q 2700 2319 2700 1847 
L 2700 713 
Q 2700 513 2715 461 
Q 2731 409 2762 384 
Q 2794 359 2834 359 
Q 2916 359 3000 475 
L 3094 400 
Q 2938 169 2770 64 
Q 2603 -41 2391 -41 
Q 2141 -41 2000 76 
Q 1859 194 1828 431 
z
M 1828 659 
L 1828 1638 
Q 1450 1416 1266 1163 
Q 1144 994 1144 822 
Q 1144 678 1247 569 
Q 1325 484 1466 484 
Q 1622 484 1828 659 
z
" transform="scale(0.015625)"/>
       <path id="TimesNewRomanPS-BoldMT-6e" d="M 1409 2922 
L 1409 2544 
Q 1634 2788 1840 2898 
Q 2047 3009 2284 3009 
Q 2569 3009 2756 2851 
Q 2944 2694 3006 2459 
Q 3056 2281 3056 1775 
L 3056 638 
Q 3056 300 3117 217 
Q 3178 134 3372 113 
L 3372 0 
L 1894 0 
L 1894 113 
Q 2059 134 2131 250 
Q 2181 328 2181 638 
L 2181 1938 
Q 2181 2297 2153 2390 
Q 2125 2484 2058 2536 
Q 1991 2588 1909 2588 
Q 1641 2588 1409 2203 
L 1409 638 
Q 1409 309 1470 221 
Q 1531 134 1697 113 
L 1697 0 
L 219 0 
L 219 113 
Q 403 131 481 231 
Q 534 300 534 638 
L 534 2288 
Q 534 2619 473 2700 
Q 413 2781 219 2806 
L 219 2922 
L 1409 2922 
z
" transform="scale(0.015625)"/>
       <path id="TimesNewRomanPS-BoldMT-64" d="M 3056 4238 
L 3056 875 
Q 3056 534 3075 472 
Q 3100 369 3170 319 
Q 3241 269 3416 256 
L 3416 153 
L 2181 -88 
L 2181 375 
Q 1959 106 1786 9 
Q 1613 -88 1394 -88 
Q 834 -88 509 413 
Q 247 819 247 1409 
Q 247 1881 409 2254 
Q 572 2628 855 2818 
Q 1138 3009 1463 3009 
Q 1672 3009 1834 2928 
Q 1997 2847 2181 2644 
L 2181 3525 
Q 2181 3859 2153 3928 
Q 2116 4019 2041 4062 
Q 1966 4106 1759 4106 
L 1759 4238 
L 3056 4238 
z
M 2181 2256 
Q 1950 2700 1616 2700 
Q 1500 2700 1425 2638 
Q 1309 2541 1236 2297 
Q 1163 2053 1163 1550 
Q 1163 997 1244 731 
Q 1325 466 1466 347 
Q 1538 288 1663 288 
Q 1938 288 2181 719 
L 2181 2256 
z
" transform="scale(0.015625)"/>
       <path id="TimesNewRomanPS-BoldMT-72" d="M 1428 2922 
L 1428 2259 
Q 1719 2713 1937 2861 
Q 2156 3009 2359 3009 
Q 2534 3009 2639 2901 
Q 2744 2794 2744 2597 
Q 2744 2388 2642 2272 
Q 2541 2156 2397 2156 
Q 2231 2156 2109 2262 
Q 1988 2369 1966 2381 
Q 1934 2400 1894 2400 
Q 1803 2400 1722 2331 
Q 1594 2225 1528 2028 
Q 1428 1725 1428 1359 
L 1428 688 
L 1431 513 
Q 1431 334 1453 284 
Q 1491 200 1564 161 
Q 1638 122 1813 113 
L 1813 0 
L 234 0 
L 234 113 
Q 425 128 492 217 
Q 559 306 559 688 
L 559 2303 
Q 559 2553 534 2622 
Q 503 2709 443 2750 
Q 384 2791 234 2806 
L 234 2922 
L 1428 2922 
z
" transform="scale(0.015625)"/>
       <path id="TimesNewRomanPS-BoldMT-20" transform="scale(0.015625)"/>
       <path id="TimesNewRomanPS-BoldMT-44" d="M 84 0 
L 84 116 
L 225 116 
Q 409 116 507 173 
Q 606 231 653 331 
Q 681 397 681 725 
L 681 3513 
Q 681 3838 647 3919 
Q 613 4000 508 4061 
Q 403 4122 225 4122 
L 84 4122 
L 84 4238 
L 1981 4238 
Q 2741 4238 3203 4031 
Q 3769 3778 4061 3265 
Q 4353 2753 4353 2106 
Q 4353 1659 4209 1282 
Q 4066 906 3837 661 
Q 3609 416 3311 267 
Q 3013 119 2581 38 
Q 2391 0 1981 0 
L 84 0 
z
M 1700 3997 
L 1700 691 
Q 1700 428 1725 368 
Q 1750 309 1809 278 
Q 1894 231 2053 231 
Q 2575 231 2850 588 
Q 3225 1069 3225 2081 
Q 3225 2897 2969 3384 
Q 2766 3766 2447 3903 
Q 2222 4000 1700 3997 
z
" transform="scale(0.015625)"/>
       <path id="TimesNewRomanPS-BoldMT-65" d="M 2691 1566 
L 1088 1566 
Q 1116 984 1397 647 
Q 1613 388 1916 388 
Q 2103 388 2256 492 
Q 2409 597 2584 869 
L 2691 800 
Q 2453 316 2165 114 
Q 1878 -88 1500 -88 
Q 850 -88 516 413 
Q 247 816 247 1413 
Q 247 2144 642 2576 
Q 1038 3009 1569 3009 
Q 2013 3009 2339 2645 
Q 2666 2281 2691 1566 
z
M 1922 1775 
Q 1922 2278 1867 2465 
Q 1813 2653 1697 2750 
Q 1631 2806 1522 2806 
Q 1359 2806 1256 2647 
Q 1072 2369 1072 1884 
L 1072 1775 
L 1922 1775 
z
" transform="scale(0.015625)"/>
       <path id="TimesNewRomanPS-BoldMT-76" d="M 1534 -88 
L 550 2178 
Q 372 2588 272 2697 
Q 200 2778 59 2806 
L 59 2922 
L 1613 2922 
L 1613 2806 
Q 1466 2806 1413 2753 
Q 1338 2684 1338 2591 
Q 1338 2475 1475 2156 
L 1956 1059 
L 2341 2006 
Q 2506 2413 2506 2581 
Q 2506 2678 2436 2739 
Q 2366 2800 2188 2806 
L 2188 2922 
L 3144 2922 
L 3144 2806 
Q 3006 2788 2918 2703 
Q 2831 2619 2656 2206 
L 1681 -88 
L 1534 -88 
z
" transform="scale(0.015625)"/>
       <path id="TimesNewRomanPS-BoldMT-69" d="M 919 4338 
Q 1122 4338 1262 4195 
Q 1403 4053 1403 3853 
Q 1403 3653 1261 3512 
Q 1119 3372 919 3372 
Q 719 3372 578 3512 
Q 438 3653 438 3853 
Q 438 4053 578 4195 
Q 719 4338 919 4338 
z
M 1356 2922 
L 1356 606 
Q 1356 297 1428 211 
Q 1500 125 1709 113 
L 1709 0 
L 131 0 
L 131 113 
Q 325 119 419 225 
Q 481 297 481 606 
L 481 2313 
Q 481 2622 409 2708 
Q 338 2794 131 2806 
L 131 2922 
L 1356 2922 
z
" transform="scale(0.015625)"/>
       <path id="TimesNewRomanPS-BoldMT-6f" d="M 1594 3009 
Q 1975 3009 2303 2812 
Q 2631 2616 2801 2253 
Q 2972 1891 2972 1459 
Q 2972 838 2656 419 
Q 2275 -88 1603 -88 
Q 944 -88 587 375 
Q 231 838 231 1447 
Q 231 2075 595 2542 
Q 959 3009 1594 3009 
z
M 1606 2788 
Q 1447 2788 1333 2667 
Q 1219 2547 1183 2192 
Q 1147 1838 1147 1206 
Q 1147 872 1191 581 
Q 1225 359 1337 243 
Q 1450 128 1594 128 
Q 1734 128 1828 206 
Q 1950 313 1991 503 
Q 2053 800 2053 1703 
Q 2053 2234 1993 2432 
Q 1934 2631 1819 2722 
Q 1738 2788 1606 2788 
z
" transform="scale(0.015625)"/>
      </defs>
      <use xlink:href="#TimesNewRomanPS-BoldMT-53"/>
      <use xlink:href="#TimesNewRomanPS-BoldMT-74" transform="translate(55.615234 0)"/>
      <use xlink:href="#TimesNewRomanPS-BoldMT-61" transform="translate(88.916016 0)"/>
      <use xlink:href="#TimesNewRomanPS-BoldMT-6e" transform="translate(138.916016 0)"/>
      <use xlink:href="#TimesNewRomanPS-BoldMT-64" transform="translate(194.53125 0)"/>
      <use xlink:href="#TimesNewRomanPS-BoldMT-61" transform="translate(250.146484 0)"/>
      <use xlink:href="#TimesNewRomanPS-BoldMT-72" transform="translate(300.146484 0)"/>
      <use xlink:href="#TimesNewRomanPS-BoldMT-64" transform="translate(344.53125 0)"/>
      <use xlink:href="#TimesNewRomanPS-BoldMT-20" transform="translate(400.146484 0)"/>
      <use xlink:href="#TimesNewRomanPS-BoldMT-44" transform="translate(425.146484 0)"/>
      <use xlink:href="#TimesNewRomanPS-BoldMT-65" transform="translate(497.363281 0)"/>
      <use xlink:href="#TimesNewRomanPS-BoldMT-76" transform="translate(541.748047 0)"/>
      <use xlink:href="#TimesNewRomanPS-BoldMT-69" transform="translate(591.748047 0)"/>
      <use xlink:href="#TimesNewRomanPS-BoldMT-61" transform="translate(619.53125 0)"/>
      <use xlink:href="#TimesNewRomanPS-BoldMT-74" transform="translate(669.53125 0)"/>
      <use xlink:href="#TimesNewRomanPS-BoldMT-69" transform="translate(702.832031 0)"/>
      <use xlink:href="#TimesNewRomanPS-BoldMT-6f" transform="translate(730.615234 0)"/>
      <use xlink:href="#TimesNewRomanPS-BoldMT-6e" transform="translate(780.615234 0)"/>
     </g>
    </g>
   </g>
   <g id="line2d_9">
    <path d="M 265.578836 333.59575 
L 265.48988 329.349 
L 265.223166 325.109701 
L 264.779162 320.885289 
L 264.158648 316.683175 
L 263.362712 312.510732 
L 262.39275 308.37528 
L 261.250464 304.284072 
L 259.937859 300.244287 
L 258.457236 296.263012 
L 256.811193 292.347231 
L 255.002618 288.503814 
L 253.034685 284.739504 
L 250.910844 281.060904 
L 248.634823 277.474468 
L 246.210613 273.986488 
L 243.642469 270.603083 
L 240.934895 267.330188 
L 238.092642 264.173546 
L 235.120695 261.138694 
L 232.024268 258.230956 
L 228.808795 255.455434 
L 225.479915 252.816996 
L 222.043468 250.320272 
L 218.505484 247.969641 
L 214.87217 245.769227 
L 211.149898 243.722891 
L 207.3452 241.834223 
L 203.46475 240.106535 
L 199.515356 238.542859 
L 195.503947 237.145938 
L 191.437559 235.918224 
L 187.323326 234.861868 
L 183.168467 233.978726 
L 178.98027 233.270345 
L 174.766083 232.73797 
L 170.533299 232.382533 
L 168.412253 232.271373 
L 162.041663 232.204658 
L 157.797707 232.382533 
L 153.564923 232.73797 
L 149.350736 233.270345 
L 145.162539 233.978726 
L 141.00768 234.861868 
L 136.893448 235.918224 
L 132.82706 237.145938 
L 128.81565 238.542859 
L 124.866256 240.106535 
L 120.985806 241.834223 
L 117.181108 243.722891 
L 113.458836 245.769227 
L 109.825522 247.969641 
L 106.287538 250.320272 
L 102.851092 252.816996 
L 99.522212 255.455434 
L 96.306738 258.230956 
L 93.210312 261.138694 
L 90.238365 264.173546 
L 87.396111 267.330188 
L 84.688537 270.603083 
L 82.120393 273.986488 
L 79.696184 277.474468 
L 77.420162 281.060904 
L 75.296322 284.739504 
L 73.328388 288.503814 
L 71.519813 292.347231 
L 69.87377 296.263012 
L 68.393147 300.244287 
L 67.080542 304.284072 
L 65.938256 308.37528 
L 64.968294 312.510732 
L 64.172358 316.683175 
L 63.551844 320.885289 
L 63.107841 325.109701 
L 62.952286 327.227954 
L 62.841127 337.8425 
L 63.107841 342.081799 
L 63.551844 346.306211 
L 64.172358 350.508325 
L 65.063164 355.105188 
M 263.267843 355.105188 
L 263.782527 352.598714 
L 264.490908 348.410517 
L 265.023284 344.19633 
L 265.223166 333.59575 
L 265.37872 339.963546 
L 265.556595 335.719591 
L 265.556595 335.719591 
" clip-path="url(#p5333df890c)" style="fill: none; stroke-dasharray: 3.33,1.44; stroke-dashoffset: 0; stroke: #009900; stroke-width: 0.9"/>
   </g>
   <g id="line2d_10">
    <path d="M 303.009911 185.741473 
L 296.696626 180.056966 
L 290.150837 174.641818 
L 283.384027 169.50553 
L 276.408066 164.657111 
L 269.235195 160.105068 
L 261.877995 155.857387 
L 254.349374 151.921519 
L 246.662541 148.30437 
L 238.830979 145.012285 
L 230.868429 142.051039 
L 222.788859 139.425827 
L 214.606444 137.141256 
L 206.335538 135.201333 
L 197.990652 133.60946 
L 189.586425 132.368432 
L 181.137601 131.480425 
L 172.659002 130.946997 
L 159.917822 130.813567 
L 151.429911 131.169315 
L 142.964343 131.880189 
L 134.535969 132.94494 
L 126.159576 134.361701 
L 117.849857 136.127986 
L 109.621392 138.240697 
L 101.488616 140.696127 
L 93.465797 143.489968 
L 85.567008 146.61732 
L 77.806109 150.072695 
L 70.196713 153.850032 
L 62.75217 157.942704 
L 55.48554 162.343531 
L 48.409573 167.044793 
L 41.53668 172.038242 
L 34.87892 177.315117 
L 28.447973 182.866162 
L 22.25512 188.681638 
L 16.311226 194.751342 
L 10.626719 201.064627 
L 5.211571 207.610416 
L 0.075283 214.377227 
L -1 215.890297 
L -1 215.890297 
" clip-path="url(#p5333df890c)" style="fill: none; stroke-dasharray: 3.33,1.44; stroke-dashoffset: 0; stroke: #009900; stroke-width: 0.9"/>
   </g>
   <g id="line2d_11">
    <path d="M 94.692034 37.394105 
L 88.504092 38.914009 
L 82.349337 40.563171 
L 76.230469 42.340866 
L 70.150173 44.246315 
L 64.111115 46.278683 
L 58.115943 48.437078 
L 52.167289 50.720552 
L 46.267761 53.128105 
L 40.419947 55.65868 
L 34.626411 58.311168 
L 28.889696 61.084404 
L 23.212317 63.977173 
L 17.596765 66.988206 
L 12.045503 70.116181 
L 6.560966 73.359727 
L -1 78.110764 
L -1 78.110764 
" clip-path="url(#p5333df890c)" style="fill: none; stroke-dasharray: 3.33,1.44; stroke-dashoffset: 0; stroke: #009900; stroke-width: 0.9"/>
   </g>
   <g id="line2d_12">
    <path d="M 140.126458 333.59575 
L 140.037502 329.349 
L 139.770787 325.109701 
L 139.326784 320.885289 
L 138.70627 316.683175 
L 137.910334 312.510732 
L 136.940372 308.37528 
L 135.798086 304.284072 
L 134.485481 300.244287 
L 133.004858 296.263012 
L 131.358815 292.347231 
L 129.55024 288.503814 
L 127.582306 284.739504 
L 125.458466 281.060904 
L 123.182444 277.474468 
L 120.758235 273.986488 
L 118.190091 270.603083 
L 115.482517 267.330188 
L 112.640263 264.173546 
L 109.668317 261.138694 
L 106.57189 258.230956 
L 103.356417 255.455434 
L 100.027537 252.816996 
L 96.59109 250.320272 
L 93.053106 247.969641 
L 89.419792 245.769227 
L 85.69752 243.722891 
L 81.892822 241.834223 
L 78.012372 240.106535 
L 74.062978 238.542859 
L 70.051568 237.145938 
L 65.98518 235.918224 
L 61.870948 234.861868 
L 57.716089 233.978726 
L 53.527892 233.270345 
L 49.313705 232.73797 
L 45.080921 232.382533 
L 42.959875 232.271373 
L 36.589284 232.204658 
L 32.345329 232.382533 
L 28.112545 232.73797 
L 23.898358 233.270345 
L 19.710161 233.978726 
L 15.555302 234.861868 
L 11.44107 235.918224 
L 7.374682 237.145938 
L 3.363272 238.542859 
L -1 240.285636 
M 137.815465 355.105188 
L 138.330149 352.598714 
L 139.03853 348.410517 
L 139.570905 344.19633 
L 139.770787 333.59575 
L 139.926342 339.963546 
L 140.104217 335.719591 
L 140.104217 335.719591 
" clip-path="url(#p5333df890c)" style="fill: none; stroke-dasharray: 3.33,1.44; stroke-dashoffset: 0; stroke: #0000ff; stroke-width: 0.9"/>
   </g>
   <g id="line2d_13">
    <path d="M 241.539792 333.59575 
L 241.361878 325.102251 
L 240.82845 316.623652 
L 239.940443 308.174828 
L 238.699415 299.770601 
L 237.107542 291.425715 
L 235.167619 283.154809 
L 232.883048 274.972394 
L 230.257836 266.892824 
L 227.29659 258.930274 
L 224.004505 251.098712 
L 220.387356 243.411879 
L 216.451488 235.883258 
L 212.203807 228.526058 
L 207.651764 221.353187 
L 202.803345 214.377227 
L 197.667057 207.610416 
L 192.251909 201.064627 
L 186.567402 194.751342 
L 180.623508 188.681638 
L 174.430655 182.866162 
L 167.999708 177.315117 
L 161.341948 172.038242 
L 154.469056 167.044793 
L 147.393088 162.343531 
L 140.126458 157.942704 
L 132.681915 153.850032 
L 125.072519 150.072695 
L 117.31162 146.61732 
L 109.412831 143.489968 
L 101.390012 140.696127 
L 93.257236 138.240697 
L 85.028771 136.127986 
L 76.719052 134.361701 
L 68.342659 132.94494 
L 59.914285 131.880189 
L 51.448717 131.169315 
L 47.206624 130.946997 
L 34.465444 130.813567 
L 25.977533 131.169315 
L 17.511965 131.880189 
L 9.083591 132.94494 
L 0.707198 134.361701 
L -1 134.705933 
M 240.393017 355.105188 
L 240.428686 354.79691 
L 240.82845 333.59575 
L 241.13956 346.331342 
L 241.495308 337.843431 
L 241.495308 337.843431 
" clip-path="url(#p5333df890c)" style="fill: none; stroke-dasharray: 3.33,1.44; stroke-dashoffset: 0; stroke: #0000ff; stroke-width: 0.9"/>
   </g>
   <g id="line2d_14">
    <path d="M 342.953125 333.59575 
L 342.8864 327.224228 
L 342.686255 320.855501 
L 342.352777 314.492362 
L 341.886112 308.137603 
L 341.286466 301.79401 
L 340.554102 295.464367 
L 339.68934 289.151449 
L 338.692559 282.858026 
L 337.564198 276.586859 
L 336.304751 270.340697 
L 334.91477 264.122281 
L 333.394866 257.934339 
L 331.745704 251.779584 
L 329.968009 245.660716 
L 328.06256 239.58042 
L 326.030192 233.541361 
L 323.871797 227.54619 
L 321.588323 221.597536 
L 319.18077 215.698008 
L 316.650195 209.850194 
L 313.997707 204.056658 
L 311.224471 198.319943 
L 308.331702 192.642564 
L 305.320669 187.027012 
L 302.192694 181.47575 
L 298.949148 175.991213 
L 295.591453 170.575806 
L 292.121083 165.231905 
L 288.53956 159.961854 
L 284.848455 154.767965 
L 281.049387 149.652515 
L 277.144022 144.617749 
L 273.134074 139.665875 
L 269.021301 134.799065 
L 264.807507 130.019454 
L 260.49454 125.329138 
L 256.084293 120.730175 
L 251.5787 116.224582 
L 246.979737 111.814335 
L 242.289421 107.501368 
L 237.50981 103.287574 
L 232.643 99.174801 
L 227.691126 95.164853 
L 222.65636 91.259488 
L 217.54091 87.46042 
L 212.347021 83.769315 
L 207.07697 80.187792 
L 201.733069 76.717422 
L 196.317662 73.359727 
L 190.833125 70.116181 
L 185.281863 66.988206 
L 179.666311 63.977173 
L 173.988932 61.084404 
L 168.252217 58.311168 
L 162.458681 55.65868 
L 156.610867 53.128105 
L 150.711339 50.720552 
L 144.762685 48.437078 
L 138.767514 46.278683 
L 132.728455 44.246315 
L 126.648159 42.340866 
L 120.529291 40.563171 
L 114.374536 38.914009 
L 108.186594 37.394105 
L 101.968178 36.004124 
L 95.722016 34.744677 
L 89.450849 33.616316 
L 83.157426 32.619535 
L 76.844508 31.754773 
L 70.514865 31.022409 
L 64.171272 30.422763 
L 57.816513 29.956098 
L 51.453374 29.62262 
L 32.341603 29.422475 
L 25.972876 29.62262 
L 19.609737 29.956098 
L 13.254978 30.422763 
L 6.911385 31.022409 
L -1 31.971445 
M 341.480536 355.105188 
L 341.886112 333.59575 
L 342.352777 352.699138 
L 342.686255 346.335999 
L 342.8864 339.967272 
L 342.8864 339.967272 
" clip-path="url(#p5333df890c)" style="fill: none; stroke: #0000ff; stroke-width: 0.9; stroke-linecap: square"/>
   </g>
   <g id="line2d_15">
    <path d="M 342.953125 333.59575 
L 342.8864 327.224228 
L 342.686255 320.855501 
L 342.352777 314.492362 
L 341.886112 308.137603 
L 341.286466 301.79401 
L 340.554102 295.464367 
L 339.68934 289.151449 
L 338.692559 282.858026 
L 337.564198 276.586859 
L 336.304751 270.340697 
L 334.91477 264.122281 
L 333.394866 257.934339 
L 331.745704 251.779584 
L 329.968009 245.660716 
L 328.06256 239.58042 
L 326.030192 233.541361 
L 323.871797 227.54619 
L 321.588323 221.597536 
L 319.18077 215.698008 
L 316.650195 209.850194 
L 313.997707 204.056658 
L 311.224471 198.319943 
L 308.331702 192.642564 
L 305.320669 187.027012 
L 302.192694 181.47575 
L 298.949148 175.991213 
L 295.591453 170.575806 
L 292.121083 165.231905 
L 288.53956 159.961854 
L 284.848455 154.767965 
L 281.049387 149.652515 
L 277.144022 144.617749 
L 273.134074 139.665875 
L 269.021301 134.799065 
L 264.807507 130.019454 
L 260.49454 125.329138 
L 256.084293 120.730175 
L 251.5787 116.224582 
L 246.979737 111.814335 
L 242.289421 107.501368 
L 237.50981 103.287574 
L 232.643 99.174801 
L 227.691126 95.164853 
L 222.65636 91.259488 
L 217.54091 87.46042 
L 212.347021 83.769315 
L 207.07697 80.187792 
L 201.733069 76.717422 
L 196.317662 73.359727 
L 190.833125 70.116181 
L 185.281863 66.988206 
L 179.666311 63.977173 
L 173.988932 61.084404 
L 168.252217 58.311168 
L 162.458681 55.65868 
L 156.610867 53.128105 
L 150.711339 50.720552 
L 144.762685 48.437078 
L 138.767514 46.278683 
L 132.728455 44.246315 
L 126.648159 42.340866 
L 120.529291 40.563171 
L 114.374536 38.914009 
L 108.186594 37.394105 
L 101.968178 36.004124 
L 95.722016 34.744677 
L 89.450849 33.616316 
L 83.157426 32.619535 
L 76.844508 31.754773 
L 70.514865 31.022409 
L 64.171272 30.422763 
L 57.816513 29.956098 
L 51.453374 29.62262 
L 32.341603 29.422475 
L 25.972876 29.62262 
L 19.609737 29.956098 
L 13.254978 30.422763 
L 6.911385 31.022409 
L -1 31.971445 
M 341.480536 355.105188 
L 341.886112 333.59575 
L 342.352777 352.699138 
L 342.686255 346.335999 
L 342.8864 339.967272 
L 342.8864 339.967272 
" clip-path="url(#p5333df890c)" style="fill: none; stroke-dasharray: 3.33,1.44; stroke-dashoffset: 0; stroke: #0000ff; stroke-width: 0.9"/>
   </g>
   <g id="line2d_16">
    <path d="M 38.713125 333.59575 
L 38.713125 355.105188 
" clip-path="url(#p5333df890c)" style="fill: none; stroke-dasharray: 3.33,1.44; stroke-dashoffset: 0; stroke: #000000; stroke-width: 0.9"/>
   </g>
   <g id="line2d_17">
    <path d="M 38.713125 333.59575 
L 36.551345 355.105188 
" clip-path="url(#p5333df890c)" style="fill: none; stroke-dasharray: 3.33,1.44; stroke-dashoffset: 0; stroke: #000000; stroke-width: 0.9"/>
   </g>
   <g id="line2d_18">
    <path d="M 38.713125 333.59575 
L 34.322529 355.105188 
" clip-path="url(#p5333df890c)" style="fill: none; stroke-dasharray: 3.33,1.44; stroke-dashoffset: 0; stroke: #000000; stroke-width: 0.9"/>
   </g>
   <g id="line2d_19">
    <path d="M 38.713125 333.59575 
L 31.94872 355.105188 
" clip-path="url(#p5333df890c)" style="fill: none; stroke-dasharray: 3.33,1.44; stroke-dashoffset: 0; stroke: #000000; stroke-width: 0.9"/>
   </g>
   <g id="line2d_20">
    <path d="M 38.713125 333.59575 
L 29.325637 355.105188 
" clip-path="url(#p5333df890c)" style="fill: none; stroke-dasharray: 3.33,1.44; stroke-dashoffset: 0; stroke: #000000; stroke-width: 0.9"/>
   </g>
   <g id="line2d_21">
    <path d="M 38.713125 333.59575 
L 26.294645 355.105188 
" clip-path="url(#p5333df890c)" style="fill: none; stroke-dasharray: 3.33,1.44; stroke-dashoffset: 0; stroke: #000000; stroke-width: 0.9"/>
   </g>
   <g id="line2d_22">
    <path d="M 38.713125 333.59575 
L 22.581047 355.105188 
" clip-path="url(#p5333df890c)" style="fill: none; stroke-dasharray: 3.33,1.44; stroke-dashoffset: 0; stroke: #000000; stroke-width: 0.9"/>
   </g>
   <g id="line2d_23">
    <path d="M 38.713125 333.59575 
L 17.629659 355.105188 
" clip-path="url(#p5333df890c)" style="fill: none; stroke-dasharray: 3.33,1.44; stroke-dashoffset: 0; stroke: #000000; stroke-width: 0.9"/>
   </g>
   <g id="line2d_24">
    <path d="M 38.713125 333.59575 
L 10.033875 355.105188 
" clip-path="url(#p5333df890c)" style="fill: none; stroke-dasharray: 3.33,1.44; stroke-dashoffset: 0; stroke: #000000; stroke-width: 0.9"/>
   </g>
   <g id="line2d_25">
    <path d="M 38.713125 333.59575 
L -1 352.829694 
" clip-path="url(#p5333df890c)" style="fill: none; stroke-dasharray: 3.33,1.44; stroke-dashoffset: 0; stroke: #000000; stroke-width: 0.9"/>
   </g>
   <g id="line2d_26">
    <path d="M 38.713125 333.59575 
L -1 346.648823 
" clip-path="url(#p5333df890c)" style="fill: none; stroke-dasharray: 3.33,1.44; stroke-dashoffset: 0; stroke: #000000; stroke-width: 0.9"/>
   </g>
   <g id="line2d_27">
    <path d="M 38.713125 333.59575 
L -1 339.254564 
" clip-path="url(#p5333df890c)" style="fill: none; stroke-dasharray: 3.33,1.44; stroke-dashoffset: 0; stroke: #000000; stroke-width: 0.9"/>
   </g>
   <g id="line2d_28">
    <path d="M 38.713125 333.59575 
L 38.713125 29.35575 
" clip-path="url(#p5333df890c)" style="fill: none; stroke-dasharray: 3.33,1.44; stroke-dashoffset: 0; stroke: #000000; stroke-width: 0.9"/>
   </g>
   <g id="line2d_29">
    <path d="M 38.713125 333.59575 
L 69.137125 30.880772 
" clip-path="url(#p5333df890c)" style="fill: none; stroke-dasharray: 3.33,1.44; stroke-dashoffset: 0; stroke: #000000; stroke-width: 0.9"/>
   </g>
   <g id="line2d_30">
    <path d="M 38.713125 333.59575 
L 99.561125 35.502646 
" clip-path="url(#p5333df890c)" style="fill: none; stroke-dasharray: 3.33,1.44; stroke-dashoffset: 0; stroke: #000000; stroke-width: 0.9"/>
   </g>
   <g id="line2d_31">
    <path d="M 38.713125 333.59575 
L 129.985125 43.369287 
" clip-path="url(#p5333df890c)" style="fill: none; stroke-dasharray: 3.33,1.44; stroke-dashoffset: 0; stroke: #000000; stroke-width: 0.9"/>
   </g>
   <g id="line2d_32">
    <path d="M 38.713125 333.59575 
L 160.409125 54.755184 
" clip-path="url(#p5333df890c)" style="fill: none; stroke-dasharray: 3.33,1.44; stroke-dashoffset: 0; stroke: #000000; stroke-width: 0.9"/>
   </g>
   <g id="line2d_33">
    <path d="M 38.713125 333.59575 
L 190.833125 70.116181 
" clip-path="url(#p5333df890c)" style="fill: none; stroke-dasharray: 3.33,1.44; stroke-dashoffset: 0; stroke: #000000; stroke-width: 0.9"/>
   </g>
   <g id="line2d_34">
    <path d="M 38.713125 333.59575 
L 221.257125 90.20375 
" clip-path="url(#p5333df890c)" style="fill: none; stroke-dasharray: 3.33,1.44; stroke-dashoffset: 0; stroke: #000000; stroke-width: 0.9"/>
   </g>
   <g id="line2d_35">
    <path d="M 38.713125 333.59575 
L 251.681125 116.324931 
" clip-path="url(#p5333df890c)" style="fill: none; stroke-dasharray: 3.33,1.44; stroke-dashoffset: 0; stroke: #000000; stroke-width: 0.9"/>
   </g>
   <g id="line2d_36">
    <path d="M 38.713125 333.59575 
L 282.105125 151.05175 
" clip-path="url(#p5333df890c)" style="fill: none; stroke-dasharray: 3.33,1.44; stroke-dashoffset: 0; stroke: #000000; stroke-width: 0.9"/>
   </g>
   <g id="line2d_37">
    <path d="M 38.713125 333.59575 
L 312.529125 200.980609 
" clip-path="url(#p5333df890c)" style="fill: none; stroke-dasharray: 3.33,1.44; stroke-dashoffset: 0; stroke: #000000; stroke-width: 0.9"/>
   </g>
   <g id="line2d_38">
    <path d="M 38.713125 333.59575 
L 327.741125 238.59684 
" clip-path="url(#p5333df890c)" style="fill: none; stroke-dasharray: 3.33,1.44; stroke-dashoffset: 0; stroke: #000000; stroke-width: 0.9"/>
   </g>
   <g id="line2d_39">
    <path d="M 38.713125 333.59575 
L 339.910725 290.677416 
" clip-path="url(#p5333df890c)" style="fill: none; stroke-dasharray: 3.33,1.44; stroke-dashoffset: 0; stroke: #000000; stroke-width: 0.9"/>
   </g>
   <g id="line2d_40">
    <path d="M 38.713125 333.59575 
L 342.953125 333.59575 
" clip-path="url(#p5333df890c)" style="fill: none; stroke: #000000; stroke-width: 3.5; stroke-linecap: square"/>
   </g>
   <g id="line2d_41">
    <path d="M 38.713125 333.59575 
L 38.713125 29.35575 
" clip-path="url(#p5333df890c)" style="fill: none; stroke: #000000; stroke-width: 2.5; stroke-linecap: square"/>
   </g>
   <g id="line2d_42">
    <path d="M 164.165503 333.59575 
L 164.05546 328.34235 
L 163.725524 323.098166 
L 163.176274 317.872398 
L 162.408673 312.674214 
L 161.424068 307.512734 
L 160.224186 302.397012 
L 158.811133 297.336024 
L 157.187386 292.338647 
L 155.355796 287.413649 
L 153.319575 282.569671 
L 151.082295 277.815209 
L 148.647882 273.158606 
L 146.020606 268.60803 
L 143.205075 264.171464 
L 140.206231 259.856692 
L 137.029333 255.671284 
L 133.679955 251.622581 
L 130.163973 247.717688 
L 126.487555 243.963453 
L 122.657151 240.366464 
L 118.67948 236.933031 
L 114.561522 233.669178 
L 110.310499 230.580629 
L 105.933871 227.672804 
L 101.439314 224.950804 
L 96.834714 222.419403 
L 92.12815 220.083044 
L 87.327877 217.945825 
L 82.442317 216.011495 
L 77.480042 214.283448 
L 72.449756 212.764715 
L 67.360285 211.457961 
L 62.220557 210.365478 
L 57.039588 209.489183 
L 51.826469 208.830613 
L 46.590345 208.390923 
L 41.340401 208.170886 
L 36.085849 208.170886 
L 30.835905 208.390923 
L 25.599781 208.830613 
L 20.386662 209.489183 
L 15.205693 210.365478 
L 10.065965 211.457961 
L 4.976494 212.764715 
L -1 214.601883 
M 162.302892 355.105188 
L 162.819692 351.922213 
L 163.478262 346.709094 
L 163.917952 341.47297 
L 164.137989 336.223026 
L 164.137989 336.223026 
" clip-path="url(#p5333df890c)" style="fill: none"/>
   </g>
   <g id="text_10">
    <!-- 0.10 -->
    <g style="fill: #009900" transform="translate(114.96458 241.820343) rotate(-22.408644) scale(0.12 -0.12)">
     <use xlink:href="#TimesNewRomanPSMT-30"/>
     <use xlink:href="#TimesNewRomanPSMT-2e" transform="translate(50 0)"/>
     <use xlink:href="#TimesNewRomanPSMT-31" transform="translate(75 0)"/>
     <use xlink:href="#TimesNewRomanPSMT-30" transform="translate(125 0)"/>
    </g>
   </g>
   <g id="text_11">
    <!-- 0.20 -->
    <g style="fill: #009900" transform="translate(76.304819 148.06488) rotate(-22.408644) scale(0.12 -0.12)">
     <use xlink:href="#TimesNewRomanPSMT-30"/>
     <use xlink:href="#TimesNewRomanPSMT-2e" transform="translate(50 0)"/>
     <use xlink:href="#TimesNewRomanPSMT-32" transform="translate(75 0)"/>
     <use xlink:href="#TimesNewRomanPSMT-30" transform="translate(125 0)"/>
    </g>
   </g>
   <g id="text_12">
    <!-- 0.30 -->
    <g style="fill: #009900" transform="translate(37.645057 54.309416) rotate(-22.408644) scale(0.12 -0.12)">
     <use xlink:href="#TimesNewRomanPSMT-30"/>
     <use xlink:href="#TimesNewRomanPSMT-2e" transform="translate(50 0)"/>
     <use xlink:href="#TimesNewRomanPSMT-33" transform="translate(75 0)"/>
     <use xlink:href="#TimesNewRomanPSMT-30" transform="translate(125 0)"/>
    </g>
   </g>
   <g id="text_13">
    <!-- 0.00 -->
    <g transform="translate(29.963125 14.14375) scale(0.1 -0.1)">
     <use xlink:href="#TimesNewRomanPSMT-30"/>
     <use xlink:href="#TimesNewRomanPSMT-2e" transform="translate(50 0)"/>
     <use xlink:href="#TimesNewRomanPSMT-30" transform="translate(75 0)"/>
     <use xlink:href="#TimesNewRomanPSMT-30" transform="translate(125 0)"/>
    </g>
   </g>
   <g id="text_14">
    <!-- 0.10 -->
    <g transform="translate(61.908325 15.745023) scale(0.1 -0.1)">
     <use xlink:href="#TimesNewRomanPSMT-30"/>
     <use xlink:href="#TimesNewRomanPSMT-2e" transform="translate(50 0)"/>
     <use xlink:href="#TimesNewRomanPSMT-31" transform="translate(75 0)"/>
     <use xlink:href="#TimesNewRomanPSMT-30" transform="translate(125 0)"/>
    </g>
   </g>
   <g id="text_15">
    <!-- 0.20 -->
    <g transform="translate(93.853525 20.597991) scale(0.1 -0.1)">
     <use xlink:href="#TimesNewRomanPSMT-30"/>
     <use xlink:href="#TimesNewRomanPSMT-2e" transform="translate(50 0)"/>
     <use xlink:href="#TimesNewRomanPSMT-32" transform="translate(75 0)"/>
     <use xlink:href="#TimesNewRomanPSMT-30" transform="translate(125 0)"/>
    </g>
   </g>
   <g id="text_16">
    <!-- 0.30 -->
    <g transform="translate(125.798725 28.857964) scale(0.1 -0.1)">
     <use xlink:href="#TimesNewRomanPSMT-30"/>
     <use xlink:href="#TimesNewRomanPSMT-2e" transform="translate(50 0)"/>
     <use xlink:href="#TimesNewRomanPSMT-33" transform="translate(75 0)"/>
     <use xlink:href="#TimesNewRomanPSMT-30" transform="translate(125 0)"/>
    </g>
   </g>
   <g id="text_17">
    <!-- 0.40 -->
    <g transform="translate(157.743925 40.813156) scale(0.1 -0.1)">
     <defs>
      <path id="TimesNewRomanPSMT-34" d="M 2978 1563 
L 2978 1119 
L 2409 1119 
L 2409 0 
L 1894 0 
L 1894 1119 
L 100 1119 
L 100 1519 
L 2066 4325 
L 2409 4325 
L 2409 1563 
L 2978 1563 
z
M 1894 1563 
L 1894 3666 
L 406 1563 
L 1894 1563 
z
" transform="scale(0.015625)"/>
     </defs>
     <use xlink:href="#TimesNewRomanPSMT-30"/>
     <use xlink:href="#TimesNewRomanPSMT-2e" transform="translate(50 0)"/>
     <use xlink:href="#TimesNewRomanPSMT-34" transform="translate(75 0)"/>
     <use xlink:href="#TimesNewRomanPSMT-30" transform="translate(125 0)"/>
    </g>
   </g>
   <g id="text_18">
    <!-- 0.50 -->
    <g transform="translate(189.689125 56.942203) scale(0.1 -0.1)">
     <defs>
      <path id="TimesNewRomanPSMT-35" d="M 2778 4238 
L 2534 3706 
L 1259 3706 
L 981 3138 
Q 1809 3016 2294 2522 
Q 2709 2097 2709 1522 
Q 2709 1188 2573 903 
Q 2438 619 2231 419 
Q 2025 219 1772 97 
Q 1413 -75 1034 -75 
Q 653 -75 479 54 
Q 306 184 306 341 
Q 306 428 378 495 
Q 450 563 559 563 
Q 641 563 702 538 
Q 763 513 909 409 
Q 1144 247 1384 247 
Q 1750 247 2026 523 
Q 2303 800 2303 1197 
Q 2303 1581 2056 1914 
Q 1809 2247 1375 2428 
Q 1034 2569 447 2591 
L 1259 4238 
L 2778 4238 
z
" transform="scale(0.015625)"/>
     </defs>
     <use xlink:href="#TimesNewRomanPSMT-30"/>
     <use xlink:href="#TimesNewRomanPSMT-2e" transform="translate(50 0)"/>
     <use xlink:href="#TimesNewRomanPSMT-35" transform="translate(75 0)"/>
     <use xlink:href="#TimesNewRomanPSMT-30" transform="translate(125 0)"/>
    </g>
   </g>
   <g id="text_19">
    <!-- 0.60 -->
    <g transform="translate(221.634325 78.03415) scale(0.1 -0.1)">
     <defs>
      <path id="TimesNewRomanPSMT-36" d="M 2869 4325 
L 2869 4209 
Q 2456 4169 2195 4045 
Q 1934 3922 1679 3669 
Q 1425 3416 1258 3105 
Q 1091 2794 978 2366 
Q 1428 2675 1881 2675 
Q 2316 2675 2634 2325 
Q 2953 1975 2953 1425 
Q 2953 894 2631 456 
Q 2244 -75 1606 -75 
Q 1172 -75 869 213 
Q 275 772 275 1663 
Q 275 2231 503 2743 
Q 731 3256 1154 3653 
Q 1578 4050 1965 4187 
Q 2353 4325 2688 4325 
L 2869 4325 
z
M 925 2138 
Q 869 1716 869 1456 
Q 869 1156 980 804 
Q 1091 453 1309 247 
Q 1469 100 1697 100 
Q 1969 100 2183 356 
Q 2397 613 2397 1088 
Q 2397 1622 2184 2012 
Q 1972 2403 1581 2403 
Q 1463 2403 1327 2353 
Q 1191 2303 925 2138 
z
" transform="scale(0.015625)"/>
     </defs>
     <use xlink:href="#TimesNewRomanPSMT-30"/>
     <use xlink:href="#TimesNewRomanPSMT-2e" transform="translate(50 0)"/>
     <use xlink:href="#TimesNewRomanPSMT-36" transform="translate(75 0)"/>
     <use xlink:href="#TimesNewRomanPSMT-30" transform="translate(125 0)"/>
    </g>
   </g>
   <g id="text_20">
    <!-- 0.70 -->
    <g transform="translate(253.579525 105.461391) scale(0.1 -0.1)">
     <defs>
      <path id="TimesNewRomanPSMT-37" d="M 644 4238 
L 2916 4238 
L 2916 4119 
L 1503 -88 
L 1153 -88 
L 2419 3728 
L 1253 3728 
Q 900 3728 750 3644 
Q 488 3500 328 3200 
L 238 3234 
L 644 4238 
z
" transform="scale(0.015625)"/>
     </defs>
     <use xlink:href="#TimesNewRomanPSMT-30"/>
     <use xlink:href="#TimesNewRomanPSMT-2e" transform="translate(50 0)"/>
     <use xlink:href="#TimesNewRomanPSMT-37" transform="translate(75 0)"/>
     <use xlink:href="#TimesNewRomanPSMT-30" transform="translate(125 0)"/>
    </g>
   </g>
   <g id="text_21">
    <!-- 0.80 -->
    <g transform="translate(285.524725 141.92455) scale(0.1 -0.1)">
     <defs>
      <path id="TimesNewRomanPSMT-38" d="M 1228 2134 
Q 725 2547 579 2797 
Q 434 3047 434 3316 
Q 434 3728 753 4026 
Q 1072 4325 1600 4325 
Q 2113 4325 2425 4047 
Q 2738 3769 2738 3413 
Q 2738 3175 2569 2928 
Q 2400 2681 1866 2347 
Q 2416 1922 2594 1678 
Q 2831 1359 2831 1006 
Q 2831 559 2490 242 
Q 2150 -75 1597 -75 
Q 994 -75 656 303 
Q 388 606 388 966 
Q 388 1247 577 1523 
Q 766 1800 1228 2134 
z
M 1719 2469 
Q 2094 2806 2194 3001 
Q 2294 3197 2294 3444 
Q 2294 3772 2109 3958 
Q 1925 4144 1606 4144 
Q 1288 4144 1088 3959 
Q 888 3775 888 3528 
Q 888 3366 970 3203 
Q 1053 3041 1206 2894 
L 1719 2469 
z
M 1375 2016 
Q 1116 1797 991 1539 
Q 866 1281 866 981 
Q 866 578 1086 336 
Q 1306 94 1647 94 
Q 1984 94 2187 284 
Q 2391 475 2391 747 
Q 2391 972 2272 1150 
Q 2050 1481 1375 2016 
z
" transform="scale(0.015625)"/>
     </defs>
     <use xlink:href="#TimesNewRomanPSMT-30"/>
     <use xlink:href="#TimesNewRomanPSMT-2e" transform="translate(50 0)"/>
     <use xlink:href="#TimesNewRomanPSMT-38" transform="translate(75 0)"/>
     <use xlink:href="#TimesNewRomanPSMT-30" transform="translate(125 0)"/>
    </g>
   </g>
   <g id="text_22">
    <!-- 0.90 -->
    <g transform="translate(317.469925 194.349851) scale(0.1 -0.1)">
     <defs>
      <path id="TimesNewRomanPSMT-39" d="M 338 -88 
L 338 28 
Q 744 34 1094 217 
Q 1444 400 1770 856 
Q 2097 1313 2225 1859 
Q 1734 1544 1338 1544 
Q 891 1544 572 1889 
Q 253 2234 253 2806 
Q 253 3363 572 3797 
Q 956 4325 1575 4325 
Q 2097 4325 2469 3894 
Q 2925 3359 2925 2575 
Q 2925 1869 2578 1258 
Q 2231 647 1613 244 
Q 1109 -88 516 -88 
L 338 -88 
z
M 2275 2091 
Q 2331 2497 2331 2741 
Q 2331 3044 2228 3395 
Q 2125 3747 1936 3934 
Q 1747 4122 1506 4122 
Q 1228 4122 1018 3872 
Q 809 3622 809 3128 
Q 809 2469 1088 2097 
Q 1291 1828 1588 1828 
Q 1731 1828 1928 1897 
Q 2125 1966 2275 2091 
z
" transform="scale(0.015625)"/>
     </defs>
     <use xlink:href="#TimesNewRomanPSMT-30"/>
     <use xlink:href="#TimesNewRomanPSMT-2e" transform="translate(50 0)"/>
     <use xlink:href="#TimesNewRomanPSMT-39" transform="translate(75 0)"/>
     <use xlink:href="#TimesNewRomanPSMT-30" transform="translate(125 0)"/>
    </g>
   </g>
   <g id="text_23">
    <!-- 0.95 -->
    <g transform="translate(333.442525 233.846895) scale(0.1 -0.1)">
     <use xlink:href="#TimesNewRomanPSMT-30"/>
     <use xlink:href="#TimesNewRomanPSMT-2e" transform="translate(50 0)"/>
     <use xlink:href="#TimesNewRomanPSMT-39" transform="translate(75 0)"/>
     <use xlink:href="#TimesNewRomanPSMT-35" transform="translate(125 0)"/>
    </g>
   </g>
   <g id="text_24">
    <!-- 0.99 -->
    <g transform="translate(346.220605 288.5315) scale(0.1 -0.1)">
     <use xlink:href="#TimesNewRomanPSMT-30"/>
     <use xlink:href="#TimesNewRomanPSMT-2e" transform="translate(50 0)"/>
     <use xlink:href="#TimesNewRomanPSMT-39" transform="translate(75 0)"/>
     <use xlink:href="#TimesNewRomanPSMT-39" transform="translate(125 0)"/>
    </g>
   </g>
   <g id="text_25">
    <!-- C -->
    <g transform="translate(200.947685 37.21212) rotate(-330) scale(0.12 -0.12)">
     <defs>
      <path id="TimesNewRomanPS-BoldMT-43" d="M 4272 4334 
L 4272 2866 
L 4150 2866 
Q 4013 3441 3638 3747 
Q 3263 4053 2788 4053 
Q 2391 4053 2059 3825 
Q 1728 3597 1575 3228 
Q 1378 2756 1378 2178 
Q 1378 1609 1522 1142 
Q 1666 675 1972 436 
Q 2278 197 2766 197 
Q 3166 197 3498 372 
Q 3831 547 4200 975 
L 4200 609 
Q 3844 238 3458 70 
Q 3072 -97 2556 -97 
Q 1878 -97 1351 175 
Q 825 447 539 956 
Q 253 1466 253 2041 
Q 253 2647 570 3190 
Q 888 3734 1427 4034 
Q 1966 4334 2572 4334 
Q 3019 4334 3516 4141 
Q 3803 4028 3881 4028 
Q 3981 4028 4054 4101 
Q 4128 4175 4150 4334 
L 4272 4334 
z
" transform="scale(0.015625)"/>
     </defs>
     <use xlink:href="#TimesNewRomanPS-BoldMT-43"/>
    </g>
   </g>
   <g id="text_26">
    <!-- o -->
    <g transform="translate(208.933424 42.517808) rotate(-328.636364) scale(0.12 -0.12)">
     <use xlink:href="#TimesNewRomanPS-BoldMT-6f"/>
    </g>
   </g>
   <g id="text_27">
    <!-- r -->
    <g transform="translate(215.951362 47.019159) rotate(-327.272727) scale(0.12 -0.12)">
     <use xlink:href="#TimesNewRomanPS-BoldMT-72"/>
    </g>
   </g>
   <g id="text_28">
    <!-- r -->
    <g transform="translate(222.581527 51.33249) rotate(-325.909091) scale(0.12 -0.12)">
     <use xlink:href="#TimesNewRomanPS-BoldMT-72"/>
    </g>
   </g>
   <g id="text_29">
    <!-- e -->
    <g transform="translate(229.107547 55.805698) rotate(-324.545455) scale(0.12 -0.12)">
     <use xlink:href="#TimesNewRomanPS-BoldMT-65"/>
    </g>
   </g>
   <g id="text_30">
    <!-- l -->
    <g transform="translate(236.323514 61.630685) rotate(-323.181818) scale(0.12 -0.12)">
     <defs>
      <path id="TimesNewRomanPS-BoldMT-6c" d="M 1359 4238 
L 1359 606 
Q 1359 297 1431 211 
Q 1503 125 1713 113 
L 1713 0 
L 134 0 
L 134 113 
Q 328 119 422 225 
Q 484 297 484 606 
L 484 3631 
Q 484 3938 412 4023 
Q 341 4109 134 4122 
L 134 4238 
L 1359 4238 
z
" transform="scale(0.015625)"/>
     </defs>
     <use xlink:href="#TimesNewRomanPS-BoldMT-6c"/>
    </g>
   </g>
   <g id="text_31">
    <!-- a -->
    <g transform="translate(241.56787 64.805423) rotate(-321.818182) scale(0.12 -0.12)">
     <use xlink:href="#TimesNewRomanPS-BoldMT-61"/>
    </g>
   </g>
   <g id="text_32">
    <!-- t -->
    <g transform="translate(248.537355 71.006397) rotate(-320.454545) scale(0.12 -0.12)">
     <use xlink:href="#TimesNewRomanPS-BoldMT-74"/>
    </g>
   </g>
   <g id="text_33">
    <!-- i -->
    <g transform="translate(254.850327 76.550518) rotate(-319.090909) scale(0.12 -0.12)">
     <use xlink:href="#TimesNewRomanPS-BoldMT-69"/>
    </g>
   </g>
   <g id="text_34">
    <!-- o -->
    <g transform="translate(259.799236 80.025342) rotate(-317.727273) scale(0.12 -0.12)">
     <use xlink:href="#TimesNewRomanPS-BoldMT-6f"/>
    </g>
   </g>
   <g id="text_35">
    <!-- n -->
    <g transform="translate(265.386847 84.925304) rotate(-316.363636) scale(0.12 -0.12)">
     <use xlink:href="#TimesNewRomanPS-BoldMT-6e"/>
    </g>
   </g>
   <g id="text_36">
    <!--   -->
    <g transform="translate(272.393752 93.016191) rotate(-315) scale(0.12 -0.12)">
     <use xlink:href="#TimesNewRomanPS-BoldMT-20"/>
    </g>
   </g>
   <g id="text_37">
    <!-- C -->
    <g transform="translate(275.984036 94.607741) rotate(-313.636364) scale(0.12 -0.12)">
     <use xlink:href="#TimesNewRomanPS-BoldMT-43"/>
    </g>
   </g>
   <g id="text_38">
    <!-- o -->
    <g transform="translate(282.339989 102.314195) rotate(-312.272727) scale(0.12 -0.12)">
     <use xlink:href="#TimesNewRomanPS-BoldMT-6f"/>
    </g>
   </g>
   <g id="text_39">
    <!-- e -->
    <g transform="translate(287.85839 108.730708) rotate(-310.909091) scale(0.12 -0.12)">
     <use xlink:href="#TimesNewRomanPS-BoldMT-65"/>
    </g>
   </g>
   <g id="text_40">
    <!-- f -->
    <g transform="translate(293.433076 115.80306) rotate(-309.545455) scale(0.12 -0.12)">
     <defs>
      <path id="TimesNewRomanPS-BoldMT-66" d="M 1497 2616 
L 1497 588 
Q 1497 294 1559 219 
Q 1659 103 1928 113 
L 1928 0 
L 206 0 
L 206 113 
Q 403 116 486 158 
Q 569 200 600 275 
Q 631 350 631 588 
L 631 2616 
L 206 2616 
L 206 2922 
L 631 2922 
L 631 3138 
L 628 3284 
Q 628 3734 958 4034 
Q 1288 4334 1850 4334 
Q 2234 4334 2420 4190 
Q 2606 4047 2606 3872 
Q 2606 3731 2490 3628 
Q 2375 3525 2184 3525 
Q 2022 3525 1926 3609 
Q 1831 3694 1831 3797 
Q 1831 3825 1850 3913 
Q 1863 3966 1863 4013 
Q 1863 4078 1825 4109 
Q 1775 4156 1703 4156 
Q 1613 4156 1552 4081 
Q 1491 4006 1491 3841 
L 1497 3294 
L 1497 2922 
L 1928 2922 
L 1928 2616 
L 1497 2616 
z
" transform="scale(0.015625)"/>
     </defs>
     <use xlink:href="#TimesNewRomanPS-BoldMT-66"/>
    </g>
   </g>
   <g id="text_41">
    <!-- f -->
    <g transform="translate(298.427595 121.992681) rotate(-308.181818) scale(0.12 -0.12)">
     <use xlink:href="#TimesNewRomanPS-BoldMT-66"/>
    </g>
   </g>
   <g id="text_42">
    <!-- i -->
    <g transform="translate(303.473332 128.832014) rotate(-306.818182) scale(0.12 -0.12)">
     <use xlink:href="#TimesNewRomanPS-BoldMT-69"/>
    </g>
   </g>
   <g id="text_43">
    <!-- c -->
    <g transform="translate(307.586471 133.643507) rotate(-305.454545) scale(0.12 -0.12)">
     <defs>
      <path id="TimesNewRomanPS-BoldMT-63" d="M 2600 753 
L 2697 678 
Q 2491 291 2183 101 
Q 1875 -88 1528 -88 
Q 944 -88 594 353 
Q 244 794 244 1413 
Q 244 2009 563 2463 
Q 947 3009 1622 3009 
Q 2075 3009 2342 2781 
Q 2609 2553 2609 2272 
Q 2609 2094 2501 1987 
Q 2394 1881 2219 1881 
Q 2034 1881 1914 2003 
Q 1794 2125 1766 2438 
Q 1747 2634 1675 2713 
Q 1603 2791 1506 2791 
Q 1356 2791 1250 2631 
Q 1088 2391 1088 1894 
Q 1088 1481 1219 1104 
Q 1350 728 1578 544 
Q 1750 409 1984 409 
Q 2138 409 2275 481 
Q 2413 553 2600 753 
z
" transform="scale(0.015625)"/>
     </defs>
     <use xlink:href="#TimesNewRomanPS-BoldMT-63"/>
    </g>
   </g>
   <g id="text_44">
    <!-- i -->
    <g transform="translate(312.703116 141.814438) rotate(-304.090909) scale(0.12 -0.12)">
     <use xlink:href="#TimesNewRomanPS-BoldMT-69"/>
    </g>
   </g>
   <g id="text_45">
    <!-- e -->
    <g transform="translate(316.547725 146.793722) rotate(-302.727273) scale(0.12 -0.12)">
     <use xlink:href="#TimesNewRomanPS-BoldMT-65"/>
    </g>
   </g>
   <g id="text_46">
    <!-- n -->
    <g transform="translate(320.443207 152.379879) rotate(-301.363636) scale(0.12 -0.12)">
     <use xlink:href="#TimesNewRomanPS-BoldMT-6e"/>
    </g>
   </g>
   <g id="text_47">
    <!-- t -->
    <g transform="translate(325.212407 161.52) rotate(-300) scale(0.12 -0.12)">
     <use xlink:href="#TimesNewRomanPS-BoldMT-74"/>
    </g>
   </g>
   <g id="text_48">
    <!-- R -->
    <g style="fill: #009900" transform="translate(46.214725 322.377903) rotate(-80) scale(0.12 -0.12)">
     <defs>
      <path id="TimesNewRomanPS-BoldMT-52" d="M 1700 1931 
L 1700 744 
Q 1700 400 1742 311 
Q 1784 222 1890 169 
Q 1997 116 2288 116 
L 2288 0 
L 119 0 
L 119 116 
Q 413 116 517 170 
Q 622 225 664 312 
Q 706 400 706 744 
L 706 3494 
Q 706 3838 664 3927 
Q 622 4016 515 4069 
Q 409 4122 119 4122 
L 119 4238 
L 2088 4238 
Q 2856 4238 3212 4131 
Q 3569 4025 3794 3739 
Q 4019 3453 4019 3069 
Q 4019 2600 3681 2294 
Q 3466 2100 3078 2003 
L 4097 569 
Q 4297 291 4381 222 
Q 4509 125 4678 116 
L 4678 0 
L 3344 0 
L 1978 1931 
L 1700 1931 
z
M 1700 4009 
L 1700 2153 
L 1878 2153 
Q 2313 2153 2528 2233 
Q 2744 2313 2867 2520 
Q 2991 2728 2991 3063 
Q 2991 3547 2764 3778 
Q 2538 4009 2034 4009 
L 1700 4009 
z
" transform="scale(0.015625)"/>
     </defs>
     <use xlink:href="#TimesNewRomanPS-BoldMT-52"/>
    </g>
   </g>
   <g id="text_49">
    <!-- M -->
    <g style="fill: #009900" transform="translate(48.534412 311.822981) rotate(-73.333333) scale(0.12 -0.12)">
     <defs>
      <path id="TimesNewRomanPS-BoldMT-4d" d="M 3050 1444 
L 4200 4238 
L 5925 4238 
L 5925 4122 
L 5788 4122 
Q 5600 4122 5488 4056 
Q 5409 4013 5363 3909 
Q 5328 3834 5328 3519 
L 5328 725 
Q 5328 400 5362 319 
Q 5397 238 5503 177 
Q 5609 116 5788 116 
L 5925 116 
L 5925 0 
L 3713 0 
L 3713 116 
L 3850 116 
Q 4038 116 4150 181 
Q 4228 225 4275 331 
Q 4309 406 4309 725 
L 4309 3866 
L 2684 0 
L 2609 0 
L 959 3838 
L 959 853 
Q 959 541 975 469 
Q 1016 313 1152 214 
Q 1288 116 1578 116 
L 1578 0 
L 128 0 
L 128 116 
L 172 116 
Q 313 113 434 161 
Q 556 209 618 290 
Q 681 372 716 519 
Q 722 553 722 838 
L 722 3519 
Q 722 3841 687 3920 
Q 653 4000 547 4061 
Q 441 4122 263 4122 
L 128 4122 
L 128 4238 
L 1859 4238 
L 3050 1444 
z
" transform="scale(0.015625)"/>
     </defs>
     <use xlink:href="#TimesNewRomanPS-BoldMT-4d"/>
    </g>
   </g>
   <g id="text_50">
    <!-- S -->
    <g style="fill: #009900" transform="translate(53.570445 294.669146) rotate(-66.666667) scale(0.12 -0.12)">
     <use xlink:href="#TimesNewRomanPS-BoldMT-53"/>
    </g>
   </g>
   <g id="text_51">
    <!-- D -->
    <g style="fill: #009900" transform="translate(58.936451 284.226068) rotate(-60) scale(0.12 -0.12)">
     <use xlink:href="#TimesNewRomanPS-BoldMT-44"/>
    </g>
   </g>
   <g id="legend_1">
    <g id="patch_2">
     <path d="M 242.49375 328.59575 
L 335.953125 328.59575 
Q 337.953125 328.59575 337.953125 326.59575 
L 337.953125 256.825438 
Q 337.953125 254.825438 335.953125 254.825438 
L 242.49375 254.825438 
Q 240.49375 254.825438 240.49375 256.825438 
L 240.49375 326.59575 
Q 240.49375 328.59575 242.49375 328.59575 
z
" style="fill: #ffffff; opacity: 0.9; stroke: #cccccc; stroke-linejoin: miter"/>
    </g>
    <g id="line2d_43">
     <path d="M 244.49375 262.325438 
L 254.49375 262.325438 
L 264.49375 262.325438 
" style="fill: none"/>
     <defs>
      <path id="me638c8fbcf" d="M 0 5 
C 1.326016 5 2.597899 4.473168 3.535534 3.535534 
C 4.473168 2.597899 5 1.326016 5 0 
C 5 -1.326016 4.473168 -2.597899 3.535534 -3.535534 
C 2.597899 -4.473168 1.326016 -5 0 -5 
C -1.326016 -5 -2.597899 -4.473168 -3.535534 -3.535534 
C -4.473168 -2.597899 -5 -1.326016 -5 0 
C -5 1.326016 -4.473168 2.597899 -3.535534 3.535534 
C -2.597899 4.473168 -1.326016 5 0 5 
z
" style="stroke: #000000; stroke-width: 0.5"/>
     </defs>
     <g>
      <use xlink:href="#me638c8fbcf" x="254.49375" y="262.325438" style="fill: #1f77b4; stroke: #000000; stroke-width: 0.5"/>
     </g>
    </g>
    <g id="text_52">
     <!-- Centrality -->
     <g transform="translate(272.49375 265.825438) scale(0.1 -0.1)">
      <defs>
       <path id="TimesNewRomanPSMT-43" d="M 3853 4334 
L 3950 2894 
L 3853 2894 
Q 3659 3541 3300 3825 
Q 2941 4109 2438 4109 
Q 2016 4109 1675 3895 
Q 1334 3681 1139 3212 
Q 944 2744 944 2047 
Q 944 1472 1128 1050 
Q 1313 628 1683 403 
Q 2053 178 2528 178 
Q 2941 178 3256 354 
Q 3572 531 3950 1056 
L 4047 994 
Q 3728 428 3303 165 
Q 2878 -97 2294 -97 
Q 1241 -97 663 684 
Q 231 1266 231 2053 
Q 231 2688 515 3219 
Q 800 3750 1298 4042 
Q 1797 4334 2388 4334 
Q 2847 4334 3294 4109 
Q 3425 4041 3481 4041 
Q 3566 4041 3628 4100 
Q 3709 4184 3744 4334 
L 3853 4334 
z
" transform="scale(0.015625)"/>
       <path id="TimesNewRomanPSMT-65" d="M 681 1784 
Q 678 1147 991 784 
Q 1303 422 1725 422 
Q 2006 422 2214 576 
Q 2422 731 2563 1106 
L 2659 1044 
Q 2594 616 2278 264 
Q 1963 -88 1488 -88 
Q 972 -88 605 314 
Q 238 716 238 1394 
Q 238 2128 614 2539 
Q 991 2950 1559 2950 
Q 2041 2950 2350 2633 
Q 2659 2316 2659 1784 
L 681 1784 
z
M 681 1966 
L 2006 1966 
Q 1991 2241 1941 2353 
Q 1863 2528 1708 2628 
Q 1553 2728 1384 2728 
Q 1125 2728 920 2526 
Q 716 2325 681 1966 
z
" transform="scale(0.015625)"/>
       <path id="TimesNewRomanPSMT-6e" d="M 1034 2341 
Q 1538 2947 1994 2947 
Q 2228 2947 2397 2830 
Q 2566 2713 2666 2444 
Q 2734 2256 2734 1869 
L 2734 647 
Q 2734 375 2778 278 
Q 2813 200 2889 156 
Q 2966 113 3172 113 
L 3172 0 
L 1756 0 
L 1756 113 
L 1816 113 
Q 2016 113 2095 173 
Q 2175 234 2206 353 
Q 2219 400 2219 647 
L 2219 1819 
Q 2219 2209 2117 2386 
Q 2016 2563 1775 2563 
Q 1403 2563 1034 2156 
L 1034 647 
Q 1034 356 1069 288 
Q 1113 197 1189 155 
Q 1266 113 1500 113 
L 1500 0 
L 84 0 
L 84 113 
L 147 113 
Q 366 113 442 223 
Q 519 334 519 647 
L 519 1709 
Q 519 2225 495 2337 
Q 472 2450 423 2490 
Q 375 2531 294 2531 
Q 206 2531 84 2484 
L 38 2597 
L 900 2947 
L 1034 2947 
L 1034 2341 
z
" transform="scale(0.015625)"/>
       <path id="TimesNewRomanPSMT-74" d="M 1031 3803 
L 1031 2863 
L 1700 2863 
L 1700 2644 
L 1031 2644 
L 1031 788 
Q 1031 509 1111 412 
Q 1191 316 1316 316 
Q 1419 316 1516 380 
Q 1613 444 1666 569 
L 1788 569 
Q 1678 263 1478 108 
Q 1278 -47 1066 -47 
Q 922 -47 784 33 
Q 647 113 581 261 
Q 516 409 516 719 
L 516 2644 
L 63 2644 
L 63 2747 
Q 234 2816 414 2980 
Q 594 3144 734 3369 
Q 806 3488 934 3803 
L 1031 3803 
z
" transform="scale(0.015625)"/>
       <path id="TimesNewRomanPSMT-72" d="M 1038 2947 
L 1038 2303 
Q 1397 2947 1775 2947 
Q 1947 2947 2059 2842 
Q 2172 2738 2172 2600 
Q 2172 2478 2090 2393 
Q 2009 2309 1897 2309 
Q 1788 2309 1652 2417 
Q 1516 2525 1450 2525 
Q 1394 2525 1328 2463 
Q 1188 2334 1038 2041 
L 1038 669 
Q 1038 431 1097 309 
Q 1138 225 1241 169 
Q 1344 113 1538 113 
L 1538 0 
L 72 0 
L 72 113 
Q 291 113 397 181 
Q 475 231 506 341 
Q 522 394 522 644 
L 522 1753 
Q 522 2253 501 2348 
Q 481 2444 426 2487 
Q 372 2531 291 2531 
Q 194 2531 72 2484 
L 41 2597 
L 906 2947 
L 1038 2947 
z
" transform="scale(0.015625)"/>
       <path id="TimesNewRomanPSMT-61" d="M 1822 413 
Q 1381 72 1269 19 
Q 1100 -59 909 -59 
Q 613 -59 420 144 
Q 228 347 228 678 
Q 228 888 322 1041 
Q 450 1253 767 1440 
Q 1084 1628 1822 1897 
L 1822 2009 
Q 1822 2438 1686 2597 
Q 1550 2756 1291 2756 
Q 1094 2756 978 2650 
Q 859 2544 859 2406 
L 866 2225 
Q 866 2081 792 2003 
Q 719 1925 600 1925 
Q 484 1925 411 2006 
Q 338 2088 338 2228 
Q 338 2497 613 2722 
Q 888 2947 1384 2947 
Q 1766 2947 2009 2819 
Q 2194 2722 2281 2516 
Q 2338 2381 2338 1966 
L 2338 994 
Q 2338 584 2353 492 
Q 2369 400 2405 369 
Q 2441 338 2488 338 
Q 2538 338 2575 359 
Q 2641 400 2828 588 
L 2828 413 
Q 2478 -56 2159 -56 
Q 2006 -56 1915 50 
Q 1825 156 1822 413 
z
M 1822 616 
L 1822 1706 
Q 1350 1519 1213 1441 
Q 966 1303 859 1153 
Q 753 1003 753 825 
Q 753 600 887 451 
Q 1022 303 1197 303 
Q 1434 303 1822 616 
z
" transform="scale(0.015625)"/>
       <path id="TimesNewRomanPSMT-6c" d="M 1184 4444 
L 1184 647 
Q 1184 378 1223 290 
Q 1263 203 1344 158 
Q 1425 113 1647 113 
L 1647 0 
L 244 0 
L 244 113 
Q 441 113 512 153 
Q 584 194 625 287 
Q 666 381 666 647 
L 666 3247 
Q 666 3731 644 3842 
Q 622 3953 573 3993 
Q 525 4034 450 4034 
Q 369 4034 244 3984 
L 191 4094 
L 1044 4444 
L 1184 4444 
z
" transform="scale(0.015625)"/>
       <path id="TimesNewRomanPSMT-69" d="M 928 4444 
Q 1059 4444 1151 4351 
Q 1244 4259 1244 4128 
Q 1244 3997 1151 3903 
Q 1059 3809 928 3809 
Q 797 3809 703 3903 
Q 609 3997 609 4128 
Q 609 4259 701 4351 
Q 794 4444 928 4444 
z
M 1188 2947 
L 1188 647 
Q 1188 378 1227 289 
Q 1266 200 1342 156 
Q 1419 113 1622 113 
L 1622 0 
L 231 0 
L 231 113 
Q 441 113 512 153 
Q 584 194 626 287 
Q 669 381 669 647 
L 669 1750 
Q 669 2216 641 2353 
Q 619 2453 572 2492 
Q 525 2531 444 2531 
Q 356 2531 231 2484 
L 188 2597 
L 1050 2947 
L 1188 2947 
z
" transform="scale(0.015625)"/>
       <path id="TimesNewRomanPSMT-79" d="M 38 2863 
L 1372 2863 
L 1372 2747 
L 1306 2747 
Q 1166 2747 1095 2686 
Q 1025 2625 1025 2534 
Q 1025 2413 1128 2197 
L 1825 753 
L 2466 2334 
Q 2519 2463 2519 2588 
Q 2519 2644 2497 2672 
Q 2472 2706 2419 2726 
Q 2366 2747 2231 2747 
L 2231 2863 
L 3163 2863 
L 3163 2747 
Q 3047 2734 2984 2696 
Q 2922 2659 2847 2556 
Q 2819 2513 2741 2316 
L 1575 -541 
Q 1406 -956 1132 -1168 
Q 859 -1381 606 -1381 
Q 422 -1381 303 -1275 
Q 184 -1169 184 -1031 
Q 184 -900 270 -820 
Q 356 -741 506 -741 
Q 609 -741 788 -809 
Q 913 -856 944 -856 
Q 1038 -856 1148 -759 
Q 1259 -663 1372 -384 
L 1575 113 
L 547 2272 
Q 500 2369 397 2513 
Q 319 2622 269 2659 
Q 197 2709 38 2747 
L 38 2863 
z
" transform="scale(0.015625)"/>
      </defs>
      <use xlink:href="#TimesNewRomanPSMT-43"/>
      <use xlink:href="#TimesNewRomanPSMT-65" transform="translate(66.699219 0)"/>
      <use xlink:href="#TimesNewRomanPSMT-6e" transform="translate(111.083984 0)"/>
      <use xlink:href="#TimesNewRomanPSMT-74" transform="translate(161.083984 0)"/>
      <use xlink:href="#TimesNewRomanPSMT-72" transform="translate(188.867188 0)"/>
      <use xlink:href="#TimesNewRomanPSMT-61" transform="translate(222.167969 0)"/>
      <use xlink:href="#TimesNewRomanPSMT-6c" transform="translate(266.552734 0)"/>
      <use xlink:href="#TimesNewRomanPSMT-69" transform="translate(294.335938 0)"/>
      <use xlink:href="#TimesNewRomanPSMT-74" transform="translate(322.119141 0)"/>
      <use xlink:href="#TimesNewRomanPSMT-79" transform="translate(349.902344 0)"/>
     </g>
    </g>
    <g id="line2d_44">
     <path d="M 244.49375 276.48325 
L 254.49375 276.48325 
L 264.49375 276.48325 
" style="fill: none"/>
     <defs>
      <path id="m7b44783e8c" d="M -5 5 
L 5 5 
L 5 -5 
L -5 -5 
z
" style="stroke: #000000; stroke-width: 0.5; stroke-linejoin: miter"/>
     </defs>
     <g>
      <use xlink:href="#m7b44783e8c" x="254.49375" y="276.48325" style="fill: #ff7f0e; stroke: #000000; stroke-width: 0.5; stroke-linejoin: miter"/>
     </g>
    </g>
    <g id="text_53">
     <!-- Proximity -->
     <g transform="translate(272.49375 279.98325) scale(0.1 -0.1)">
      <defs>
       <path id="TimesNewRomanPSMT-50" d="M 1313 1984 
L 1313 750 
Q 1313 350 1400 253 
Q 1519 116 1759 116 
L 1922 116 
L 1922 0 
L 106 0 
L 106 116 
L 266 116 
Q 534 116 650 291 
Q 713 388 713 750 
L 713 3488 
Q 713 3888 628 3984 
Q 506 4122 266 4122 
L 106 4122 
L 106 4238 
L 1659 4238 
Q 2228 4238 2556 4120 
Q 2884 4003 3109 3725 
Q 3334 3447 3334 3066 
Q 3334 2547 2992 2222 
Q 2650 1897 2025 1897 
Q 1872 1897 1694 1919 
Q 1516 1941 1313 1984 
z
M 1313 2163 
Q 1478 2131 1606 2115 
Q 1734 2100 1825 2100 
Q 2150 2100 2386 2351 
Q 2622 2603 2622 3003 
Q 2622 3278 2509 3514 
Q 2397 3750 2190 3867 
Q 1984 3984 1722 3984 
Q 1563 3984 1313 3925 
L 1313 2163 
z
" transform="scale(0.015625)"/>
       <path id="TimesNewRomanPSMT-6f" d="M 1600 2947 
Q 2250 2947 2644 2453 
Q 2978 2031 2978 1484 
Q 2978 1100 2793 706 
Q 2609 313 2286 112 
Q 1963 -88 1566 -88 
Q 919 -88 538 428 
Q 216 863 216 1403 
Q 216 1797 411 2186 
Q 606 2575 925 2761 
Q 1244 2947 1600 2947 
z
M 1503 2744 
Q 1338 2744 1170 2645 
Q 1003 2547 900 2300 
Q 797 2053 797 1666 
Q 797 1041 1045 587 
Q 1294 134 1700 134 
Q 2003 134 2200 384 
Q 2397 634 2397 1244 
Q 2397 2006 2069 2444 
Q 1847 2744 1503 2744 
z
" transform="scale(0.015625)"/>
       <path id="TimesNewRomanPSMT-78" d="M 84 2863 
L 1431 2863 
L 1431 2747 
Q 1303 2747 1251 2703 
Q 1200 2659 1200 2588 
Q 1200 2513 1309 2356 
Q 1344 2306 1413 2200 
L 1616 1875 
L 1850 2200 
Q 2075 2509 2075 2591 
Q 2075 2656 2022 2701 
Q 1969 2747 1850 2747 
L 1850 2863 
L 2819 2863 
L 2819 2747 
Q 2666 2738 2553 2663 
Q 2400 2556 2134 2200 
L 1744 1678 
L 2456 653 
Q 2719 275 2831 198 
Q 2944 122 3122 113 
L 3122 0 
L 1772 0 
L 1772 113 
Q 1913 113 1991 175 
Q 2050 219 2050 291 
Q 2050 363 1850 653 
L 1431 1266 
L 972 653 
Q 759 369 759 316 
Q 759 241 829 180 
Q 900 119 1041 113 
L 1041 0 
L 106 0 
L 106 113 
Q 219 128 303 191 
Q 422 281 703 653 
L 1303 1450 
L 759 2238 
Q 528 2575 401 2661 
Q 275 2747 84 2747 
L 84 2863 
z
" transform="scale(0.015625)"/>
       <path id="TimesNewRomanPSMT-6d" d="M 1050 2338 
Q 1363 2650 1419 2697 
Q 1559 2816 1721 2881 
Q 1884 2947 2044 2947 
Q 2313 2947 2506 2790 
Q 2700 2634 2766 2338 
Q 3088 2713 3309 2830 
Q 3531 2947 3766 2947 
Q 3994 2947 4170 2830 
Q 4347 2713 4450 2447 
Q 4519 2266 4519 1878 
L 4519 647 
Q 4519 378 4559 278 
Q 4591 209 4675 161 
Q 4759 113 4950 113 
L 4950 0 
L 3538 0 
L 3538 113 
L 3597 113 
Q 3781 113 3884 184 
Q 3956 234 3988 344 
Q 4000 397 4000 647 
L 4000 1878 
Q 4000 2228 3916 2372 
Q 3794 2572 3525 2572 
Q 3359 2572 3192 2489 
Q 3025 2406 2788 2181 
L 2781 2147 
L 2788 2013 
L 2788 647 
Q 2788 353 2820 281 
Q 2853 209 2943 161 
Q 3034 113 3253 113 
L 3253 0 
L 1806 0 
L 1806 113 
Q 2044 113 2133 169 
Q 2222 225 2256 338 
Q 2272 391 2272 647 
L 2272 1878 
Q 2272 2228 2169 2381 
Q 2031 2581 1784 2581 
Q 1616 2581 1450 2491 
Q 1191 2353 1050 2181 
L 1050 647 
Q 1050 366 1089 281 
Q 1128 197 1204 155 
Q 1281 113 1516 113 
L 1516 0 
L 100 0 
L 100 113 
Q 297 113 375 155 
Q 453 197 493 289 
Q 534 381 534 647 
L 534 1741 
Q 534 2213 506 2350 
Q 484 2453 437 2492 
Q 391 2531 309 2531 
Q 222 2531 100 2484 
L 53 2597 
L 916 2947 
L 1050 2947 
L 1050 2338 
z
" transform="scale(0.015625)"/>
      </defs>
      <use xlink:href="#TimesNewRomanPSMT-50"/>
      <use xlink:href="#TimesNewRomanPSMT-72" transform="translate(55.615234 0)"/>
      <use xlink:href="#TimesNewRomanPSMT-6f" transform="translate(88.916016 0)"/>
      <use xlink:href="#TimesNewRomanPSMT-78" transform="translate(138.916016 0)"/>
      <use xlink:href="#TimesNewRomanPSMT-69" transform="translate(188.916016 0)"/>
      <use xlink:href="#TimesNewRomanPSMT-6d" transform="translate(216.699219 0)"/>
      <use xlink:href="#TimesNewRomanPSMT-69" transform="translate(294.482422 0)"/>
      <use xlink:href="#TimesNewRomanPSMT-74" transform="translate(322.265625 0)"/>
      <use xlink:href="#TimesNewRomanPSMT-79" transform="translate(350.048828 0)"/>
     </g>
    </g>
    <g id="line2d_45">
     <path d="M 244.49375 290.641063 
L 254.49375 290.641063 
L 264.49375 290.641063 
" style="fill: none"/>
     <defs>
      <path id="mf3437d43d8" d="M 0 -5 
L -5 5 
L 5 5 
z
" style="stroke: #000000; stroke-width: 0.5; stroke-linejoin: miter"/>
     </defs>
     <g>
      <use xlink:href="#mf3437d43d8" x="254.49375" y="290.641063" style="fill: #2ca02c; stroke: #000000; stroke-width: 0.5; stroke-linejoin: miter"/>
     </g>
    </g>
    <g id="text_54">
     <!-- Reconvergence -->
     <g transform="translate(272.49375 294.141063) scale(0.1 -0.1)">
      <defs>
       <path id="TimesNewRomanPSMT-52" d="M 4325 0 
L 3194 0 
L 1759 1981 
Q 1600 1975 1500 1975 
Q 1459 1975 1412 1976 
Q 1366 1978 1316 1981 
L 1316 750 
Q 1316 350 1403 253 
Q 1522 116 1759 116 
L 1925 116 
L 1925 0 
L 109 0 
L 109 116 
L 269 116 
Q 538 116 653 291 
Q 719 388 719 750 
L 719 3488 
Q 719 3888 631 3984 
Q 509 4122 269 4122 
L 109 4122 
L 109 4238 
L 1653 4238 
Q 2328 4238 2648 4139 
Q 2969 4041 3192 3777 
Q 3416 3513 3416 3147 
Q 3416 2756 3161 2468 
Q 2906 2181 2372 2063 
L 3247 847 
Q 3547 428 3762 290 
Q 3978 153 4325 116 
L 4325 0 
z
M 1316 2178 
Q 1375 2178 1419 2176 
Q 1463 2175 1491 2175 
Q 2097 2175 2405 2437 
Q 2713 2700 2713 3106 
Q 2713 3503 2464 3751 
Q 2216 4000 1806 4000 
Q 1625 4000 1316 3941 
L 1316 2178 
z
" transform="scale(0.015625)"/>
       <path id="TimesNewRomanPSMT-63" d="M 2631 1088 
Q 2516 522 2178 217 
Q 1841 -88 1431 -88 
Q 944 -88 581 321 
Q 219 731 219 1428 
Q 219 2103 620 2525 
Q 1022 2947 1584 2947 
Q 2006 2947 2278 2723 
Q 2550 2500 2550 2259 
Q 2550 2141 2473 2067 
Q 2397 1994 2259 1994 
Q 2075 1994 1981 2113 
Q 1928 2178 1911 2362 
Q 1894 2547 1784 2644 
Q 1675 2738 1481 2738 
Q 1169 2738 978 2506 
Q 725 2200 725 1697 
Q 725 1184 976 792 
Q 1228 400 1656 400 
Q 1963 400 2206 609 
Q 2378 753 2541 1131 
L 2631 1088 
z
" transform="scale(0.015625)"/>
       <path id="TimesNewRomanPSMT-76" d="M 53 2863 
L 1400 2863 
L 1400 2747 
L 1313 2747 
Q 1191 2747 1127 2687 
Q 1063 2628 1063 2528 
Q 1063 2419 1128 2269 
L 1794 688 
L 2463 2328 
Q 2534 2503 2534 2594 
Q 2534 2638 2509 2666 
Q 2475 2713 2422 2730 
Q 2369 2747 2206 2747 
L 2206 2863 
L 3141 2863 
L 3141 2747 
Q 2978 2734 2916 2681 
Q 2806 2588 2719 2369 
L 1703 -88 
L 1575 -88 
L 553 2328 
Q 484 2497 421 2570 
Q 359 2644 263 2694 
Q 209 2722 53 2747 
L 53 2863 
z
" transform="scale(0.015625)"/>
       <path id="TimesNewRomanPSMT-67" d="M 966 1044 
Q 703 1172 562 1401 
Q 422 1631 422 1909 
Q 422 2334 742 2640 
Q 1063 2947 1563 2947 
Q 1972 2947 2272 2747 
L 2878 2747 
Q 3013 2747 3034 2739 
Q 3056 2731 3066 2713 
Q 3084 2684 3084 2613 
Q 3084 2531 3069 2500 
Q 3059 2484 3036 2475 
Q 3013 2466 2878 2466 
L 2506 2466 
Q 2681 2241 2681 1891 
Q 2681 1491 2375 1206 
Q 2069 922 1553 922 
Q 1341 922 1119 984 
Q 981 866 932 777 
Q 884 688 884 625 
Q 884 572 936 522 
Q 988 472 1138 450 
Q 1225 438 1575 428 
Q 2219 413 2409 384 
Q 2700 344 2873 169 
Q 3047 -6 3047 -263 
Q 3047 -616 2716 -925 
Q 2228 -1381 1444 -1381 
Q 841 -1381 425 -1109 
Q 191 -953 191 -784 
Q 191 -709 225 -634 
Q 278 -519 444 -313 
Q 466 -284 763 25 
Q 600 122 533 198 
Q 466 275 466 372 
Q 466 481 555 628 
Q 644 775 966 1044 
z
M 1509 2797 
Q 1278 2797 1122 2612 
Q 966 2428 966 2047 
Q 966 1553 1178 1281 
Q 1341 1075 1591 1075 
Q 1828 1075 1981 1253 
Q 2134 1431 2134 1813 
Q 2134 2309 1919 2591 
Q 1759 2797 1509 2797 
z
M 934 0 
Q 788 -159 713 -296 
Q 638 -434 638 -550 
Q 638 -700 819 -813 
Q 1131 -1006 1722 -1006 
Q 2284 -1006 2551 -807 
Q 2819 -609 2819 -384 
Q 2819 -222 2659 -153 
Q 2497 -84 2016 -72 
Q 1313 -53 934 0 
z
" transform="scale(0.015625)"/>
      </defs>
      <use xlink:href="#TimesNewRomanPSMT-52"/>
      <use xlink:href="#TimesNewRomanPSMT-65" transform="translate(66.699219 0)"/>
      <use xlink:href="#TimesNewRomanPSMT-63" transform="translate(111.083984 0)"/>
      <use xlink:href="#TimesNewRomanPSMT-6f" transform="translate(155.46875 0)"/>
      <use xlink:href="#TimesNewRomanPSMT-6e" transform="translate(205.46875 0)"/>
      <use xlink:href="#TimesNewRomanPSMT-76" transform="translate(255.46875 0)"/>
      <use xlink:href="#TimesNewRomanPSMT-65" transform="translate(305.46875 0)"/>
      <use xlink:href="#TimesNewRomanPSMT-72" transform="translate(349.853516 0)"/>
      <use xlink:href="#TimesNewRomanPSMT-67" transform="translate(381.404297 0)"/>
      <use xlink:href="#TimesNewRomanPSMT-65" transform="translate(431.404297 0)"/>
      <use xlink:href="#TimesNewRomanPSMT-6e" transform="translate(475.789062 0)"/>
      <use xlink:href="#TimesNewRomanPSMT-63" transform="translate(525.789062 0)"/>
      <use xlink:href="#TimesNewRomanPSMT-65" transform="translate(570.173828 0)"/>
     </g>
    </g>
    <g id="line2d_46">
     <path d="M 244.49375 304.798875 
L 254.49375 304.798875 
L 264.49375 304.798875 
" style="fill: none"/>
     <defs>
      <path id="m88f4a266a7" d="M 0 7.071068 
L 7.071068 0 
L 0 -7.071068 
L -7.071068 0 
z
" style="stroke: #000000; stroke-width: 0.5; stroke-linejoin: miter"/>
     </defs>
     <g>
      <use xlink:href="#m88f4a266a7" x="254.49375" y="304.798875" style="fill: #d62728; stroke: #000000; stroke-width: 0.5; stroke-linejoin: miter"/>
     </g>
    </g>
    <g id="text_55">
     <!-- Sequential -->
     <g transform="translate(272.49375 308.298875) scale(0.1 -0.1)">
      <defs>
       <path id="TimesNewRomanPSMT-53" d="M 2934 4334 
L 2934 2869 
L 2819 2869 
Q 2763 3291 2617 3541 
Q 2472 3791 2203 3937 
Q 1934 4084 1647 4084 
Q 1322 4084 1109 3886 
Q 897 3688 897 3434 
Q 897 3241 1031 3081 
Q 1225 2847 1953 2456 
Q 2547 2138 2764 1967 
Q 2981 1797 3098 1565 
Q 3216 1334 3216 1081 
Q 3216 600 2842 251 
Q 2469 -97 1881 -97 
Q 1697 -97 1534 -69 
Q 1438 -53 1133 45 
Q 828 144 747 144 
Q 669 144 623 97 
Q 578 50 556 -97 
L 441 -97 
L 441 1356 
L 556 1356 
Q 638 900 775 673 
Q 913 447 1195 297 
Q 1478 147 1816 147 
Q 2206 147 2432 353 
Q 2659 559 2659 841 
Q 2659 997 2573 1156 
Q 2488 1316 2306 1453 
Q 2184 1547 1640 1851 
Q 1097 2156 867 2337 
Q 638 2519 519 2737 
Q 400 2956 400 3219 
Q 400 3675 750 4004 
Q 1100 4334 1641 4334 
Q 1978 4334 2356 4169 
Q 2531 4091 2603 4091 
Q 2684 4091 2736 4139 
Q 2788 4188 2819 4334 
L 2934 4334 
z
" transform="scale(0.015625)"/>
       <path id="TimesNewRomanPSMT-71" d="M 2734 2947 
L 2734 -734 
Q 2734 -1009 2771 -1087 
Q 2809 -1166 2889 -1209 
Q 2969 -1253 3200 -1253 
L 3200 -1369 
L 1756 -1369 
L 1756 -1253 
L 1816 -1253 
Q 1991 -1253 2081 -1203 
Q 2144 -1169 2181 -1080 
Q 2219 -991 2219 -734 
L 2219 497 
Q 1934 159 1721 35 
Q 1509 -88 1281 -88 
Q 866 -88 539 290 
Q 213 669 213 1303 
Q 213 2031 644 2489 
Q 1075 2947 1684 2947 
Q 1863 2947 2013 2897 
Q 2163 2847 2281 2747 
Q 2463 2834 2628 2947 
L 2734 2947 
z
M 2219 694 
L 2219 2038 
Q 2219 2272 2158 2406 
Q 2097 2541 1940 2634 
Q 1784 2728 1588 2728 
Q 1238 2728 988 2431 
Q 738 2134 738 1531 
Q 738 953 992 653 
Q 1247 353 1606 353 
Q 1791 353 1934 433 
Q 2078 513 2219 694 
z
" transform="scale(0.015625)"/>
       <path id="TimesNewRomanPSMT-75" d="M 2709 2863 
L 2709 1128 
Q 2709 631 2732 520 
Q 2756 409 2807 365 
Q 2859 322 2928 322 
Q 3025 322 3147 375 
L 3191 266 
L 2334 -88 
L 2194 -88 
L 2194 519 
Q 1825 119 1631 15 
Q 1438 -88 1222 -88 
Q 981 -88 804 51 
Q 628 191 559 409 
Q 491 628 491 1028 
L 491 2306 
Q 491 2509 447 2587 
Q 403 2666 317 2708 
Q 231 2750 6 2747 
L 6 2863 
L 1009 2863 
L 1009 947 
Q 1009 547 1148 422 
Q 1288 297 1484 297 
Q 1619 297 1789 381 
Q 1959 466 2194 703 
L 2194 2325 
Q 2194 2569 2105 2655 
Q 2016 2741 1734 2747 
L 1734 2863 
L 2709 2863 
z
" transform="scale(0.015625)"/>
      </defs>
      <use xlink:href="#TimesNewRomanPSMT-53"/>
      <use xlink:href="#TimesNewRomanPSMT-65" transform="translate(55.615234 0)"/>
      <use xlink:href="#TimesNewRomanPSMT-71" transform="translate(100 0)"/>
      <use xlink:href="#TimesNewRomanPSMT-75" transform="translate(150 0)"/>
      <use xlink:href="#TimesNewRomanPSMT-65" transform="translate(200 0)"/>
      <use xlink:href="#TimesNewRomanPSMT-6e" transform="translate(244.384766 0)"/>
      <use xlink:href="#TimesNewRomanPSMT-74" transform="translate(294.384766 0)"/>
      <use xlink:href="#TimesNewRomanPSMT-69" transform="translate(322.167969 0)"/>
      <use xlink:href="#TimesNewRomanPSMT-61" transform="translate(349.951172 0)"/>
      <use xlink:href="#TimesNewRomanPSMT-6c" transform="translate(394.335938 0)"/>
     </g>
    </g>
    <g id="line2d_47">
     <path d="M 244.49375 318.937938 
L 254.49375 318.937938 
L 264.49375 318.937938 
" style="fill: none"/>
     <defs>
      <path id="m21dc504309" d="M -0 5 
L 5 -5 
L -5 -5 
z
" style="stroke: #000000; stroke-width: 0.5; stroke-linejoin: miter"/>
     </defs>
     <g>
      <use xlink:href="#m21dc504309" x="254.49375" y="318.937938" style="fill: #9467bd; stroke: #000000; stroke-width: 0.5; stroke-linejoin: miter"/>
     </g>
    </g>
    <g id="text_56">
     <!-- Embedding -->
     <g transform="translate(272.49375 322.437938) scale(0.1 -0.1)">
      <defs>
       <path id="TimesNewRomanPSMT-45" d="M 1338 4006 
L 1338 2331 
L 2269 2331 
Q 2631 2331 2753 2441 
Q 2916 2584 2934 2947 
L 3050 2947 
L 3050 1472 
L 2934 1472 
Q 2891 1781 2847 1869 
Q 2791 1978 2662 2040 
Q 2534 2103 2269 2103 
L 1338 2103 
L 1338 706 
Q 1338 425 1363 364 
Q 1388 303 1450 267 
Q 1513 231 1688 231 
L 2406 231 
Q 2766 231 2928 281 
Q 3091 331 3241 478 
Q 3434 672 3638 1063 
L 3763 1063 
L 3397 0 
L 131 0 
L 131 116 
L 281 116 
Q 431 116 566 188 
Q 666 238 702 338 
Q 738 438 738 747 
L 738 3500 
Q 738 3903 656 3997 
Q 544 4122 281 4122 
L 131 4122 
L 131 4238 
L 3397 4238 
L 3444 3309 
L 3322 3309 
Q 3256 3644 3176 3769 
Q 3097 3894 2941 3959 
Q 2816 4006 2500 4006 
L 1338 4006 
z
" transform="scale(0.015625)"/>
       <path id="TimesNewRomanPSMT-62" d="M 984 2369 
Q 1400 2947 1881 2947 
Q 2322 2947 2650 2570 
Q 2978 2194 2978 1541 
Q 2978 778 2472 313 
Q 2038 -88 1503 -88 
Q 1253 -88 995 3 
Q 738 94 469 275 
L 469 3241 
Q 469 3728 445 3840 
Q 422 3953 372 3993 
Q 322 4034 247 4034 
Q 159 4034 28 3984 
L -16 4094 
L 844 4444 
L 984 4444 
L 984 2369 
z
M 984 2169 
L 984 456 
Q 1144 300 1314 220 
Q 1484 141 1663 141 
Q 1947 141 2192 453 
Q 2438 766 2438 1363 
Q 2438 1913 2192 2208 
Q 1947 2503 1634 2503 
Q 1469 2503 1303 2419 
Q 1178 2356 984 2169 
z
" transform="scale(0.015625)"/>
       <path id="TimesNewRomanPSMT-64" d="M 2222 322 
Q 2013 103 1813 7 
Q 1613 -88 1381 -88 
Q 913 -88 563 304 
Q 213 697 213 1313 
Q 213 1928 600 2439 
Q 988 2950 1597 2950 
Q 1975 2950 2222 2709 
L 2222 3238 
Q 2222 3728 2198 3840 
Q 2175 3953 2125 3993 
Q 2075 4034 2000 4034 
Q 1919 4034 1784 3984 
L 1744 4094 
L 2597 4444 
L 2738 4444 
L 2738 1134 
Q 2738 631 2761 520 
Q 2784 409 2836 365 
Q 2888 322 2956 322 
Q 3041 322 3181 375 
L 3216 266 
L 2366 -88 
L 2222 -88 
L 2222 322 
z
M 2222 541 
L 2222 2016 
Q 2203 2228 2109 2403 
Q 2016 2578 1861 2667 
Q 1706 2756 1559 2756 
Q 1284 2756 1069 2509 
Q 784 2184 784 1559 
Q 784 928 1059 592 
Q 1334 256 1672 256 
Q 1956 256 2222 541 
z
" transform="scale(0.015625)"/>
      </defs>
      <use xlink:href="#TimesNewRomanPSMT-45"/>
      <use xlink:href="#TimesNewRomanPSMT-6d" transform="translate(61.083984 0)"/>
      <use xlink:href="#TimesNewRomanPSMT-62" transform="translate(138.867188 0)"/>
      <use xlink:href="#TimesNewRomanPSMT-65" transform="translate(188.867188 0)"/>
      <use xlink:href="#TimesNewRomanPSMT-64" transform="translate(233.251953 0)"/>
      <use xlink:href="#TimesNewRomanPSMT-64" transform="translate(283.251953 0)"/>
      <use xlink:href="#TimesNewRomanPSMT-69" transform="translate(333.251953 0)"/>
      <use xlink:href="#TimesNewRomanPSMT-6e" transform="translate(361.035156 0)"/>
      <use xlink:href="#TimesNewRomanPSMT-67" transform="translate(411.035156 0)"/>
     </g>
    </g>
   </g>
   <g id="line2d_48">
    <path d="M 87.284653 217.927665 
" clip-path="url(#p5333df890c)" style="fill: none; stroke: #1f77b4; stroke-width: 1.5; stroke-linecap: square"/>
    <defs>
     <path id="m71c363be79" d="M 0 6 
C 1.591219 6 3.117479 5.367802 4.242641 4.242641 
C 5.367802 3.117479 6 1.591219 6 0 
C 6 -1.591219 5.367802 -3.117479 4.242641 -4.242641 
C 3.117479 -5.367802 1.591219 -6 0 -6 
C -1.591219 -6 -3.117479 -5.367802 -4.242641 -4.242641 
C -5.367802 -3.117479 -6 -1.591219 -6 0 
C -6 1.591219 -5.367802 3.117479 -4.242641 4.242641 
C -3.117479 5.367802 -1.591219 6 0 6 
z
" style="stroke: #000000; stroke-width: 0.5"/>
    </defs>
    <g clip-path="url(#p5333df890c)">
     <use xlink:href="#m71c363be79" x="87.284653" y="217.927665" style="fill: #1f77b4; stroke: #000000; stroke-width: 0.5"/>
    </g>
   </g>
   <g id="line2d_49">
    <path d="M 268.780866 210.596324 
" clip-path="url(#p5333df890c)" style="fill: none; stroke: #ff7f0e; stroke-width: 1.5; stroke-linecap: square"/>
    <defs>
     <path id="m7690e0bdd1" d="M -6 6 
L 6 6 
L 6 -6 
L -6 -6 
z
" style="stroke: #000000; stroke-width: 0.5; stroke-linejoin: miter"/>
    </defs>
    <g clip-path="url(#p5333df890c)">
     <use xlink:href="#m7690e0bdd1" x="268.780866" y="210.596324" style="fill: #ff7f0e; stroke: #000000; stroke-width: 0.5; stroke-linejoin: miter"/>
    </g>
   </g>
   <g id="line2d_50">
    <path d="M 43.783792 325.482683 
" clip-path="url(#p5333df890c)" style="fill: none; stroke: #2ca02c; stroke-width: 1.5; stroke-linecap: square"/>
    <defs>
     <path id="m58bf38fdf4" d="M 0 -6 
L -6 6 
L 6 6 
z
" style="stroke: #000000; stroke-width: 0.5; stroke-linejoin: miter"/>
    </defs>
    <g clip-path="url(#p5333df890c)">
     <use xlink:href="#m58bf38fdf4" x="43.783792" y="325.482683" style="fill: #2ca02c; stroke: #000000; stroke-width: 0.5; stroke-linejoin: miter"/>
    </g>
   </g>
   <g id="line2d_51">
    <path d="M 117.560791 187.893779 
" clip-path="url(#p5333df890c)" style="fill: none; stroke: #d62728; stroke-width: 1.5; stroke-linecap: square"/>
    <defs>
     <path id="md7ccda433f" d="M 0 8.485281 
L 8.485281 0 
L 0 -8.485281 
L -8.485281 0 
z
" style="stroke: #000000; stroke-width: 0.5; stroke-linejoin: miter"/>
    </defs>
    <g clip-path="url(#p5333df890c)">
     <use xlink:href="#md7ccda433f" x="117.560791" y="187.893779" style="fill: #d62728; stroke: #000000; stroke-width: 0.5; stroke-linejoin: miter"/>
    </g>
   </g>
   <g id="line2d_52">
    <path d="M 47.225003 247.473273 
" clip-path="url(#p5333df890c)" style="fill: none; stroke: #9467bd; stroke-width: 1.5; stroke-linecap: square"/>
    <defs>
     <path id="m357a35f677" d="M -0 6 
L 6 -6 
L -6 -6 
z
" style="stroke: #000000; stroke-width: 0.5; stroke-linejoin: miter"/>
    </defs>
    <g clip-path="url(#p5333df890c)">
     <use xlink:href="#m357a35f677" x="47.225003" y="247.473273" style="fill: #9467bd; stroke: #000000; stroke-width: 0.5; stroke-linejoin: miter"/>
    </g>
   </g>
  </g>
 </g>
 <defs>
  <clipPath id="p5333df890c">
   <rect x="38.713125" y="29.35575" width="304.24" height="304.24"/>
  </clipPath>
 </defs>
</svg>
